<?xml version="1.0" encoding="utf-8"?>
<svg version="1.1" xmlns:xlink="http://www.w3.org/1999/xlink" width="56px" height="56px" xmlns="http://www.w3.org/2000/svg">
  <g transform="matrix(1 0 0 1 -11 -116 )">
    <path d="M 39 116  C 54.68 116  67 128.32  67 144  C 67 159.68  54.68 172  39 172  C 23.32 172  11 159.68  11 144  C 11 128.32  23.32 116  39 116  Z " fill-rule="nonzero" fill="#ffffff" stroke="none" />
    <path d="M 39 116.5  C 54.4 116.5  66.5 128.6  66.5 144  C 66.5 159.4  54.4 171.5  39 171.5  C 23.6 171.5  11.5 159.4  11.5 144  C 11.5 128.6  23.6 116.5  39 116.5  Z " stroke-width="1" stroke="#797979" fill="none" />
  </g>
</svg>