<?xml version="1.0" encoding="utf-8"?>
<svg version="1.1" xmlns:xlink="http://www.w3.org/1999/xlink" width="18px" height="18px" viewBox="6 112  18 18" xmlns="http://www.w3.org/2000/svg">
  <path d="M 15 112  C 20.04 112  24 115.96  24 121  C 24 126.04  20.04 130  15 130  C 9.96 130  6 126.04  6 121  C 6 115.96  9.96 112  15 112  Z " fill-rule="nonzero" fill="#f0f0f0" stroke="none" />
  <path d="M 15 112.5  C 19.76 112.5  23.5 116.24  23.5 121  C 23.5 125.76  19.76 129.5  15 129.5  C 10.24 129.5  6.5 125.76  6.5 121  C 6.5 116.24  10.24 112.5  15 112.5  Z " stroke-width="1" stroke="#797979" fill="none" />
  <path d="M 15 125.5  C 12.48 125.5  10.5 123.52  10.5 121  C 10.5 118.48  12.48 116.5  15 116.5  C 17.52 116.5  19.5 118.48  19.5 121  C 19.5 123.52  17.52 125.5  15 125.5  " fill-rule="nonzero" fill="#797979" stroke="none" />
</svg>