<?xml version="1.0" encoding="utf-8"?>
<svg version="1.1" xmlns:xlink="http://www.w3.org/1999/xlink" width="18px" height="18px" viewBox="6 227  18 18" xmlns="http://www.w3.org/2000/svg">
  <path d="M 15 227  C 20.04 227  24 230.96  24 236  C 24 241.04  20.04 245  15 245  C 9.96 245  6 241.04  6 236  C 6 230.96  9.96 227  15 227  Z " fill-rule="nonzero" fill="#ffffff" stroke="none" />
  <path d="M 15 227.5  C 19.76 227.5  23.5 231.24  23.5 236  C 23.5 240.76  19.76 244.5  15 244.5  C 10.24 244.5  6.5 240.76  6.5 236  C 6.5 231.24  10.24 227.5  15 227.5  Z " stroke-width="1" stroke="#797979" fill="none" />
  <path d="M 15 240.5  C 12.48 240.5  10.5 238.52  10.5 236  C 10.5 233.48  12.48 231.5  15 231.5  C 17.52 231.5  19.5 233.48  19.5 236  C 19.5 238.52  17.52 240.5  15 240.5  " fill-rule="nonzero" fill="#797979" stroke="none" />
</svg>