<?xml version="1.0" encoding="utf-8"?>
<svg version="1.1" xmlns:xlink="http://www.w3.org/1999/xlink" width="18px" height="18px" viewBox="6 524  18 18" xmlns="http://www.w3.org/2000/svg">
  <path d="M 15 524  C 20.04 524  24 527.96  24 533  C 24 538.04  20.04 542  15 542  C 9.96 542  6 538.04  6 533  C 6 527.96  9.96 524  15 524  Z " fill-rule="nonzero" fill="#f0f0f0" stroke="none" />
  <path d="M 15 524.5  C 19.76 524.5  23.5 528.24  23.5 533  C 23.5 537.76  19.76 541.5  15 541.5  C 10.24 541.5  6.5 537.76  6.5 533  C 6.5 528.24  10.24 524.5  15 524.5  Z " stroke-width="1" stroke="#797979" fill="none" />
  <path d="M 15 537.5  C 12.48 537.5  10.5 535.52  10.5 533  C 10.5 530.48  12.48 528.5  15 528.5  C 17.52 528.5  19.5 530.48  19.5 533  C 19.5 535.52  17.52 537.5  15 537.5  " fill-rule="nonzero" fill="#797979" stroke="none" />
</svg>