<?xml version="1.0" encoding="utf-8"?>
<svg version="1.1" xmlns:xlink="http://www.w3.org/1999/xlink" width="18px" height="18px" viewBox="6 425  18 18" xmlns="http://www.w3.org/2000/svg">
  <path d="M 15 425  C 20.04 425  24 428.96  24 434  C 24 439.04  20.04 443  15 443  C 9.96 443  6 439.04  6 434  C 6 428.96  9.96 425  15 425  Z " fill-rule="nonzero" fill="#f0f0f0" stroke="none" />
  <path d="M 15 425.5  C 19.76 425.5  23.5 429.24  23.5 434  C 23.5 438.76  19.76 442.5  15 442.5  C 10.24 442.5  6.5 438.76  6.5 434  C 6.5 429.24  10.24 425.5  15 425.5  Z " stroke-width="1" stroke="#797979" fill="none" />
  <path d="M 15 438.5  C 12.48 438.5  10.5 436.52  10.5 434  C 10.5 431.48  12.48 429.5  15 429.5  C 17.52 429.5  19.5 431.48  19.5 434  C 19.5 436.52  17.52 438.5  15 438.5  " fill-rule="nonzero" fill="#797979" stroke="none" />
</svg>