<?xml version="1.0" encoding="utf-8"?>
<svg version="1.1" xmlns:xlink="http://www.w3.org/1999/xlink" width="23px" height="23px" xmlns="http://www.w3.org/2000/svg">
  <g transform="matrix(1 0 0 1 -26 -7 )">
    <path d="M 48.5 11.6  C 48.5 11.6  48.5 25.4  48.5 25.4  C 48.5 27.864  43.24 29.5  37.5 29.5  C 31.76 29.5  26.5 27.864  26.5 25.4  C 26.5 25.4  26.5 11.6  26.5 11.6  C 26.5 9.136  31.76 7.5  37.5 7.5  C 43.24 7.5  48.5 9.136  48.5 11.6  Z " fill-rule="nonzero" fill="#1aaa52" stroke="none" fill-opacity="0.83921568627451" />
    <path d="M 26.5 11.9  C 26.5 9.436  31.34 7.5  37.5 7.5  C 43.66 7.5  48.5 9.436  48.5 11.9  C 48.5 11.9  48.5 25.1  48.5 25.1  C 48.5 27.564  43.66 29.5  37.5 29.5  C 31.34 29.5  26.5 27.564  26.5 25.1  C 26.5 25.1  26.5 11.9  26.5 11.9  Z " stroke-width="1" stroke="#ffffff" fill="none" />
    <path d="M 48.5 11.6  C 48.5 13.896  43.66 15.7  37.5 15.7  C 31.34 15.7  26.5 13.896  26.5 11.6  " stroke-width="1" stroke="#ffffff" fill="none" />
  </g>
</svg>