<?xml version="1.0" encoding="utf-8"?>
<svg version="1.1" xmlns:xlink="http://www.w3.org/1999/xlink" width="23px" height="23px" xmlns="http://www.w3.org/2000/svg">
  <g transform="matrix(1 0 0 1 -101 -7 )">
    <path d="M 112.5 29.1996094703209  C 108.1 23.7574519817359  101.5 20.492157488585  101.5 15.05  C 101.5 12.2457142857143  103.7 7.5  112.5 7.5  C 121.3 7.5  123.5 12.2457142857143  123.5 15.05  C 123.5 20.492157488585  116.9 23.7574519817359  112.5 29.1996094703209  Z " fill-rule="nonzero" fill="#f2f2f2" stroke="none" fill-opacity="0" />
    <path d="M 112.5 30  C 107.9 24.25  101 20.8  101 15.05  C 101 12.06  103.3 7  112.5 7  C 121.7 7  124 12.06  124 15.05  C 124 20.8  117.1 24.25  112.5 30  Z M 112.5 28.3992189406418  C 116.7 23.2649039634719  123 20.1843149771699  123 15.05  C 123 12.4314285714286  120.9 8  112.5 8  C 104.1 8  102 12.4314285714286  102 15.05  C 102 20.1843149771699  108.3 23.2649039634719  112.5 28.3992189406418  Z " fill-rule="nonzero" fill="#797979" stroke="none" />
  </g>
</svg>