<?xml version="1.0" encoding="utf-8"?>
<svg version="1.1" xmlns:xlink="http://www.w3.org/1999/xlink" width="19px" height="21px" xmlns="http://www.w3.org/2000/svg">
  <g transform="matrix(1 0 0 1 -339 -21 )">
    <path d="M 356.5 24.8  C 356.5 24.8  356.5 38.2  356.5 38.2  C 356.5 39.992  351.72 40.5  348.5 40.5  C 345.28 40.5  340.5 39.992  340.5 38.2  C 340.5 38.2  340.5 24.8  340.5 24.8  C 340.5 23.008  345.28 22.5  348.5 22.5  C 351.72 22.5  356.5 23.008  356.5 24.8  Z " fill-rule="nonzero" fill="#ffffff" stroke="none" fill-opacity="0" />
    <path d="M 340 25.4380952380952  C 340 23.5127619047619  343.74 22  348.5 22  C 353.26 22  357 23.5127619047619  357 25.4380952380952  C 357 25.4380952380952  357 37.5619047619048  357 37.5619047619048  C 357 39.4872380952381  353.26 41  348.5 41  C 343.74 41  340 39.4872380952381  340 37.5619047619048  C 340 37.5619047619048  340 25.4380952380952  340 25.4380952380952  Z " stroke-width="2" stroke="#ffffff" fill="none" />
    <path d="M 357 24.8  C 357 26.368  353.26 27.6  348.5 27.6  C 343.74 27.6  340 26.368  340 24.8  " stroke-width="2" stroke="#ffffff" fill="none" />
  </g>
</svg>