<?xml version="1.0" encoding="utf-8"?>
<svg version="1.1" xmlns:xlink="http://www.w3.org/1999/xlink" width="16px" height="16px" xmlns="http://www.w3.org/2000/svg">
  <g transform="matrix(1 0 0 1 -297 -27 )">
    <path d="M 305 27  C 309.48 27  313 30.52  313 35  C 313 39.48  309.48 43  305 43  C 300.52 43  297 39.48  297 35  C 297 30.52  300.52 27  305 27  Z " fill-rule="nonzero" fill="#ffffff" stroke="none" fill-opacity="0" />
    <path d="M 305 27.5  C 309.2 27.5  312.5 30.8  312.5 35  C 312.5 39.2  309.2 42.5  305 42.5  C 300.8 42.5  297.5 39.2  297.5 35  C 297.5 30.8  300.8 27.5  305 27.5  Z " stroke-width="1" stroke="#797979" fill="none" />
  </g>
</svg>