<?xml version="1.0" encoding="utf-8"?>
<svg version="1.1" xmlns:xlink="http://www.w3.org/1999/xlink" width="36px" height="36px" xmlns="http://www.w3.org/2000/svg">
  <g transform="matrix(1 0 0 1 -170 -506 )">
    <path d="M 188 541.199609470321  C 181 532.507451981736  170.5 527.292157488585  170.5 518.6  C 170.5 514.105714285714  174 506.5  188 506.5  C 202 506.5  205.5 514.105714285714  205.5 518.6  C 205.5 527.292157488585  195 532.507451981736  188 541.199609470321  Z " fill-rule="nonzero" fill="#ffffff" stroke="none" />
    <path d="M 188 542  C 180.8 533  170 527.6  170 518.6  C 170 513.92  173.6 506  188 506  C 202.4 506  206 513.92  206 518.6  C 206 527.6  195.2 533  188 542  Z M 188 540.399218940642  C 194.8 532.014903963472  205 526.98431497717  205 518.6  C 205 514.291428571429  201.6 507  188 507  C 174.4 507  171 514.291428571429  171 518.6  C 171 526.98431497717  181.2 532.014903963472  188 540.399218940642  Z " fill-rule="nonzero" fill="#797979" stroke="none" />
  </g>
</svg>