<?xml version="1.0" encoding="utf-8"?>
<svg version="1.1" xmlns:xlink="http://www.w3.org/1999/xlink" width="36px" height="36px" xmlns="http://www.w3.org/2000/svg">
  <g transform="matrix(1 0 0 1 -45 -258 )">
    <path d="M 54.6865841211392 260.600741313363  C 57.238302103911 259.223159485295  60.0949508996182 258.5  63 258.5  C 72.6649831220389 258.5  80.5 266.335016877961  80.5 276  C 80.5 285.664983122039  72.6649831220389 293.5  63 293.5  C 53.3350168779611 293.5  45.5 285.664983122039  45.5 276  C 45.5 273.094950899618  46.2231594852952 270.238302103911  47.6007413133633 267.686584121139  L 62.75 276.433012701892  A 0.5 0.5 0 0 0 63.4330127018922 275.75 L 54.6865841211392 260.600741313363  Z " fill-rule="nonzero" fill="#ffffff" stroke="none" />
    <path d="M 54.6865841211392 260.600741313363  C 57.238302103911 259.223159485295  60.0949508996182 258.5  63 258.5  C 72.6649831220389 258.5  80.5 266.335016877961  80.5 276  C 80.5 285.664983122039  72.6649831220389 293.5  63 293.5  C 53.3350168779611 293.5  45.5 285.664983122039  45.5 276  C 45.5 273.094950899618  46.2231594852952 270.238302103911  47.6007413133633 267.686584121139  L 62.75 276.433012701892  A 0.5 0.5 0 0 0 63.4330127018922 275.75 L 54.6865841211392 260.600741313363  Z " stroke-width="1" stroke="#797979" fill="none" />
  </g>
</svg>