<?xml version="1.0" encoding="utf-8"?>
<svg version="1.1" xmlns:xlink="http://www.w3.org/1999/xlink" width="36px" height="36px" xmlns="http://www.w3.org/2000/svg">
  <g transform="matrix(1 0 0 1 -294 -258 )">
    <path d="M 329.5 265.2  C 329.5 265.2  329.5 286.8  329.5 286.8  C 329.5 290.72  321.38 293.5  312 293.5  C 302.62 293.5  294.5 290.72  294.5 286.8  C 294.5 286.8  294.5 265.2  294.5 265.2  C 294.5 261.28  302.62 258.5  312 258.5  C 321.38 258.5  329.5 261.28  329.5 265.2  Z " fill-rule="nonzero" fill="#ffffff" stroke="none" />
    <path d="M 294.5 265.5  C 294.5 261.58  302.2 258.5  312 258.5  C 321.8 258.5  329.5 261.58  329.5 265.5  C 329.5 265.5  329.5 286.5  329.5 286.5  C 329.5 290.42  321.8 293.5  312 293.5  C 302.2 293.5  294.5 290.42  294.5 286.5  C 294.5 286.5  294.5 265.5  294.5 265.5  Z " stroke-width="1" stroke="#797979" fill="none" />
    <path d="M 329.5 265.2  C 329.5 268.952  321.8 271.9  312 271.9  C 302.2 271.9  294.5 268.952  294.5 265.2  " stroke-width="1" stroke="#797979" fill="none" />
  </g>
</svg>