<?xml version="1.0" encoding="utf-8"?>
<svg version="1.1" xmlns:xlink="http://www.w3.org/1999/xlink" width="36px" height="36px" xmlns="http://www.w3.org/2000/svg">
  <g transform="matrix(1 0 0 1 -294 -506 )">
    <path d="M 308.322019474786 518.937694101251  L 312 507.61803398875  L 315.677980525214 518.937694101251  L 327.580175524725 518.937694101251  L 317.951097499756 525.933628791873  L 321.629078024969 537.253288904374  L 312 530.257354213752  L 302.370921975031 537.253288904374  L 306.048902500244 525.933628791873  L 296.419824475275 518.937694101251  L 308.322019474786 518.937694101251  Z " fill-rule="nonzero" fill="#ffffff" stroke="none" />
    <path d="M 307.958748210784 518.437694101251  L 312 506  L 316.041251789216 518.437694101251  L 329.119017293313 518.437694101251  L 318.538882752048 526.124611797498  L 322.580134541265 538.562305898749  L 312 530.875388202502  L 301.419865458736 538.562305898749  L 305.461117247952 526.124611797498  L 294.880982706687 518.437694101251  L 307.958748210784 518.437694101251  Z M 312 509.2360679775  L 308.685290738789 519.437694101251  L 297.958666243862 519.437694101251  L 306.636687752537 525.742645786248  L 303.321978491326 535.944271909999  L 312 529.639320225002  L 320.678021508674 535.944271909999  L 317.363312247463 525.742645786248  L 326.041333756138 519.437694101251  L 315.314709261211 519.437694101251  L 312 509.2360679775  Z " fill-rule="nonzero" fill="#797979" stroke="none" />
  </g>
</svg>