<?xml version="1.0" encoding="utf-8"?>
<svg version="1.1" xmlns:xlink="http://www.w3.org/1999/xlink" width="36px" height="36px" xmlns="http://www.w3.org/2000/svg">
  <g transform="matrix(1 0 0 1 -170 -258 )">
    <path d="M 188 258  C 198.08 258  206 265.92  206 276  C 206 286.08  198.08 294  188 294  C 177.92 294  170 286.08  170 276  C 170 265.92  177.92 258  188 258  Z " fill-rule="nonzero" fill="#ffffff" stroke="none" />
    <path d="M 188 258.5  C 197.8 258.5  205.5 266.2  205.5 276  C 205.5 285.8  197.8 293.5  188 293.5  C 178.2 293.5  170.5 285.8  170.5 276  C 170.5 266.2  178.2 258.5  188 258.5  Z " stroke-width="1" stroke="#797979" fill="none" />
  </g>
</svg>