<?xml version="1.0" encoding="utf-8"?>
<svg version="1.1" xmlns:xlink="http://www.w3.org/1999/xlink" width="36px" height="36px" xmlns="http://www.w3.org/2000/svg">
  <g transform="matrix(1 0 0 1 -45 -382 )">
    <path d="M 55.3 416.194841350859  L 45.5830951894845 400  L 55.3 383.805158649141  L 55.3 392.22  L 70.7 392.22  L 70.7 383.805158649141  L 80.4169048105155 400  L 70.7 416.194841350859  L 70.7 407.78  L 55.3 407.78  L 55.3 416.194841350859  Z " fill-rule="nonzero" fill="#ffffff" stroke="none" />
    <path d="M 55.8 418  L 45 400  L 55.8 382  L 55.8 391.72  L 70.2 391.72  L 70.2 382  L 81 400  L 70.2 418  L 70.2 408.28  L 55.8 408.28  L 55.8 418  Z M 46.1661903789691 400  L 54.8 414.389682701718  L 54.8 407.28  L 71.2 407.28  L 71.2 414.389682701718  L 79.833809621031 400  L 71.2 385.610317298282  L 71.2 392.72  L 54.8 392.72  L 54.8 385.610317298282  L 46.1661903789691 400  Z " fill-rule="nonzero" fill="#797979" stroke="none" />
  </g>
</svg>