<?xml version="1.0" encoding="utf-8"?>
<svg version="1.1" xmlns:xlink="http://www.w3.org/1999/xlink" width="36px" height="36px" xmlns="http://www.w3.org/2000/svg">
  <g transform="matrix(1 0 0 1 -170 -382 )">
    <path d="M 177.7 417.5  L 205.5 417.5  L 205.5 389.7  L 201.9 389.7  L 201.9 386.1  L 198.3 386.1  L 198.3 382.5  L 170.5 382.5  L 170.5 410.3  L 174.1 410.3  L 174.1 413.9  L 177.7 413.9  L 177.7 417.5  Z " fill-rule="nonzero" fill="#ffffff" stroke="none" />
    <path d="M 177.7 417.5  L 205.5 417.5  L 205.5 389.7  L 201.9 389.7  L 201.9 386.1  L 198.3 386.1  L 198.3 382.5  L 170.5 382.5  L 170.5 410.3  L 174.1 410.3  L 174.1 413.9  L 177.7 413.9  L 177.7 417.5  Z " stroke-width="1" stroke="#797979" fill="none" />
    <path d="M 201.9 390.2  L 201.9 413.9  L 178.2 413.9  M 198.3 386.6  L 198.3 410.3  L 174.6 410.3  " stroke-width="1" stroke="#797979" fill="none" />
  </g>
</svg>