<?xml version="1.0" encoding="utf-8"?>
<svg version="1.1" xmlns:xlink="http://www.w3.org/1999/xlink" width="36px" height="36px" xmlns="http://www.w3.org/2000/svg">
  <g transform="matrix(1 0 0 1 -294 -382 )">
    <path d="M 312 386.307106781187  C 308.4 382.5  304.8 382.5  303 382.5  C 299.6 382.5  294.5 385.927586206897  294.5 392.44  C 294.5 406.847557197011  312 417.389672219213  312 417.389672219213  C 312 417.389672219213  329.5 406.847557197011  329.5 392.44  C 329.5 385.927586206897  324.4 382.5  321 382.5  C 319.2 382.5  315.6 382.5  312 386.307106781187  Z " fill-rule="nonzero" fill="#ffffff" stroke="none" />
    <path d="M 312 385.6  C 308.4 382  304.8 382  303 382  C 299.4 382  294 385.6  294 392.44  C 294 407.2  312 418  312 418  C 312 418  330 407.2  330 392.44  C 330 385.6  324.6 382  321 382  C 319.2 382  315.6 382  312 385.6  Z M 312 387.014213562373  C 315.6 383  319.2 383  321 383  C 324.2 383  329 386.255172413793  329 392.44  C 329 406.495114394021  312 416.779344438427  312 416.779344438427  C 312 416.779344438427  295 406.495114394021  295 392.44  C 295 386.255172413793  299.8 383  303 383  C 304.8 383  308.4 383  312 387.014213562373  Z " fill-rule="nonzero" fill="#797979" stroke="none" />
  </g>
</svg>