<?xml version="1.0" encoding="utf-8"?>
<svg version="1.1" xmlns:xlink="http://www.w3.org/1999/xlink" width="36px" height="36px" xmlns="http://www.w3.org/2000/svg">
  <g transform="matrix(1 0 0 1 -294 -630 )">
    <path d="M 315.5 630.5  L 308.5 630.5  L 308.5 644.5  L 294.5 644.5  L 294.5 651.5  L 308.5 651.5  L 308.5 665.5  L 315.5 665.5  L 315.5 651.5  L 329.5 651.5  L 329.5 644.5  L 315.5 644.5  L 315.5 630.5  Z " fill-rule="nonzero" fill="#ffffff" stroke="none" />
    <path d="M 315.5 630.5  L 308.5 630.5  L 308.5 644.5  L 294.5 644.5  L 294.5 651.5  L 308.5 651.5  L 308.5 665.5  L 315.5 665.5  L 315.5 651.5  L 329.5 651.5  L 329.5 644.5  L 315.5 644.5  L 315.5 630.5  Z " stroke-width="1" stroke="#797979" fill="none" />
  </g>
</svg>