<?xml version="1.0" encoding="utf-8"?>
<svg version="1.1" xmlns:xlink="http://www.w3.org/1999/xlink" width="170px" height="112px" xmlns="http://www.w3.org/2000/svg">
  <g transform="matrix(1 0 0 1 -191 -1099 )">
    <path d="M 191 1099  L 361 1099  L 361 1211  L 191 1211  L 191 1099  " fill-rule="nonzero" fill="#cccccc" stroke="none" />
    <path d="M 199 1107  L 353 1107  L 353 1203  L 199 1203  L 199 1107  " fill-rule="nonzero" fill="#ffffff" stroke="none" />
    <path d="M 287.8 1132.6  C 283.096 1132.6  279.4 1128.904  279.4 1124.2  C 279.4 1119.496  283.096 1115.8  287.8 1115.8  C 292.504 1115.8  296.2 1119.496  296.2 1124.2  C 296.2 1128.904  292.504 1132.6  287.8 1132.6  " fill-rule="nonzero" fill="#cccccc" stroke="none" />
    <path d="M 202 1200  L 202 1150.5  L 239 1128  L 290.8 1164.42352941176  L 320.4 1141.5  L 350 1164.42352941176  L 350 1200  L 202 1200  " fill-rule="nonzero" fill="#169bd5" stroke="none" />
  </g>
</svg>