<?xml version="1.0" encoding="utf-8"?>
<svg version="1.1" xmlns:xlink="http://www.w3.org/1999/xlink" width="25px" height="25px" xmlns="http://www.w3.org/2000/svg">
  <g transform="matrix(1 0 0 1 -79 -388 )">
    <path d="M 91.5 388  C 98.5 388  104 393.5  104 400.5  C 104 407.5  98.5 413  91.5 413  C 84.5 413  79 407.5  79 400.5  C 79 393.5  84.5 388  91.5 388  Z " fill-rule="nonzero" fill="#ffffff" stroke="none" />
    <path d="M 91.5 388.5  C 98.22 388.5  103.5 393.78  103.5 400.5  C 103.5 407.22  98.22 412.5  91.5 412.5  C 84.78 412.5  79.5 407.22  79.5 400.5  C 79.5 393.78  84.78 388.5  91.5 388.5  Z " stroke-width="1" stroke="#797979" fill="none" />
  </g>
</svg>