<?xml version="1.0" encoding="utf-8"?>
<svg version="1.1" xmlns:xlink="http://www.w3.org/1999/xlink" width="20px" height="20px" preserveAspectRatio="xMinYMid meet" viewBox="639 1501  20 18" xmlns="http://www.w3.org/2000/svg">
  <path d="M 649 1510  L 649 1525  A 5 5 0 0 0 654 1530 L 789 1530  A 5 5 0 0 1 794 1535 L 794 1551  " stroke-width="2" stroke="#0099cc" fill="none" />
  <path d="M 644.707106781187 1515.10710678119  L 649 1510.81421356237  L 653.292893218813 1515.10710678119  L 654.707106781187 1513.69289321881  L 649.707106781187 1508.69289321881  L 649 1507.98578643763  L 648.292893218813 1508.69289321881  L 643.292893218813 1513.69289321881  L 644.707106781187 1515.10710678119  Z M 798.292893218813 1545.89289321881  L 794 1550.18578643763  L 789.707106781187 1545.89289321881  L 788.292893218813 1547.30710678119  L 793.292893218813 1552.30710678119  L 794 1553.01421356237  L 794.707106781187 1552.30710678119  L 799.707106781187 1547.30710678119  L 798.292893218813 1545.89289321881  Z " fill-rule="nonzero" fill="#0099cc" stroke="none" />
</svg>