<?xml version="1.0" encoding="utf-8"?>
<svg version="1.1" xmlns:xlink="http://www.w3.org/1999/xlink" width="10px" height="30px" preserveAspectRatio="xMidYMin meet" viewBox="645 1746  8 30" xmlns="http://www.w3.org/2000/svg">
  <path d="M 649 1774  L 649 1756  A 5 5 0 0 0 644 1751 L 513 1751  A 5 5 0 0 1 508 1746 L 508 1603  " stroke-width="2" stroke="#0099cc" fill="none" />
  <path d="M 653.292893218813 1768.89289321881  L 649 1773.18578643763  L 644.707106781187 1768.89289321881  L 643.292893218813 1770.30710678119  L 648.292893218813 1775.30710678119  L 649 1776.01421356237  L 649.707106781187 1775.30710678119  L 654.707106781187 1770.30710678119  L 653.292893218813 1768.89289321881  Z M 503.707106781187 1608.10710678119  L 508 1603.81421356237  L 512.292893218813 1608.10710678119  L 513.707106781187 1606.69289321881  L 508.707106781187 1601.69289321881  L 508 1600.98578643763  L 507.292893218813 1601.69289321881  L 502.292893218813 1606.69289321881  L 503.707106781187 1608.10710678119  Z " fill-rule="nonzero" fill="#0099cc" stroke="none" />
</svg>