<?xml version="1.0" encoding="utf-8"?>
<svg version="1.1" xmlns:xlink="http://www.w3.org/1999/xlink" width="77px" height="77px" xmlns="http://www.w3.org/2000/svg">
  <g transform="matrix(1 0 0 1 -55 -48 )">
    <path d="M 93.5 48.5  C 114.78 48.5  131.5 65.22  131.5 86.5  C 131.5 107.78  114.78 124.5  93.5 124.5  C 72.22 124.5  55.5 107.78  55.5 86.5  C 55.5 65.22  72.22 48.5  93.5 48.5  Z " fill-rule="nonzero" fill="#ffffff" stroke="none" />
    <path d="M 93.5 48.5  C 114.78 48.5  131.5 65.22  131.5 86.5  C 131.5 107.78  114.78 124.5  93.5 124.5  C 72.22 124.5  55.5 107.78  55.5 86.5  C 55.5 65.22  72.22 48.5  93.5 48.5  Z " stroke-width="1" stroke="#000000" fill="none" stroke-opacity="0.298039215686275" />
  </g>
</svg>