<?xml version="1.0" encoding="utf-8"?>
<svg version="1.1" xmlns:xlink="http://www.w3.org/1999/xlink" width="102px" height="102px" xmlns="http://www.w3.org/2000/svg">
  <g transform="matrix(1 0 0 1 -860 -950 )">
    <path d="M 911 950  C 939.56 950  962 972.44  962 1001  C 962 1029.56  939.56 1052  911 1052  C 882.44 1052  860 1029.56  860 1001  C 860 972.44  882.44 950  911 950  Z " fill-rule="nonzero" fill="#ffffff" stroke="none" />
    <path d="M 911 950.5  C 939.28 950.5  961.5 972.72  961.5 1001  C 961.5 1029.28  939.28 1051.5  911 1051.5  C 882.72 1051.5  860.5 1029.28  860.5 1001  C 860.5 972.72  882.72 950.5  911 950.5  Z " stroke-width="1" stroke="#797979" fill="none" />
  </g>
</svg>