<?xml version="1.0" encoding="utf-8"?>
<svg version="1.1" xmlns:xlink="http://www.w3.org/1999/xlink" width="11px" height="11px" xmlns="http://www.w3.org/2000/svg">
  <g transform="matrix(1 0 0 1 -182 -203 )">
    <path d="M 187.5 203  C 190.58 203  193 205.42  193 208.5  C 193 211.58  190.58 214  187.5 214  C 184.42 214  182 211.58  182 208.5  C 182 205.42  184.42 203  187.5 203  Z " fill-rule="nonzero" fill="#00c15d" stroke="none" fill-opacity="0.952941176470588" />
    <path d="M 187.5 203.5  C 190.3 203.5  192.5 205.7  192.5 208.5  C 192.5 211.3  190.3 213.5  187.5 213.5  C 184.7 213.5  182.5 211.3  182.5 208.5  C 182.5 205.7  184.7 203.5  187.5 203.5  Z " stroke-width="1" stroke="#797979" fill="none" />
  </g>
</svg>