<?xml version="1.0" encoding="utf-8"?>
<svg version="1.1" xmlns:xlink="http://www.w3.org/1999/xlink" width="72px" height="38px" xmlns="http://www.w3.org/2000/svg">
  <g transform="matrix(1 0 0 1 -273 -102 )">
    <path d="M 274 107  A 4 4 0 0 1 278 103 L 340 103  A 4 4 0 0 1 344 107 L 344 135  A 4 4 0 0 1 340 139 L 278 139  A 4 4 0 0 1 274 135 L 274 107  Z " fill-rule="nonzero" fill="#ffffff" stroke="none" />
    <path d="M 273.5 107  A 4.5 4.5 0 0 1 278 102.5 L 340 102.5  A 4.5 4.5 0 0 1 344.5 107 L 344.5 135  A 4.5 4.5 0 0 1 340 139.5 L 278 139.5  A 4.5 4.5 0 0 1 273.5 135 L 273.5 107  Z " stroke-width="1" stroke="#00c15d" fill="none" stroke-opacity="0.996078431372549" />
  </g>
</svg>