<?xml version="1.0" encoding="utf-8"?>
<svg version="1.1" xmlns:xlink="http://www.w3.org/1999/xlink" width="13px" height="13px" xmlns="http://www.w3.org/2000/svg">
  <g transform="matrix(1 0 0 1 -31 -19 )">
    <path d="M 37.5 19  C 41.14 19  44 21.86  44 25.5  C 44 29.14  41.14 32  37.5 32  C 33.86 32  31 29.14  31 25.5  C 31 21.86  33.86 19  37.5 19  Z " fill-rule="nonzero" fill="#ffffff" stroke="none" fill-opacity="0" />
    <path d="M 37.5 19.5  C 40.86 19.5  43.5 22.14  43.5 25.5  C 43.5 28.86  40.86 31.5  37.5 31.5  C 34.14 31.5  31.5 28.86  31.5 25.5  C 31.5 22.14  34.14 19.5  37.5 19.5  Z " stroke-width="1" stroke="#797979" fill="none" />
  </g>
</svg>