<?xml version="1.0" encoding="utf-8"?>
<svg version="1.1" xmlns:xlink="http://www.w3.org/1999/xlink" width="92px" height="92px" xmlns="http://www.w3.org/2000/svg">
  <g transform="matrix(1 0 0 1 -576 -116 )">
    <path d="M 622 118.5  C 646.36 118.5  665.5 137.64  665.5 162  C 665.5 186.36  646.36 205.5  622 205.5  C 597.64 205.5  578.5 186.36  578.5 162  C 578.5 137.64  597.64 118.5  622 118.5  Z " fill-rule="nonzero" fill="#ffffff" stroke="none" fill-opacity="0" />
    <path d="M 622 117.5  C 646.92 117.5  666.5 137.08  666.5 162  C 666.5 186.92  646.92 206.5  622 206.5  C 597.08 206.5  577.5 186.92  577.5 162  C 577.5 137.08  597.08 117.5  622 117.5  Z " stroke-width="3" stroke="#fffefe" fill="none" stroke-opacity="0.698039215686274" />
  </g>
</svg>