<?xml version="1.0" encoding="utf-8"?>
<svg version="1.1" xmlns:xlink="http://www.w3.org/1999/xlink" width="67px" height="67px" xmlns="http://www.w3.org/2000/svg">
  <g transform="matrix(1 0 0 1 -589.5 -125.5 )">
    <path d="M 622.5 136  C 625.188 136  627.3 138.112  627.3 140.8  C 627.3 143.488  625.188 145.6  622.5 145.6  C 619.812 145.6  617.7 143.488  617.7 140.8  C 617.7 138.112  619.812 136  622.5 136  Z " fill-rule="nonzero" fill="#ffffff" stroke="none" fill-opacity="0" />
    <path d="M 622.5 132.5  C 627.148 132.5  630.8 136.152  630.8 140.8  C 630.8 145.448  627.148 149.1  622.5 149.1  C 617.852 149.1  614.2 145.448  614.2 140.8  C 614.2 136.152  617.852 132.5  622.5 132.5  Z " stroke-width="7" stroke="#fdfcfc" fill="none" stroke-opacity="0.603921568627451" />
    <path d="M 593 164.4  L 652 164.4  M 622.5 152.6  L 622.5 176.2  M 598.9 188  L 622.5 176.2  M 622.5 176.2  L 646.1 188  " stroke-width="7" stroke="#fdfcfc" fill="none" stroke-opacity="0.603921568627451" />
  </g>
</svg>