<?xml version="1.0" encoding="utf-8"?>
<svg version="1.1" xmlns:xlink="http://www.w3.org/1999/xlink" width="12px" height="12px" viewBox="174 166  12 12" xmlns="http://www.w3.org/2000/svg">
  <path d="M 180 166  C 183.36 166  186 168.64  186 172  C 186 175.36  183.36 178  180 178  C 176.64 178  174 175.36  174 172  C 174 168.64  176.64 166  180 166  Z " fill-rule="nonzero" fill="#f0f0f0" stroke="none" />
  <path d="M 180 166.5  C 183.08 166.5  185.5 168.92  185.5 172  C 185.5 175.08  183.08 177.5  180 177.5  C 176.92 177.5  174.5 175.08  174.5 172  C 174.5 168.92  176.92 166.5  180 166.5  Z " stroke-width="1" stroke="#797979" fill="none" />
  <path d="M 180 175  C 178.32 175  177 173.68  177 172  C 177 170.32  178.32 169  180 169  C 181.68 169  183 170.32  183 172  C 183 173.68  181.68 175  180 175  " fill-rule="nonzero" fill="#797979" stroke="none" />
</svg>