<?xml version="1.0" encoding="utf-8"?>
<svg version="1.1" xmlns:xlink="http://www.w3.org/1999/xlink" width="12px" height="12px" viewBox="247 166  12 12" xmlns="http://www.w3.org/2000/svg">
  <path d="M 253 166  C 256.36 166  259 168.64  259 172  C 259 175.36  256.36 178  253 178  C 249.64 178  247 175.36  247 172  C 247 168.64  249.64 166  253 166  Z " fill-rule="nonzero" fill="#ffffff" stroke="none" />
  <path d="M 253 166.5  C 256.08 166.5  258.5 168.92  258.5 172  C 258.5 175.08  256.08 177.5  253 177.5  C 249.92 177.5  247.5 175.08  247.5 172  C 247.5 168.92  249.92 166.5  253 166.5  Z " stroke-width="1" stroke="#797979" fill="none" />
  <path d="M 253 175  C 251.32 175  250 173.68  250 172  C 250 170.32  251.32 169  253 169  C 254.68 169  256 170.32  256 172  C 256 173.68  254.68 175  253 175  " fill-rule="nonzero" fill="#797979" stroke="none" />
</svg>