<?xml version="1.0" encoding="utf-8"?>
<svg version="1.1" xmlns:xlink="http://www.w3.org/1999/xlink" width="125px" height="125px" xmlns="http://www.w3.org/2000/svg">
  <g transform="matrix(1 0 0 1 -125 -56 )">
    <path d="M 187.5 56.5  C 222.22 56.5  249.5 83.78  249.5 118.5  C 249.5 153.22  222.22 180.5  187.5 180.5  C 152.78 180.5  125.5 153.22  125.5 118.5  C 125.5 83.78  152.78 56.5  187.5 56.5  Z " fill-rule="nonzero" fill="#f2f2f2" stroke="none" />
    <path d="M 187.5 56.5  C 222.22 56.5  249.5 83.78  249.5 118.5  C 249.5 153.22  222.22 180.5  187.5 180.5  C 152.78 180.5  125.5 153.22  125.5 118.5  C 125.5 83.78  152.78 56.5  187.5 56.5  Z " stroke-width="1" stroke="#333333" fill="none" stroke-opacity="0.223529411764706" />
  </g>
</svg>