<?xml version="1.0" encoding="utf-8"?>
<svg version="1.1" xmlns:xlink="http://www.w3.org/1999/xlink" width="507px" height="268px" xmlns="http://www.w3.org/2000/svg">
  <defs>
    <mask fill="white" id="clip19">
      <path d="M 0 268  L 0 68.9460580912863  L 47.7909836065574 154.572614107884  L 108.049180327869 88.9626556016597  L 161.034836065574 126.771784232365  L 231.68237704918 83.402489626556  L 299.213114754098 75.6182572614108  L 344.926229508197 41.1452282157676  L 399.989754098361 35.5850622406639  L 449.858606557377 11.1203319502075  L 507 0  L 507 268  L 0 268  Z " fill-rule="evenodd" />
    </mask>
  </defs>
  <g transform="matrix(1 0 0 1 -306 -486 )">
    <path d="M 0 268  L 0 68.9460580912863  L 47.7909836065574 154.572614107884  L 108.049180327869 88.9626556016597  L 161.034836065574 126.771784232365  L 231.68237704918 83.402489626556  L 299.213114754098 75.6182572614108  L 344.926229508197 41.1452282157676  L 399.989754098361 35.5850622406639  L 449.858606557377 11.1203319502075  L 507 0  L 507 268  L 0 268  Z " fill-rule="nonzero" fill="#97edd3" stroke="none" transform="matrix(1 0 0 1 306 486 )" />
    <path d="M 0 268  L 0 68.9460580912863  L 47.7909836065574 154.572614107884  L 108.049180327869 88.9626556016597  L 161.034836065574 126.771784232365  L 231.68237704918 83.402489626556  L 299.213114754098 75.6182572614108  L 344.926229508197 41.1452282157676  L 399.989754098361 35.5850622406639  L 449.858606557377 11.1203319502075  L 507 0  L 507 268  L 0 268  Z " stroke-width="4" stroke="#009688" fill="none" transform="matrix(1 0 0 1 306 486 )" mask="url(#clip19)" />
  </g>
</svg>