<?xml version="1.0" encoding="utf-8"?>
<svg version="1.1" xmlns:xlink="http://www.w3.org/1999/xlink" width="27px" height="27px" xmlns="http://www.w3.org/2000/svg">
  <g transform="matrix(1 0 0 1 -28 -133 )">
    <path d="M 41.5 133  C 49.06 133  55 138.94  55 146.5  C 55 154.06  49.06 160  41.5 160  C 33.94 160  28 154.06  28 146.5  C 28 138.94  33.94 133  41.5 133  Z " fill-rule="nonzero" fill="#ffffff" stroke="none" />
    <path d="M 41.5 133.5  C 48.78 133.5  54.5 139.22  54.5 146.5  C 54.5 153.78  48.78 159.5  41.5 159.5  C 34.22 159.5  28.5 153.78  28.5 146.5  C 28.5 139.22  34.22 133.5  41.5 133.5  Z " stroke-width="1" stroke="#cccccc" fill="none" />
  </g>
</svg>