<?xml version="1.0" encoding="utf-8"?>
<svg version="1.1" xmlns:xlink="http://www.w3.org/1999/xlink" width="34px" height="34px" xmlns="http://www.w3.org/2000/svg">
  <g transform="matrix(1 0 0 1 -23 -17 )">
    <path d="M 40 17  C 49.52 17  57 24.48  57 34  C 57 43.52  49.52 51  40 51  C 30.48 51  23 43.52  23 34  C 23 24.48  30.48 17  40 17  Z " fill-rule="nonzero" fill="#ffffff" stroke="none" fill-opacity="0.192156862745098" />
    <path d="M 40 17.5  C 49.24 17.5  56.5 24.76  56.5 34  C 56.5 43.24  49.24 50.5  40 50.5  C 30.76 50.5  23.5 43.24  23.5 34  C 23.5 24.76  30.76 17.5  40 17.5  Z " stroke-width="1" stroke="#ffffff" fill="none" />
  </g>
</svg>