<?xml version="1.0" encoding="utf-8"?>
<svg version="1.1" xmlns:xlink="http://www.w3.org/1999/xlink" width="75px" height="75px" xmlns="http://www.w3.org/2000/svg">
  <g transform="matrix(1 0 0 1 -31 -533 )">
    <path d="M 68.5 533  C 89.5 533  106 549.5  106 570.5  C 106 591.5  89.5 608  68.5 608  C 47.5 608  31 591.5  31 570.5  C 31 549.5  47.5 533  68.5 533  Z " fill-rule="nonzero" fill="#ffffff" stroke="none" fill-opacity="0.192156862745098" />
    <path d="M 68.5 533.5  C 89.22 533.5  105.5 549.78  105.5 570.5  C 105.5 591.22  89.22 607.5  68.5 607.5  C 47.78 607.5  31.5 591.22  31.5 570.5  C 31.5 549.78  47.78 533.5  68.5 533.5  Z " stroke-width="1" stroke="#ffffff" fill="none" />
  </g>
</svg>