<?xml version="1.0" encoding="utf-8"?>
<svg version="1.1" xmlns:xlink="http://www.w3.org/1999/xlink" width="48px" height="48px" xmlns="http://www.w3.org/2000/svg">
  <g transform="matrix(1 0 0 1 -21 -1318 )">
    <path d="M 45 1318  C 58.44 1318  69 1328.56  69 1342  C 69 1355.44  58.44 1366  45 1366  C 31.56 1366  21 1355.44  21 1342  C 21 1328.56  31.56 1318  45 1318  Z " fill-rule="nonzero" fill="#ffffff" stroke="none" fill-opacity="0.192156862745098" />
    <path d="M 45 1318.5  C 58.16 1318.5  68.5 1328.84  68.5 1342  C 68.5 1355.16  58.16 1365.5  45 1365.5  C 31.84 1365.5  21.5 1355.16  21.5 1342  C 21.5 1328.84  31.84 1318.5  45 1318.5  Z " stroke-width="1" stroke="#ffffff" fill="none" />
  </g>
</svg>