<?xml version="1.0" encoding="utf-8"?>
<svg version="1.1" xmlns:xlink="http://www.w3.org/1999/xlink" width="9px" height="13px" xmlns="http://www.w3.org/2000/svg">
  <g transform="matrix(1 0 0 1 -116 -189 )">
    <path d="M 120.5 200.982701467698  C 118.9 198.123970133968  116.5 196.40873133373  116.5 193.55  C 116.5 192.045714285714  117.3 189.5  120.5 189.5  C 123.7 189.5  124.5 192.045714285714  124.5 193.55  C 124.5 196.40873133373  122.1 198.123970133968  120.5 200.982701467698  Z " fill-rule="nonzero" fill="#f2f2f2" stroke="none" />
    <path d="M 120.5 202  C 118.7 198.75  116 196.8  116 193.55  C 116 191.86  116.9 189  120.5 189  C 124.1 189  125 191.86  125 193.55  C 125 196.8  122.3 198.75  120.5 202  Z M 120.5 199.965402935396  C 121.9 197.497940267936  124 196.01746266746  124 193.55  C 124 192.231428571429  123.3 190  120.5 190  C 117.7 190  117 192.231428571429  117 193.55  C 117 196.01746266746  119.1 197.497940267936  120.5 199.965402935396  Z " fill-rule="nonzero" fill="#ffffff" stroke="none" />
  </g>
</svg>