<?xml version="1.0" encoding="utf-8"?>
<svg version="1.1" xmlns:xlink="http://www.w3.org/1999/xlink" width="33px" height="33px" xmlns="http://www.w3.org/2000/svg">
  <g transform="matrix(1 0 0 1 -28 -784 )">
    <path d="M 28 784  L 61 784  L 61 817  L 28 817  L 28 784  " fill-rule="nonzero" fill="#cccccc" stroke="none" />
    <path d="M 30 786  L 59 786  L 59 815  L 30 815  L 30 786  " fill-rule="nonzero" fill="#ffffff" stroke="none" />
    <path d="M 47.635 793.9  C 46.249 793.9  45.16 792.811  45.16 791.425  C 45.16 790.039  46.249 788.95  47.635 788.95  C 49.021 788.95  50.11 790.039  50.11 791.425  C 50.11 792.811  49.021 793.9  47.635 793.9  " fill-rule="nonzero" fill="#cccccc" stroke="none" />
    <path d="M 31 814  L 31 799.15  L 37.75 792.4  L 47.2 797.8  L 52.6 796.45  L 58 797.8  L 58 814  L 31 814  " fill-rule="nonzero" fill="#169bd5" stroke="none" />
  </g>
</svg>