<?xml version="1.0" encoding="utf-8"?>
<svg version="1.1" xmlns:xlink="http://www.w3.org/1999/xlink" width="155px" height="10px" preserveAspectRatio="xMinYMid meet" viewBox="644 1746  155 8" xmlns="http://www.w3.org/2000/svg">
  <path d="M 794 1603  L 794 1745  A 5 5 0 0 1 789 1750 L 654 1750  A 5 5 0 0 0 649 1755 L 649 1774  " stroke-width="2" stroke="#0099cc" fill="none" />
  <path d="M 789.707106781187 1608.10710678119  L 794 1603.81421356237  L 798.292893218813 1608.10710678119  L 799.707106781187 1606.69289321881  L 794.707106781187 1601.69289321881  L 794 1600.98578643763  L 793.292893218813 1601.69289321881  L 788.292893218813 1606.69289321881  L 789.707106781187 1608.10710678119  Z M 653.292893218813 1768.89289321881  L 649 1773.18578643763  L 644.707106781187 1768.89289321881  L 643.292893218813 1770.30710678119  L 648.292893218813 1775.30710678119  L 649 1776.01421356237  L 649.707106781187 1775.30710678119  L 654.707106781187 1770.30710678119  L 653.292893218813 1768.89289321881  Z " fill-rule="nonzero" fill="#0099cc" stroke="none" />
</svg>