<?xml version="1.0" encoding="utf-8"?>
<svg version="1.1" xmlns:xlink="http://www.w3.org/1999/xlink" width="31px" height="18px" xmlns="http://www.w3.org/2000/svg">
  <g transform="matrix(1 0 0 1 -340 -196 )">
    <path d="M 340 208.882352941176  C 340 208.882352941176  340 199  340 199  C 340 197.343145750508  341.343145750508 196  343 196  C 343 196  368 196  368 196  C 369.656854249492 196  371 197.343145750508  371 199  C 371 199  371 208.882352941176  371 208.882352941176  C 371 210.539207190669  369.656854249492 211.882352941176  368 211.882352941176  C 368 211.882352941176  348.355145278704 211.882352941176  348.355145278704 211.882352941176  C 348.355145278704 211.882352941176  346.716666666667 214  346.716666666667 214  C 346.716666666667 214  340.87867965644 211.003673284736  340.87867965644 211.003673284736  C 340.316070521096 210.441064149392  340 209.678002410695  340 208.882352941176  Z " fill-rule="nonzero" fill="#ff0000" stroke="none" />
  </g>
</svg>