<?xml version="1.0" encoding="utf-8"?>
<svg version="1.1" xmlns:xlink="http://www.w3.org/1999/xlink" width="23px" height="23px" xmlns="http://www.w3.org/2000/svg">
  <g transform="matrix(1 0 0 1 -94 -25 )">
    <path d="M 105.5 28.0071067811865  C 103.2 25.5  100.9 25.5  99.75 25.5  C 97.65 25.5  94.5 27.6275862068966  94.5 31.67  C 94.5 40.7475571970105  105.5 47.3896722192133  105.5 47.3896722192133  C 105.5 47.3896722192133  116.5 40.7475571970105  116.5 31.67  C 116.5 27.6275862068966  113.35 25.5  111.25 25.5  C 110.1 25.5  107.8 25.5  105.5 28.0071067811865  Z " fill-rule="nonzero" fill="#f2f2f2" stroke="none" fill-opacity="0" />
    <path d="M 105.5 27.3  C 103.2 25  100.9 25  99.75 25  C 97.45 25  94 27.3  94 31.67  C 94 41.1  105.5 48  105.5 48  C 105.5 48  117 41.1  117 31.67  C 117 27.3  113.55 25  111.25 25  C 110.1 25  107.8 25  105.5 27.3  Z M 105.5 28.7142135623731  C 107.8 26  110.1 26  111.25 26  C 113.15 26  116 27.9551724137931  116 31.67  C 116 40.395114394021  105.5 46.7793444384266  105.5 46.7793444384266  C 105.5 46.7793444384266  95 40.395114394021  95 31.67  C 95 27.9551724137931  97.85 26  99.75 26  C 100.9 26  103.2 26  105.5 28.7142135623731  Z " fill-rule="nonzero" fill="#797979" stroke="none" />
  </g>
</svg>