<?xml version="1.0" encoding="utf-8"?>
<svg version="1.1" xmlns:xlink="http://www.w3.org/1999/xlink" width="43px" height="39px" xmlns="http://www.w3.org/2000/svg">
  <g transform="matrix(1 0 0 1 -634 -9 )">
    <path d="M 655 9.5  C 658.976 9.5  662.1 12.624  662.1 16.6  C 662.1 20.576  658.976 23.7  655 23.7  C 651.024 23.7  647.9 20.576  647.9 16.6  C 647.9 12.624  651.024 9.5  655 9.5  Z " fill-rule="nonzero" fill="#cccccc" stroke="none" />
    <path d="M 655 9.5  C 658.976 9.5  662.1 12.624  662.1 16.6  C 662.1 20.576  658.976 23.7  655 23.7  C 651.024 23.7  647.9 20.576  647.9 16.6  C 647.9 12.624  651.024 9.5  655 9.5  Z " stroke-width="1" stroke="#797979" fill="none" />
    <path d="M 634 31.8  L 676 31.8  M 655 24.2  L 655 39.4  M 637.8 47  L 655 39.4  M 655 39.4  L 672.2 47  " stroke-width="1" stroke="#797979" fill="none" />
  </g>
</svg>