<?xml version="1.0" encoding="utf-8"?>
<svg version="1.1" xmlns:xlink="http://www.w3.org/1999/xlink" width="70px" height="70px" xmlns="http://www.w3.org/2000/svg">
  <g transform="matrix(1 0 0 1 -268 -94 )">
    <path d="M 303 94  C 322.6 94  338 109.4  338 129  C 338 148.6  322.6 164  303 164  C 283.4 164  268 148.6  268 129  C 268 109.4  283.4 94  303 94  Z " fill-rule="nonzero" fill="#f2f2f2" stroke="none" />
    <path d="M 303 94.5  C 322.32 94.5  337.5 109.68  337.5 129  C 337.5 148.32  322.32 163.5  303 163.5  C 283.68 163.5  268.5 148.32  268.5 129  C 268.5 109.68  283.68 94.5  303 94.5  Z " stroke-width="1" stroke="#e4e4e4" fill="none" />
  </g>
</svg>