<?xml version="1.0" encoding="utf-8"?>
<svg version="1.1" xmlns:xlink="http://www.w3.org/1999/xlink" width="12px" height="12px" viewBox="395 1057.5  12 12" xmlns="http://www.w3.org/2000/svg">
  <path d="M 401 1057.5  C 404.36 1057.5  407 1060.14  407 1063.5  C 407 1066.86  404.36 1069.5  401 1069.5  C 397.64 1069.5  395 1066.86  395 1063.5  C 395 1060.14  397.64 1057.5  401 1057.5  Z " fill-rule="nonzero" fill="#f0f0f0" stroke="none" />
  <path d="M 401 1058  C 404.08 1058  406.5 1060.42  406.5 1063.5  C 406.5 1066.58  404.08 1069  401 1069  C 397.92 1069  395.5 1066.58  395.5 1063.5  C 395.5 1060.42  397.92 1058  401 1058  Z " stroke-width="1" stroke="#797979" fill="none" />
  <path d="M 401 1066.5  C 399.32 1066.5  398 1065.18  398 1063.5  C 398 1061.82  399.32 1060.5  401 1060.5  C 402.68 1060.5  404 1061.82  404 1063.5  C 404 1065.18  402.68 1066.5  401 1066.5  " fill-rule="nonzero" fill="#797979" stroke="none" />
</svg>