<?xml version="1.0" encoding="utf-8"?>
<svg version="1.1" xmlns:xlink="http://www.w3.org/1999/xlink" width="23px" height="23px" xmlns="http://www.w3.org/2000/svg">
  <g transform="matrix(1 0 0 1 -26 -1012 )">
    <path d="M 48.5 1016.6  C 48.5 1016.6  48.5 1030.4  48.5 1030.4  C 48.5 1032.864  43.24 1034.5  37.5 1034.5  C 31.76 1034.5  26.5 1032.864  26.5 1030.4  C 26.5 1030.4  26.5 1016.6  26.5 1016.6  C 26.5 1014.136  31.76 1012.5  37.5 1012.5  C 43.24 1012.5  48.5 1014.136  48.5 1016.6  Z " fill-rule="nonzero" fill="#1aaa52" stroke="none" fill-opacity="0" />
    <path d="M 26.5 1016.9  C 26.5 1014.436  31.34 1012.5  37.5 1012.5  C 43.66 1012.5  48.5 1014.436  48.5 1016.9  C 48.5 1016.9  48.5 1030.1  48.5 1030.1  C 48.5 1032.564  43.66 1034.5  37.5 1034.5  C 31.34 1034.5  26.5 1032.564  26.5 1030.1  C 26.5 1030.1  26.5 1016.9  26.5 1016.9  Z " stroke-width="1" stroke="#808080" fill="none" />
    <path d="M 48.5 1016.6  C 48.5 1018.896  43.66 1020.7  37.5 1020.7  C 31.34 1020.7  26.5 1018.896  26.5 1016.6  " stroke-width="1" stroke="#808080" fill="none" />
  </g>
</svg>