<?xml version="1.0" encoding="utf-8"?>
<svg version="1.1" xmlns:xlink="http://www.w3.org/1999/xlink" width="116px" height="116px" xmlns="http://www.w3.org/2000/svg">
  <g transform="matrix(1 0 0 1 -897 -429 )">
    <path d="M 955 435.5  C 983.84 435.5  1006.5 458.16  1006.5 487  C 1006.5 515.84  983.84 538.5  955 538.5  C 926.16 538.5  903.5 515.84  903.5 487  C 903.5 458.16  926.16 435.5  955 435.5  Z " fill-rule="nonzero" fill="#ffffff" stroke="none" fill-opacity="0" />
    <path d="M 955 432.5  C 985.52 432.5  1009.5 456.48  1009.5 487  C 1009.5 517.52  985.52 541.5  955 541.5  C 924.48 541.5  900.5 517.52  900.5 487  C 900.5 456.48  924.48 432.5  955 432.5  Z " stroke-width="7" stroke="#eebd14" fill="none" stroke-opacity="0.996078431372549" />
  </g>
</svg>