<?xml version="1.0" encoding="utf-8"?>
<svg version="1.1" xmlns:xlink="http://www.w3.org/1999/xlink" width="53px" height="53px" xmlns="http://www.w3.org/2000/svg">
  <g transform="matrix(1 0 0 1 -161 -440 )">
    <path d="M 187.5 440  C 202.34 440  214 451.66  214 466.5  C 214 481.34  202.34 493  187.5 493  C 172.66 493  161 481.34  161 466.5  C 161 451.66  172.66 440  187.5 440  Z " fill-rule="nonzero" fill="#ffffff" stroke="none" />
    <path d="M 187.5 440.5  C 202.06 440.5  213.5 451.94  213.5 466.5  C 213.5 481.06  202.06 492.5  187.5 492.5  C 172.94 492.5  161.5 481.06  161.5 466.5  C 161.5 451.94  172.94 440.5  187.5 440.5  Z " stroke-width="1" stroke="#cccccc" fill="none" />
  </g>
</svg>