<?xml version="1.0" encoding="utf-8"?>
<svg version="1.1" xmlns:xlink="http://www.w3.org/1999/xlink" width="14px" height="14px" xmlns="http://www.w3.org/2000/svg">
  <g transform="matrix(1 0 0 1 -379 -15 )">
    <path d="M 386 15  C 389.92 15  393 18.08  393 22  C 393 25.92  389.92 29  386 29  C 382.08 29  379 25.92  379 22  C 379 18.08  382.08 15  386 15  Z " fill-rule="nonzero" fill="#ffffff" stroke="none" />
    <path d="M 386 15.5  C 389.64 15.5  392.5 18.36  392.5 22  C 392.5 25.64  389.64 28.5  386 28.5  C 382.36 28.5  379.5 25.64  379.5 22  C 379.5 18.36  382.36 15.5  386 15.5  Z " stroke-width="1" stroke="#02a7f0" fill="none" />
  </g>
</svg>