<?xml version="1.0" encoding="utf-8"?>
<svg version="1.1" xmlns:xlink="http://www.w3.org/1999/xlink" width="24px" height="24px" xmlns="http://www.w3.org/2000/svg">
  <g transform="matrix(1 0 0 1 -374 -28 )">
    <path d="M 395.785481579268 46.0411321206854  C 393.697692949821 49.4240167172677  389.998931559382 51.5  386 51.5  C 379.648725376946 51.5  374.5 46.3512746230541  374.5 40  C 374.5 38.1482758622282  374.947115696572 36.3264767083346  375.800124020582 34.6884491267716  L 385.75 40.4330127018922  A 0.5 0.5 0 0 0 385.756089321168 40.4364717410686 L 395.785481579309 46.0411321206184  Z " fill-rule="nonzero" fill="#ffffff" stroke="none" />
    <path d="M 395.785481579268 46.0411321206854  C 393.697692949821 49.4240167172677  389.998931559382 51.5  386 51.5  C 379.648725376946 51.5  374.5 46.3512746230541  374.5 40  C 374.5 38.1482758622282  374.947115696572 36.3264767083346  375.800124020582 34.6884491267716  L 385.75 40.4330127018922  L 395.785481579309 46.0411321206184  Z " stroke-width="1" stroke="#02a7f0" fill="none" />
  </g>
</svg>