<?xml version="1.0" encoding="utf-8"?>
<svg version="1.1" xmlns:xlink="http://www.w3.org/1999/xlink" width="38px" height="38px" xmlns="http://www.w3.org/2000/svg">
  <g transform="matrix(1 0 0 1 -288 -577 )">
    <path d="M 307 577  C 317.64 577  326 585.36  326 596  C 326 606.64  317.64 615  307 615  C 296.36 615  288 606.64  288 596  C 288 585.36  296.36 577  307 577  Z " fill-rule="nonzero" fill="#ffffff" stroke="none" />
    <path d="M 307 577.5  C 317.36 577.5  325.5 585.64  325.5 596  C 325.5 606.36  317.36 614.5  307 614.5  C 296.64 614.5  288.5 606.36  288.5 596  C 288.5 585.64  296.64 577.5  307 577.5  Z " stroke-width="1" stroke="#797979" fill="none" />
  </g>
</svg>