<?xml version="1.0" encoding="utf-8"?>
<svg version="1.1" xmlns:xlink="http://www.w3.org/1999/xlink" width="53px" height="53px" xmlns="http://www.w3.org/2000/svg">
  <g transform="matrix(1 0 0 1 -578 -414 )">
    <path d="M 604.5 414  C 619.34 414  631 425.66  631 440.5  C 631 455.34  619.34 467  604.5 467  C 589.66 467  578 455.34  578 440.5  C 578 425.66  589.66 414  604.5 414  Z " fill-rule="nonzero" fill="#ffffff" stroke="none" />
    <path d="M 604.5 414.5  C 619.06 414.5  630.5 425.94  630.5 440.5  C 630.5 455.06  619.06 466.5  604.5 466.5  C 589.94 466.5  578.5 455.06  578.5 440.5  C 578.5 425.94  589.94 414.5  604.5 414.5  Z " stroke-width="1" stroke="#cccccc" fill="none" />
  </g>
</svg>