<?xml version="1.0" encoding="utf-8"?>
<svg version="1.1" xmlns:xlink="http://www.w3.org/1999/xlink" width="36px" height="36px" xmlns="http://www.w3.org/2000/svg">
  <g transform="matrix(1 0 0 1 -27 -249 )">
    <path d="M 41.3220194747864 261.937694101251  L 45 250.61803398875  L 48.6779805252136 261.937694101251  L 60.5801755247251 261.937694101251  L 50.9510974997558 268.933628791873  L 54.6290780249694 280.253288904374  L 45 273.257354213752  L 35.3709219750306 280.253288904374  L 39.0489025002442 268.933628791873  L 29.4198244752749 261.937694101251  L 41.3220194747864 261.937694101251  Z " fill-rule="nonzero" fill="#ffffff" stroke="none" />
    <path d="M 40.9587482107837 261.437694101251  L 45 249  L 49.0412517892163 261.437694101251  L 62.1190172933128 261.437694101251  L 51.5388827520483 269.124611797498  L 55.5801345412645 281.562305898749  L 45 273.875388202502  L 34.4198654587355 281.562305898749  L 38.4611172479517 269.124611797498  L 27.8809827066872 261.437694101251  L 40.9587482107837 261.437694101251  Z M 45 252.2360679775  L 41.6852907387891 262.437694101251  L 30.9586662438625 262.437694101251  L 39.6366877525367 268.742645786248  L 36.3219784913258 278.944271909999  L 45 272.639320225002  L 53.6780215086742 278.944271909999  L 50.3633122474633 268.742645786248  L 59.0413337561375 262.437694101251  L 48.3147092612109 262.437694101251  L 45 252.2360679775  Z " fill-rule="nonzero" fill="#535353" stroke="none" />
  </g>
</svg>