<?xml version="1.0" encoding="utf-8"?>
<svg version="1.1" xmlns:xlink="http://www.w3.org/1999/xlink" width="36px" height="36px" xmlns="http://www.w3.org/2000/svg">
  <g transform="matrix(1 0 0 1 -97 -249 )">
    <path d="M 106.686584121139 251.600741313363  C 109.238302103911 250.223159485295  112.094950899618 249.5  115 249.5  C 124.664983122039 249.5  132.5 257.335016877961  132.5 267  C 132.5 276.664983122039  124.664983122039 284.5  115 284.5  C 105.335016877961 284.5  97.5 276.664983122039  97.5 267  C 97.5 264.094950899618  98.2231594852952 261.238302103911  99.6007413133633 258.686584121139  L 114.75 267.433012701892  A 0.5 0.5 0 0 0 115.433012701892 266.75 L 106.686584121139 251.600741313363  Z " fill-rule="nonzero" fill="#ffffff" stroke="none" />
    <path d="M 106.686584121139 251.600741313363  C 109.238302103911 250.223159485295  112.094950899618 249.5  115 249.5  C 124.664983122039 249.5  132.5 257.335016877961  132.5 267  C 132.5 276.664983122039  124.664983122039 284.5  115 284.5  C 105.335016877961 284.5  97.5 276.664983122039  97.5 267  C 97.5 264.094950899618  98.2231594852952 261.238302103911  99.6007413133633 258.686584121139  L 114.75 267.433012701892  A 0.5 0.5 0 0 0 115.433012701892 266.75 L 106.686584121139 251.600741313363  Z " stroke-width="1" stroke="#535353" fill="none" />
  </g>
</svg>