<?xml version="1.0" encoding="utf-8"?>
<svg version="1.1" xmlns:xlink="http://www.w3.org/1999/xlink" width="36px" height="36px" xmlns="http://www.w3.org/2000/svg">
  <g transform="matrix(1 0 0 1 -34 -249 )">
    <path d="M 52 249.5  C 61.8 249.5  69.5 257.2  69.5 267  C 69.5 276.8  61.8 284.5  52 284.5  C 42.2 284.5  34.5 276.8  34.5 267  C 34.5 257.2  42.2 249.5  52 249.5  Z " fill-rule="nonzero" fill="#ffffff" stroke="none" />
    <path d="M 52 249.5  C 61.8 249.5  69.5 257.2  69.5 267  C 69.5 276.8  61.8 284.5  52 284.5  C 42.2 284.5  34.5 276.8  34.5 267  C 34.5 257.2  42.2 249.5  52 249.5  Z " stroke-width="1" stroke="#000000" fill="none" stroke-opacity="0.349019607843137" />
  </g>
</svg>