<?xml version="1.0" encoding="utf-8"?>
<svg version="1.1" xmlns:xlink="http://www.w3.org/1999/xlink" width="18px" height="18px" xmlns="http://www.w3.org/2000/svg">
  <g transform="matrix(1 0 0 1 -1024 -28 )">
    <path d="M 1033 28  C 1038.04 28  1042 31.96  1042 37  C 1042 42.04  1038.04 46  1033 46  C 1027.96 46  1024 42.04  1024 37  C 1024 31.96  1027.96 28  1033 28  Z " fill-rule="nonzero" fill="#ffffff" stroke="none" fill-opacity="0" />
    <path d="M 1033 28.5  C 1037.76 28.5  1041.5 32.24  1041.5 37  C 1041.5 41.76  1037.76 45.5  1033 45.5  C 1028.24 45.5  1024.5 41.76  1024.5 37  C 1024.5 32.24  1028.24 28.5  1033 28.5  Z " stroke-width="1" stroke="#bcbcbc" fill="none" />
  </g>
</svg>