<?xml version="1.0" encoding="utf-8"?>
<svg version="1.1" xmlns:xlink="http://www.w3.org/1999/xlink" width="79px" height="27px" xmlns="http://www.w3.org/2000/svg">
  <g transform="matrix(1 0 0 1 -909 -762 )">
    <path d="M 910 775.5  A 12.5 12.5 0 0 1 922.5 763 L 974.5 763  A 12.5 12.5 0 0 1 987 775.5 A 12.5 12.5 0 0 1 974.5 788 L 922.5 788  A 12.5 12.5 0 0 1 910 775.5 Z " fill-rule="nonzero" fill="#ffffff" stroke="none" />
    <path d="M 909.5 775.5  A 13 13 0 0 1 922.5 762.5 L 974.5 762.5  A 13 13 0 0 1 987.5 775.5 A 13 13 0 0 1 974.5 788.5 L 922.5 788.5  A 13 13 0 0 1 909.5 775.5 Z " stroke-width="1" stroke="#130000" fill="none" stroke-opacity="0.298039215686275" />
  </g>
</svg>