<?xml version="1.0" encoding="utf-8"?>
<svg version="1.1" xmlns:xlink="http://www.w3.org/1999/xlink" width="116px" height="27px" xmlns="http://www.w3.org/2000/svg">
  <g transform="matrix(1 0 0 1 -909 -805 )">
    <path d="M 910 818.5  A 12.5 12.5 0 0 1 922.5 806 L 1011.5 806  A 12.5 12.5 0 0 1 1024 818.5 A 12.5 12.5 0 0 1 1011.5 831 L 922.5 831  A 12.5 12.5 0 0 1 910 818.5 Z " fill-rule="nonzero" fill="#ffffff" stroke="none" />
    <path d="M 909.5 818.5  A 13 13 0 0 1 922.5 805.5 L 1011.5 805.5  A 13 13 0 0 1 1024.5 818.5 A 13 13 0 0 1 1011.5 831.5 L 922.5 831.5  A 13 13 0 0 1 909.5 818.5 Z " stroke-width="1" stroke="#130000" fill="none" stroke-opacity="0.298039215686275" />
  </g>
</svg>