<?xml version="1.0" encoding="utf-8"?>
<svg version="1.1" xmlns:xlink="http://www.w3.org/1999/xlink" width="71px" height="27px" xmlns="http://www.w3.org/2000/svg">
  <g transform="matrix(1 0 0 1 -1037 -805 )">
    <path d="M 1038 818.5  A 12.5 12.5 0 0 1 1050.5 806 L 1094.5 806  A 12.5 12.5 0 0 1 1107 818.5 A 12.5 12.5 0 0 1 1094.5 831 L 1050.5 831  A 12.5 12.5 0 0 1 1038 818.5 Z " fill-rule="nonzero" fill="#ffffff" stroke="none" />
    <path d="M 1037.5 818.5  A 13 13 0 0 1 1050.5 805.5 L 1094.5 805.5  A 13 13 0 0 1 1107.5 818.5 A 13 13 0 0 1 1094.5 831.5 L 1050.5 831.5  A 13 13 0 0 1 1037.5 818.5 Z " stroke-width="1" stroke="#130000" fill="none" stroke-opacity="0.298039215686275" />
  </g>
</svg>