<?xml version="1.0" encoding="utf-8"?>
<svg version="1.1" xmlns:xlink="http://www.w3.org/1999/xlink" width="11px" height="11px" xmlns="http://www.w3.org/2000/svg">
  <g transform="matrix(1 0 0 1 -170 -203 )">
    <path d="M 175.5 203  C 178.58 203  181 205.42  181 208.5  C 181 211.58  178.58 214  175.5 214  C 172.42 214  170 211.58  170 208.5  C 170 205.42  172.42 203  175.5 203  Z " fill-rule="nonzero" fill="#ffffff" stroke="none" />
    <path d="M 175.5 203.5  C 178.3 203.5  180.5 205.7  180.5 208.5  C 180.5 211.3  178.3 213.5  175.5 213.5  C 172.7 213.5  170.5 211.3  170.5 208.5  C 170.5 205.7  172.7 203.5  175.5 203.5  Z " stroke-width="1" stroke="#9f9f9f" fill="none" />
  </g>
</svg>