<?xml version="1.0" encoding="utf-8"?>
<svg version="1.1" xmlns:xlink="http://www.w3.org/1999/xlink" width="49px" height="49px" xmlns="http://www.w3.org/2000/svg">
  <g transform="matrix(1 0 0 1 -20 -239 )">
    <path d="M 44.5 239  C 58.22 239  69 249.78  69 263.5  C 69 277.22  58.22 288  44.5 288  C 30.78 288  20 277.22  20 263.5  C 20 249.78  30.78 239  44.5 239  Z " fill-rule="nonzero" fill="#f2f2f2" stroke="none" />
    <path d="M 44.5 239.5  C 57.94 239.5  68.5 250.06  68.5 263.5  C 68.5 276.94  57.94 287.5  44.5 287.5  C 31.06 287.5  20.5 276.94  20.5 263.5  C 20.5 250.06  31.06 239.5  44.5 239.5  Z " stroke-width="1" stroke="#bcbcbc" fill="none" />
  </g>
</svg>