<?xml version="1.0" encoding="utf-8"?>
<svg version="1.1" xmlns:xlink="http://www.w3.org/1999/xlink" width="70px" height="70px" xmlns="http://www.w3.org/2000/svg">
  <g transform="matrix(1 0 0 1 -268 -64 )">
    <path d="M 303 64  C 322.6 64  338 79.4  338 99  C 338 118.6  322.6 134  303 134  C 283.4 134  268 118.6  268 99  C 268 79.4  283.4 64  303 64  Z " fill-rule="nonzero" fill="#f2f2f2" stroke="none" />
    <path d="M 303 64.5  C 322.32 64.5  337.5 79.68  337.5 99  C 337.5 118.32  322.32 133.5  303 133.5  C 283.68 133.5  268.5 118.32  268.5 99  C 268.5 79.68  283.68 64.5  303 64.5  Z " stroke-width="1" stroke="#e4e4e4" fill="none" />
  </g>
</svg>