<?xml version="1.0" encoding="utf-8"?>
<svg version="1.1" xmlns:xlink="http://www.w3.org/1999/xlink" width="59px" height="59px" xmlns="http://www.w3.org/2000/svg">
  <g transform="matrix(1 0 0 1 -23 -264 )">
    <path d="M 23 264  L 82 264  L 82 323  L 23 323  L 23 264  " fill-rule="nonzero" fill="#cccccc" stroke="none" />
    <path d="M 27 268  L 78 268  L 78 319  L 27 319  L 27 268  " fill-rule="nonzero" fill="#ffffff" stroke="none" />
    <path d="M 58.105 281.7  C 55.627 281.7  53.68 279.753  53.68 277.275  C 53.68 274.797  55.627 272.85  58.105 272.85  C 60.583 272.85  62.53 274.797  62.53 277.275  C 62.53 279.753  60.583 281.7  58.105 281.7  " fill-rule="nonzero" fill="#cccccc" stroke="none" />
    <path d="M 29 318  L 29 291.6  L 41 279.6  L 57.8 289.2  L 67.4 286.8  L 77 289.2  L 77 318  L 29 318  " fill-rule="nonzero" fill="#169bd5" stroke="none" />
  </g>
</svg>