<?xml version="1.0" encoding="utf-8"?>
<svg version="1.1" xmlns:xlink="http://www.w3.org/1999/xlink" width="24px" height="24px" xmlns="http://www.w3.org/2000/svg">
  <g transform="matrix(1 0 0 1 -292 -52 )">
    <path d="M 292.5 65.2549019607843  C 292.5 65.2549019607843  292.5 56  292.5 56  C 292.5 54.0670033755922  294.067003375592 52.5  296 52.5  C 296 52.5  312 52.5  312 52.5  C 313.932996624408 52.5  315.5 54.0670033755922  315.5 56  C 315.5 56  315.5 65.2549019607843  315.5 65.2549019607843  C 315.5 67.1878985851921  313.932996624408 68.7549019607843  312 68.7549019607843  C 312 68.7549019607843  309.339305943073 68.7549019607843  309.339305943073 68.7549019607843  C 309.339305943073 68.7549019607843  299.715733330017 74.6995432017133  299.715733330017 74.6995432017133  C 299.715733330017 74.6995432017133  297.848305320772 68.7549019607843  297.848305320772 68.7549019607843  C 297.848305320772 68.7549019607843  296 68.7549019607843  296 68.7549019607843  C 294.067003375592 68.7549019607843  292.5 67.1878985851921  292.5 65.2549019607843  Z " fill-rule="nonzero" fill="#ffffff" stroke="none" />
    <path d="M 292 65.2549019607843  C 292 65.2549019607843  292 56  292 56  C 292 53.7908610006768  293.790861000677 52  296 52  C 296 52  312 52  312 52  C 314.209138999323 52  316 53.7908610006768  316 56  C 316 56  316 65.2549019607843  316 65.2549019607843  C 316 67.4640409601075  314.209138999323 69.2549019607843  312 69.2549019607843  C 312 69.2549019607843  309.48128342246 69.2549019607843  309.48128342246 69.2549019607843  C 309.48128342246 69.2549019607843  299.431430050026 75.4628639334522  299.431430050026 75.4628639334522  C 299.431430050026 75.4628639334522  297.48128342246 69.2549019607843  297.48128342246 69.2549019607843  C 297.48128342246 69.2549019607843  296 69.2549019607843  296 69.2549019607843  C 293.790861000677 69.2549019607843  292 67.4640409601075  292 65.2549019607843  Z M 293 65.2549019607843  C 293 66.9117562102767  294.343145750508 68.2549019607843  296 68.2549019607843  C 296 68.2549019607843  298.215327219085 68.2549019607843  298.215327219085 68.2549019607843  C 298.215327219085 68.2549019607843  300.000036610009 73.9362224699744  300.000036610009 73.9362224699744  C 300.000036610009 73.9362224699744  309.197328463687 68.2549019607843  309.197328463687 68.2549019607843  C 309.197328463687 68.2549019607843  312 68.2549019607843  312 68.2549019607843  C 313.656854249492 68.2549019607843  315 66.9117562102767  315 65.2549019607843  C 315 65.2549019607843  315 56  315 56  C 315 54.3431457505076  313.656854249492 53  312 53  C 312 53  296 53  296 53  C 294.343145750508 53  293 54.3431457505076  293 56  C 293 56  293 65.2549019607843  293 65.2549019607843  Z " fill-rule="nonzero" fill="#333333" stroke="none" />
  </g>
</svg>