<?xml version="1.0" encoding="utf-8"?>
<svg version="1.1" xmlns:xlink="http://www.w3.org/1999/xlink" width="77px" height="77px" xmlns="http://www.w3.org/2000/svg">
  <g transform="matrix(1 0 0 1 -17 -27 )">
    <path d="M 55.5 27.5  C 76.78 27.5  93.5 44.22  93.5 65.5  C 93.5 86.78  76.78 103.5  55.5 103.5  C 34.22 103.5  17.5 86.78  17.5 65.5  C 17.5 44.22  34.22 27.5  55.5 27.5  Z " fill-rule="nonzero" fill="#f2f2f2" stroke="none" />
    <path d="M 55.5 27.5  C 76.78 27.5  93.5 44.22  93.5 65.5  C 93.5 86.78  76.78 103.5  55.5 103.5  C 34.22 103.5  17.5 86.78  17.5 65.5  C 17.5 44.22  34.22 27.5  55.5 27.5  Z " stroke-width="1" stroke="#000000" fill="none" stroke-opacity="0.298039215686275" />
  </g>
</svg>