<?xml version="1.0" encoding="utf-8"?>
<svg version="1.1" xmlns:xlink="http://www.w3.org/1999/xlink" width="310px" height="146px" xmlns="http://www.w3.org/2000/svg">
  <defs>
    <filter x="0px" y="0px" width="310px" height="146px" filterUnits="userSpaceOnUse" id="filter125">
      <feOffset dx="5" dy="5" in="SourceAlpha" result="shadowOffsetInner" />
      <feGaussianBlur stdDeviation="2.5" in="shadowOffsetInner" result="shadowGaussian" />
      <feComposite in2="shadowGaussian" operator="atop" in="SourceAlpha" result="shadowComposite" />
      <feColorMatrix type="matrix" values="0 0 0 0 0  0 0 0 0 0  0 0 0 0 0  0 0 0 0.349019607843137 0  " in="shadowComposite" />
    </filter>
    <g id="widget126">
      <path d="M 0 103  C 0 103  0 17  0 17  C 0 7.61115925287651  7.61115925287651 0  17 0  C 17 0  283 0  283 0  C 292.388840747123 0  300 7.61115925287651  300 17  C 300 17  300 103  300 103  C 300 112.388840747123  292.388840747123 120  283 120  C 283 120  80 120  80 120  C 80 120  65 136  65 136  C 65 136  50 120  50 120  C 50 120  17 120  17 120  C 7.61115925287651 120  0 112.388840747123  0 103  Z " fill-rule="nonzero" fill="#ffffff" stroke="none" />
    </g>
  </defs>
  <g>
    <use xlink:href="#widget126" filter="url(#filter125)" />
    <use xlink:href="#widget126" />
  </g>
</svg>