<?xml version="1.0" encoding="utf-8"?>
<svg version="1.1" xmlns:xlink="http://www.w3.org/1999/xlink" width="67px" height="67px" xmlns="http://www.w3.org/2000/svg">
  <g transform="matrix(1 0 0 1 -558.5 -125.5 )">
    <path d="M 591.5 136  C 594.188 136  596.3 138.112  596.3 140.8  C 596.3 143.488  594.188 145.6  591.5 145.6  C 588.812 145.6  586.7 143.488  586.7 140.8  C 586.7 138.112  588.812 136  591.5 136  Z " fill-rule="nonzero" fill="#ffffff" stroke="none" fill-opacity="0" />
    <path d="M 591.5 132.5  C 596.148 132.5  599.8 136.152  599.8 140.8  C 599.8 145.448  596.148 149.1  591.5 149.1  C 586.852 149.1  583.2 145.448  583.2 140.8  C 583.2 136.152  586.852 132.5  591.5 132.5  Z " stroke-width="7" stroke="#fdfcfc" fill="none" stroke-opacity="0.603921568627451" />
    <path d="M 562 164.4  L 621 164.4  M 591.5 152.6  L 591.5 176.2  M 567.9 188  L 591.5 176.2  M 591.5 176.2  L 615.1 188  " stroke-width="7" stroke="#fdfcfc" fill="none" stroke-opacity="0.603921568627451" />
  </g>
</svg>