<?xml version="1.0" encoding="utf-8"?>
<svg version="1.1" xmlns:xlink="http://www.w3.org/1999/xlink" width="92px" height="92px" xmlns="http://www.w3.org/2000/svg">
  <g transform="matrix(1 0 0 1 -545 -116 )">
    <path d="M 591 118.5  C 615.36 118.5  634.5 137.64  634.5 162  C 634.5 186.36  615.36 205.5  591 205.5  C 566.64 205.5  547.5 186.36  547.5 162  C 547.5 137.64  566.64 118.5  591 118.5  Z " fill-rule="nonzero" fill="#ffffff" stroke="none" fill-opacity="0" />
    <path d="M 591 117.5  C 615.92 117.5  635.5 137.08  635.5 162  C 635.5 186.92  615.92 206.5  591 206.5  C 566.08 206.5  546.5 186.92  546.5 162  C 546.5 137.08  566.08 117.5  591 117.5  Z " stroke-width="3" stroke="#fffefe" fill="none" stroke-opacity="0.698039215686274" />
  </g>
</svg>