<?xml version="1.0" encoding="utf-8"?>
<svg version="1.1" xmlns:xlink="http://www.w3.org/1999/xlink" width="79px" height="79px" xmlns="http://www.w3.org/2000/svg">
  <g transform="matrix(1 0 0 1 -14 -433 )">
    <path d="M 14 433  L 93 433  L 93 512  L 14 512  L 14 433  " fill-rule="nonzero" fill="#cccccc" stroke="none" />
    <path d="M 20 439  L 87 439  L 87 506  L 20 506  L 20 439  " fill-rule="nonzero" fill="#ffffff" stroke="none" />
    <path d="M 61.005 456.7  C 57.687 456.7  55.08 454.093  55.08 450.775  C 55.08 447.457  57.687 444.85  61.005 444.85  C 64.323 444.85  66.93 447.457  66.93 450.775  C 66.93 454.093  64.323 456.7  61.005 456.7  " fill-rule="nonzero" fill="#cccccc" stroke="none" />
    <path d="M 22 504  L 22 469.35  L 37.75 453.6  L 59.8 466.2  L 72.4 463.05  L 85 466.2  L 85 504  L 22 504  " fill-rule="nonzero" fill="#169bd5" stroke="none" />
  </g>
</svg>