<?xml version="1.0" encoding="utf-8"?>
<svg version="1.1" xmlns:xlink="http://www.w3.org/1999/xlink" width="110px" height="110px" xmlns="http://www.w3.org/2000/svg">
  <g transform="matrix(1 0 0 1 -14 -787 )">
    <path d="M 14 787  L 124 787  L 124 897  L 14 897  L 14 787  " fill-rule="nonzero" fill="#cccccc" stroke="none" />
    <path d="M 22 795  L 116 795  L 116 889  L 22 889  L 22 795  " fill-rule="nonzero" fill="#ffffff" stroke="none" />
    <path d="M 79.45 820  C 74.83 820  71.2 816.37  71.2 811.75  C 71.2 807.13  74.83 803.5  79.45 803.5  C 84.07 803.5  87.7 807.13  87.7 811.75  C 87.7 816.37  84.07 820  79.45 820  " fill-rule="nonzero" fill="#cccccc" stroke="none" />
    <path d="M 25 886  L 25 837.6  L 47 815.6  L 77.8 833.2  L 95.4 828.8  L 113 833.2  L 113 886  L 25 886  " fill-rule="nonzero" fill="#169bd5" stroke="none" />
  </g>
</svg>