<?xml version="1.0" encoding="utf-8"?>
<svg version="1.1" xmlns:xlink="http://www.w3.org/1999/xlink" width="170px" height="112px" xmlns="http://www.w3.org/2000/svg">
  <g transform="matrix(1 0 0 1 -14 -1079 )">
    <path d="M 14 1079  L 184 1079  L 184 1191  L 14 1191  L 14 1079  " fill-rule="nonzero" fill="#cccccc" stroke="none" />
    <path d="M 22 1087  L 176 1087  L 176 1183  L 22 1183  L 22 1087  " fill-rule="nonzero" fill="#ffffff" stroke="none" />
    <path d="M 110.8 1112.6  C 106.096 1112.6  102.4 1108.904  102.4 1104.2  C 102.4 1099.496  106.096 1095.8  110.8 1095.8  C 115.504 1095.8  119.2 1099.496  119.2 1104.2  C 119.2 1108.904  115.504 1112.6  110.8 1112.6  " fill-rule="nonzero" fill="#cccccc" stroke="none" />
    <path d="M 25 1180  L 25 1130.5  L 62 1108  L 113.8 1144.42352941176  L 143.4 1121.5  L 173 1144.42352941176  L 173 1180  L 25 1180  " fill-rule="nonzero" fill="#169bd5" stroke="none" />
  </g>
</svg>