<?xml version="1.0" encoding="utf-8"?>
<svg version="1.1" xmlns:xlink="http://www.w3.org/1999/xlink" width="170px" height="112px" xmlns="http://www.w3.org/2000/svg">
  <g transform="matrix(1 0 0 1 -191 -1079 )">
    <path d="M 191 1079  L 361 1079  L 361 1191  L 191 1191  L 191 1079  " fill-rule="nonzero" fill="#cccccc" stroke="none" />
    <path d="M 199 1087  L 353 1087  L 353 1183  L 199 1183  L 199 1087  " fill-rule="nonzero" fill="#ffffff" stroke="none" />
    <path d="M 287.8 1112.6  C 283.096 1112.6  279.4 1108.904  279.4 1104.2  C 279.4 1099.496  283.096 1095.8  287.8 1095.8  C 292.504 1095.8  296.2 1099.496  296.2 1104.2  C 296.2 1108.904  292.504 1112.6  287.8 1112.6  " fill-rule="nonzero" fill="#cccccc" stroke="none" />
    <path d="M 202 1180  L 202 1130.5  L 239 1108  L 290.8 1144.42352941176  L 320.4 1121.5  L 350 1144.42352941176  L 350 1180  L 202 1180  " fill-rule="nonzero" fill="#169bd5" stroke="none" />
  </g>
</svg>