<?xml version="1.0" encoding="utf-8"?>
<svg version="1.1" xmlns:xlink="http://www.w3.org/1999/xlink" width="348px" height="190px" xmlns="http://www.w3.org/2000/svg">
  <g transform="matrix(1 0 0 1 -14 -1377 )">
    <path d="M 14 1377  L 362 1377  L 362 1567  L 14 1567  L 14 1377  " fill-rule="nonzero" fill="#cccccc" stroke="none" />
    <path d="M 27 1390  L 349 1390  L 349 1554  L 27 1554  L 27 1390  " fill-rule="nonzero" fill="#ffffff" stroke="none" />
    <path d="M 209.21 1434  C 201.23 1434  194.96 1427.73  194.96 1419.75  C 194.96 1411.77  201.23 1405.5  209.21 1405.5  C 217.19 1405.5  223.46 1411.77  223.46 1419.75  C 223.46 1427.73  217.19 1434  209.21 1434  " fill-rule="nonzero" fill="#cccccc" stroke="none" />
    <path d="M 32 1549  L 32 1464.3  L 110 1425.8  L 219.2 1498.55172413793  L 281.6 1448.9  L 344 1498.55172413793  L 344 1549  L 32 1549  " fill-rule="nonzero" fill="#169bd5" stroke="none" />
  </g>
</svg>