<?xml version="1.0" encoding="utf-8"?>
<svg version="1.1" xmlns:xlink="http://www.w3.org/1999/xlink" width="79px" height="79px" xmlns="http://www.w3.org/2000/svg">
  <g transform="matrix(1 0 0 1 -14 -453 )">
    <path d="M 14 453  L 93 453  L 93 532  L 14 532  L 14 453  " fill-rule="nonzero" fill="#cccccc" stroke="none" />
    <path d="M 20 459  L 87 459  L 87 526  L 20 526  L 20 459  " fill-rule="nonzero" fill="#ffffff" stroke="none" />
    <path d="M 61.005 476.7  C 57.687 476.7  55.08 474.093  55.08 470.775  C 55.08 467.457  57.687 464.85  61.005 464.85  C 64.323 464.85  66.93 467.457  66.93 470.775  C 66.93 474.093  64.323 476.7  61.005 476.7  " fill-rule="nonzero" fill="#cccccc" stroke="none" />
    <path d="M 22 524  L 22 489.35  L 37.75 473.6  L 59.8 486.2  L 72.4 483.05  L 85 486.2  L 85 524  L 22 524  " fill-rule="nonzero" fill="#169bd5" stroke="none" />
  </g>
</svg>