<?xml version="1.0" encoding="utf-8"?>
<svg version="1.1" xmlns:xlink="http://www.w3.org/1999/xlink" width="110px" height="110px" xmlns="http://www.w3.org/2000/svg">
  <g transform="matrix(1 0 0 1 -14 -807 )">
    <path d="M 14 807  L 124 807  L 124 917  L 14 917  L 14 807  " fill-rule="nonzero" fill="#cccccc" stroke="none" />
    <path d="M 22 815  L 116 815  L 116 909  L 22 909  L 22 815  " fill-rule="nonzero" fill="#ffffff" stroke="none" />
    <path d="M 79.45 840  C 74.83 840  71.2 836.37  71.2 831.75  C 71.2 827.13  74.83 823.5  79.45 823.5  C 84.07 823.5  87.7 827.13  87.7 831.75  C 87.7 836.37  84.07 840  79.45 840  " fill-rule="nonzero" fill="#cccccc" stroke="none" />
    <path d="M 25 906  L 25 857.6  L 47 835.6  L 77.8 853.2  L 95.4 848.8  L 113 853.2  L 113 906  L 25 906  " fill-rule="nonzero" fill="#169bd5" stroke="none" />
  </g>
</svg>