<?xml version="1.0" encoding="utf-8"?>
<svg version="1.1" xmlns:xlink="http://www.w3.org/1999/xlink" width="170px" height="112px" xmlns="http://www.w3.org/2000/svg">
  <g transform="matrix(1 0 0 1 -14 -1099 )">
    <path d="M 14 1099  L 184 1099  L 184 1211  L 14 1211  L 14 1099  " fill-rule="nonzero" fill="#cccccc" stroke="none" />
    <path d="M 22 1107  L 176 1107  L 176 1203  L 22 1203  L 22 1107  " fill-rule="nonzero" fill="#ffffff" stroke="none" />
    <path d="M 110.8 1132.6  C 106.096 1132.6  102.4 1128.904  102.4 1124.2  C 102.4 1119.496  106.096 1115.8  110.8 1115.8  C 115.504 1115.8  119.2 1119.496  119.2 1124.2  C 119.2 1128.904  115.504 1132.6  110.8 1132.6  " fill-rule="nonzero" fill="#cccccc" stroke="none" />
    <path d="M 25 1200  L 25 1150.5  L 62 1128  L 113.8 1164.42352941176  L 143.4 1141.5  L 173 1164.42352941176  L 173 1200  L 25 1200  " fill-rule="nonzero" fill="#169bd5" stroke="none" />
  </g>
</svg>