<?xml version="1.0" encoding="utf-8"?>
<svg version="1.1" xmlns:xlink="http://www.w3.org/1999/xlink" width="348px" height="190px" xmlns="http://www.w3.org/2000/svg">
  <g transform="matrix(1 0 0 1 -14 -1397 )">
    <path d="M 14 1397  L 362 1397  L 362 1587  L 14 1587  L 14 1397  " fill-rule="nonzero" fill="#cccccc" stroke="none" />
    <path d="M 27 1410  L 349 1410  L 349 1574  L 27 1574  L 27 1410  " fill-rule="nonzero" fill="#ffffff" stroke="none" />
    <path d="M 209.21 1454  C 201.23 1454  194.96 1447.73  194.96 1439.75  C 194.96 1431.77  201.23 1425.5  209.21 1425.5  C 217.19 1425.5  223.46 1431.77  223.46 1439.75  C 223.46 1447.73  217.19 1454  209.21 1454  " fill-rule="nonzero" fill="#cccccc" stroke="none" />
    <path d="M 32 1569  L 32 1484.3  L 110 1445.8  L 219.2 1518.55172413793  L 281.6 1468.9  L 344 1518.55172413793  L 344 1569  L 32 1569  " fill-rule="nonzero" fill="#169bd5" stroke="none" />
  </g>
</svg>