<?xml version="1.0" encoding="utf-8"?>
<svg version="1.1" xmlns:xlink="http://www.w3.org/1999/xlink" width="72px" height="38px" xmlns="http://www.w3.org/2000/svg">
  <g transform="matrix(1 0 0 1 -283 -77 )">
    <path d="M 284 82  A 4 4 0 0 1 288 78 L 350 78  A 4 4 0 0 1 354 82 L 354 110  A 4 4 0 0 1 350 114 L 288 114  A 4 4 0 0 1 284 110 L 284 82  Z " fill-rule="nonzero" fill="#ffffff" stroke="none" />
    <path d="M 283.5 82  A 4.5 4.5 0 0 1 288 77.5 L 350 77.5  A 4.5 4.5 0 0 1 354.5 82 L 354.5 110  A 4.5 4.5 0 0 1 350 114.5 L 288 114.5  A 4.5 4.5 0 0 1 283.5 110 L 283.5 82  Z " stroke-width="1" stroke="#00c15d" fill="none" stroke-opacity="0.996078431372549" />
  </g>
</svg>