<?xml version="1.0" encoding="utf-8"?>
<svg version="1.1" xmlns:xlink="http://www.w3.org/1999/xlink" width="7px" height="7px" xmlns="http://www.w3.org/2000/svg">
  <g transform="matrix(1 0 0 1 -195 -64 )">
    <path d="M 198.5 64  C 200.46 64  202 65.54  202 67.5  C 202 69.46  200.46 71  198.5 71  C 196.54 71  195 69.46  195 67.5  C 195 65.54  196.54 64  198.5 64  Z " fill-rule="nonzero" fill="#aaaaaa" stroke="none" />
    <path d="M 198.5 64.5  C 200.18 64.5  201.5 65.82  201.5 67.5  C 201.5 69.18  200.18 70.5  198.5 70.5  C 196.82 70.5  195.5 69.18  195.5 67.5  C 195.5 65.82  196.82 64.5  198.5 64.5  Z " stroke-width="1" stroke="#aaaaaa" fill="none" />
  </g>
</svg>