<?xml version="1.0" encoding="utf-8"?>
<svg version="1.1" xmlns:xlink="http://www.w3.org/1999/xlink" width="21px" height="13px" xmlns="http://www.w3.org/2000/svg">
  <g transform="matrix(1 0 0 1 -188 -61 )">
    <path d="M 198.5 61  C 204.38 61  209 63.86  209 67.5  C 209 71.14  204.38 74  198.5 74  C 192.62 74  188 71.14  188 67.5  C 188 63.86  192.62 61  198.5 61  Z " fill-rule="nonzero" fill="#ffffff" stroke="none" />
    <path d="M 198.5 61.5  C 204.1 61.5  208.5 64.14  208.5 67.5  C 208.5 70.86  204.1 73.5  198.5 73.5  C 192.9 73.5  188.5 70.86  188.5 67.5  C 188.5 64.14  192.9 61.5  198.5 61.5  Z " stroke-width="1" stroke="#aaaaaa" fill="none" />
  </g>
</svg>