<?xml version="1.0" encoding="utf-8"?>
<svg version="1.1" xmlns:xlink="http://www.w3.org/1999/xlink" width="26px" height="28px" xmlns="http://www.w3.org/2000/svg">
  <g transform="matrix(1 0 0 1 -15 -464 )">
    <path d="M 15 484.705882352941  C 15 484.705882352941  15 468  15 468  C 15 465.790861000677  16.7908610006768 464  19 464  C 19 464  37 464  37 464  C 39.2091389993232 464  41 465.790861000677  41 468  C 41 468  41 484.705882352941  41 484.705882352941  C 41 486.915021352264  39.2091389993232 488.705882352941  37 488.705882352941  C 37 488.705882352941  21.5 488.705882352941  21.5 488.705882352941  C 21.5 488.705882352941  20.6333333333333 492  20.6333333333333 492  C 20.6333333333333 492  16.1715728752538 487.534309477687  16.1715728752538 487.534309477687  C 15.4214273614617 486.784163963895  15 485.766748312299  15 484.705882352941  Z " fill-rule="nonzero" fill="#1baa53" stroke="none" />
  </g>
</svg>