<?xml version="1.0" encoding="utf-8"?>
<svg version="1.1" xmlns:xlink="http://www.w3.org/1999/xlink" width="169px" height="169px" xmlns="http://www.w3.org/2000/svg">
  <g transform="matrix(1 0 0 1 -102 -116 )">
    <path d="M 186.5 118  C 232.7 118  269 154.3  269 200.5  C 269 246.7  232.7 283  186.5 283  C 140.3 283  104 246.7  104 200.5  C 104 154.3  140.3 118  186.5 118  Z " fill-rule="nonzero" fill="#ffffff" stroke="none" />
    <path d="M 186.5 117.5  C 232.98 117.5  269.5 154.02  269.5 200.5  C 269.5 246.98  232.98 283.5  186.5 283.5  C 140.02 283.5  103.5 246.98  103.5 200.5  C 103.5 154.02  140.02 117.5  186.5 117.5  Z " stroke-width="3" stroke="#02a7f0" fill="none" />
  </g>
</svg>