<?xml version="1.0" encoding="utf-8"?>
<svg version="1.1" xmlns:xlink="http://www.w3.org/1999/xlink" width="180px" height="180px" xmlns="http://www.w3.org/2000/svg">
  <g transform="matrix(1 0 0 1 -97 -111 )">
    <path d="M 187 115  C 235.16 115  273 152.84  273 201  C 273 249.16  235.16 287  187 287  C 138.84 287  101 249.16  101 201  C 101 152.84  138.84 115  187 115  Z " fill-rule="nonzero" fill="#ffffff" stroke="none" fill-opacity="0" />
    <path d="M 187 113.5  C 236 113.5  274.5 152  274.5 201  C 274.5 250  236 288.5  187 288.5  C 138 288.5  99.5 250  99.5 201  C 99.5 152  138 113.5  187 113.5  Z " stroke-width="5" stroke="#81d3f8" fill="none" />
  </g>
</svg>