<?xml version="1.0" encoding="utf-8"?>
<svg version="1.1" xmlns:xlink="http://www.w3.org/1999/xlink" width="23px" height="23px" xmlns="http://www.w3.org/2000/svg">
  <g transform="matrix(1 0 0 1 -118 -1439 )">
    <path d="M 140.5 1443.6  C 140.5 1443.6  140.5 1457.4  140.5 1457.4  C 140.5 1459.864  135.24 1461.5  129.5 1461.5  C 123.76 1461.5  118.5 1459.864  118.5 1457.4  C 118.5 1457.4  118.5 1443.6  118.5 1443.6  C 118.5 1441.136  123.76 1439.5  129.5 1439.5  C 135.24 1439.5  140.5 1441.136  140.5 1443.6  Z " fill-rule="nonzero" fill="#f2f2f2" stroke="none" fill-opacity="0" />
    <path d="M 118.5 1443.9  C 118.5 1441.436  123.34 1439.5  129.5 1439.5  C 135.66 1439.5  140.5 1441.436  140.5 1443.9  C 140.5 1443.9  140.5 1457.1  140.5 1457.1  C 140.5 1459.564  135.66 1461.5  129.5 1461.5  C 123.34 1461.5  118.5 1459.564  118.5 1457.1  C 118.5 1457.1  118.5 1443.9  118.5 1443.9  Z " stroke-width="1" stroke="#797979" fill="none" />
    <path d="M 140.5 1443.6  C 140.5 1445.896  135.66 1447.7  129.5 1447.7  C 123.34 1447.7  118.5 1445.896  118.5 1443.6  " stroke-width="1" stroke="#797979" fill="none" />
  </g>
</svg>