<?xml version="1.0" encoding="utf-8"?>
<svg version="1.1" xmlns:xlink="http://www.w3.org/1999/xlink" width="30px" height="30px" xmlns="http://www.w3.org/2000/svg">
  <g transform="matrix(1 0 0 1 -843 -227 )">
    <path d="M 858 227  C 866.4 227  873 233.6  873 242  C 873 250.4  866.4 257  858 257  C 849.6 257  843 250.4  843 242  C 843 233.6  849.6 227  858 227  Z " fill-rule="nonzero" fill="#ffffff" stroke="none" />
    <path d="M 858 227.5  C 866.12 227.5  872.5 233.88  872.5 242  C 872.5 250.12  866.12 256.5  858 256.5  C 849.88 256.5  843.5 250.12  843.5 242  C 843.5 233.88  849.88 227.5  858 227.5  Z " stroke-width="1" stroke="#797979" fill="none" />
  </g>
</svg>