<?xml version="1.0" encoding="utf-8"?>
<svg version="1.1" xmlns:xlink="http://www.w3.org/1999/xlink" width="14px" height="14px" viewBox="638 780  14 14" xmlns="http://www.w3.org/2000/svg">
  <path d="M 645 780  C 648.92 780  652 783.08  652 787  C 652 790.92  648.92 794  645 794  C 641.08 794  638 790.92  638 787  C 638 783.08  641.08 780  645 780  Z " fill-rule="nonzero" fill="#f0f0f0" stroke="none" />
  <path d="M 645 780.5  C 648.64 780.5  651.5 783.36  651.5 787  C 651.5 790.64  648.64 793.5  645 793.5  C 641.36 793.5  638.5 790.64  638.5 787  C 638.5 783.36  641.36 780.5  645 780.5  Z " stroke-width="1" stroke="#797979" fill="none" />
  <path d="M 645 790.5  C 643.04 790.5  641.5 788.96  641.5 787  C 641.5 785.04  643.04 783.5  645 783.5  C 646.96 783.5  648.5 785.04  648.5 787  C 648.5 788.96  646.96 790.5  645 790.5  " fill-rule="nonzero" fill="#797979" stroke="none" />
</svg>