<?xml version="1.0" encoding="utf-8"?>
<svg version="1.1" xmlns:xlink="http://www.w3.org/1999/xlink" width="14px" height="14px" viewBox="129 845  14 14" xmlns="http://www.w3.org/2000/svg">
  <path d="M 136 845  C 139.92 845  143 848.08  143 852  C 143 855.92  139.92 859  136 859  C 132.08 859  129 855.92  129 852  C 129 848.08  132.08 845  136 845  Z " fill-rule="nonzero" fill="#ffffff" stroke="none" />
  <path d="M 136 845.5  C 139.64 845.5  142.5 848.36  142.5 852  C 142.5 855.64  139.64 858.5  136 858.5  C 132.36 858.5  129.5 855.64  129.5 852  C 129.5 848.36  132.36 845.5  136 845.5  Z " stroke-width="1" stroke="#797979" fill="none" />
  <path d="M 136 855.5  C 134.04 855.5  132.5 853.96  132.5 852  C 132.5 850.04  134.04 848.5  136 848.5  C 137.96 848.5  139.5 850.04  139.5 852  C 139.5 853.96  137.96 855.5  136 855.5  " fill-rule="nonzero" fill="#797979" stroke="none" />
</svg>