<?xml version="1.0" encoding="utf-8"?>
<svg version="1.1" xmlns:xlink="http://www.w3.org/1999/xlink" width="14px" height="14px" viewBox="254 845  14 14" xmlns="http://www.w3.org/2000/svg">
  <path d="M 261 845  C 264.92 845  268 848.08  268 852  C 268 855.92  264.92 859  261 859  C 257.08 859  254 855.92  254 852  C 254 848.08  257.08 845  261 845  Z " fill-rule="nonzero" fill="#ffffff" stroke="none" />
  <path d="M 261 845.5  C 264.64 845.5  267.5 848.36  267.5 852  C 267.5 855.64  264.64 858.5  261 858.5  C 257.36 858.5  254.5 855.64  254.5 852  C 254.5 848.36  257.36 845.5  261 845.5  Z " stroke-width="1" stroke="#797979" fill="none" />
  <path d="M 261 855.5  C 259.04 855.5  257.5 853.96  257.5 852  C 257.5 850.04  259.04 848.5  261 848.5  C 262.96 848.5  264.5 850.04  264.5 852  C 264.5 853.96  262.96 855.5  261 855.5  " fill-rule="nonzero" fill="#797979" stroke="none" />
</svg>