<?xml version="1.0" encoding="utf-8"?>
<svg version="1.1" xmlns:xlink="http://www.w3.org/1999/xlink" width="14px" height="14px" viewBox="129 780  14 14" xmlns="http://www.w3.org/2000/svg">
  <path d="M 136 780  C 139.92 780  143 783.08  143 787  C 143 790.92  139.92 794  136 794  C 132.08 794  129 790.92  129 787  C 129 783.08  132.08 780  136 780  Z " fill-rule="nonzero" fill="#f0f0f0" stroke="none" />
  <path d="M 136 780.5  C 139.64 780.5  142.5 783.36  142.5 787  C 142.5 790.64  139.64 793.5  136 793.5  C 132.36 793.5  129.5 790.64  129.5 787  C 129.5 783.36  132.36 780.5  136 780.5  Z " stroke-width="1" stroke="#797979" fill="none" />
  <path d="M 136 790.5  C 134.04 790.5  132.5 788.96  132.5 787  C 132.5 785.04  134.04 783.5  136 783.5  C 137.96 783.5  139.5 785.04  139.5 787  C 139.5 788.96  137.96 790.5  136 790.5  " fill-rule="nonzero" fill="#797979" stroke="none" />
</svg>