<?xml version="1.0" encoding="utf-8"?>
<svg version="1.1" xmlns:xlink="http://www.w3.org/1999/xlink" width="14px" height="14px" viewBox="763 780  14 14" xmlns="http://www.w3.org/2000/svg">
  <path d="M 770 780  C 773.92 780  777 783.08  777 787  C 777 790.92  773.92 794  770 794  C 766.08 794  763 790.92  763 787  C 763 783.08  766.08 780  770 780  Z " fill-rule="nonzero" fill="#f0f0f0" stroke="none" />
  <path d="M 770 780.5  C 773.64 780.5  776.5 783.36  776.5 787  C 776.5 790.64  773.64 793.5  770 793.5  C 766.36 793.5  763.5 790.64  763.5 787  C 763.5 783.36  766.36 780.5  770 780.5  Z " stroke-width="1" stroke="#797979" fill="none" />
  <path d="M 770 790.5  C 768.04 790.5  766.5 788.96  766.5 787  C 766.5 785.04  768.04 783.5  770 783.5  C 771.96 783.5  773.5 785.04  773.5 787  C 773.5 788.96  771.96 790.5  770 790.5  " fill-rule="nonzero" fill="#797979" stroke="none" />
</svg>