<?xml version="1.0" encoding="utf-8"?>
<svg version="1.1" xmlns:xlink="http://www.w3.org/1999/xlink" width="14px" height="14px" viewBox="379 845  14 14" xmlns="http://www.w3.org/2000/svg">
  <path d="M 386 845  C 389.92 845  393 848.08  393 852  C 393 855.92  389.92 859  386 859  C 382.08 859  379 855.92  379 852  C 379 848.08  382.08 845  386 845  Z " fill-rule="nonzero" fill="#ffffff" stroke="none" />
  <path d="M 386 845.5  C 389.64 845.5  392.5 848.36  392.5 852  C 392.5 855.64  389.64 858.5  386 858.5  C 382.36 858.5  379.5 855.64  379.5 852  C 379.5 848.36  382.36 845.5  386 845.5  Z " stroke-width="1" stroke="#797979" fill="none" />
  <path d="M 386 855.5  C 384.04 855.5  382.5 853.96  382.5 852  C 382.5 850.04  384.04 848.5  386 848.5  C 387.96 848.5  389.5 850.04  389.5 852  C 389.5 853.96  387.96 855.5  386 855.5  " fill-rule="nonzero" fill="#797979" stroke="none" />
</svg>