<?xml version="1.0" encoding="utf-8"?>
<svg version="1.1" xmlns:xlink="http://www.w3.org/1999/xlink" width="14px" height="14px" viewBox="512 780  14 14" xmlns="http://www.w3.org/2000/svg">
  <path d="M 519 780  C 522.92 780  526 783.08  526 787  C 526 790.92  522.92 794  519 794  C 515.08 794  512 790.92  512 787  C 512 783.08  515.08 780  519 780  Z " fill-rule="nonzero" fill="#ffffff" stroke="none" />
  <path d="M 519 780.5  C 522.64 780.5  525.5 783.36  525.5 787  C 525.5 790.64  522.64 793.5  519 793.5  C 515.36 793.5  512.5 790.64  512.5 787  C 512.5 783.36  515.36 780.5  519 780.5  Z " stroke-width="1" stroke="#797979" fill="none" />
  <path d="M 519 790.5  C 517.04 790.5  515.5 788.96  515.5 787  C 515.5 785.04  517.04 783.5  519 783.5  C 520.96 783.5  522.5 785.04  522.5 787  C 522.5 788.96  520.96 790.5  519 790.5  " fill-rule="nonzero" fill="#797979" stroke="none" />
</svg>