<?xml version="1.0" encoding="utf-8"?>
<svg version="1.1" xmlns:xlink="http://www.w3.org/1999/xlink" width="263px" height="24px" xmlns="http://www.w3.org/2000/svg">
  <defs>
    <mask fill="white" id="clip2">
      <path d="M 0 24  L 0 0  L 155.723684210526 0  L 263 0  L 263 24  L 205.901315789474 24  L 0 24  Z " fill-rule="evenodd" />
    </mask>
  </defs>
  <g transform="matrix(1 0 0 1 -968 -187 )">
    <path d="M 0 24  L 0 0  L 155.723684210526 0  L 263 0  L 263 24  L 205.901315789474 24  L 0 24  Z " fill-rule="nonzero" fill="#ffffff" stroke="none" transform="matrix(1 0 0 1 968 187 )" />
    <path d="M 0 24  L 0 0  L 155.723684210526 0  L 263 0  L 263 24  L 205.901315789474 24  L 0 24  Z " stroke-width="2" stroke="#e5e5e5" fill="none" transform="matrix(1 0 0 1 968 187 )" mask="url(#clip2)" />
  </g>
</svg>