<?xml version="1.0" encoding="utf-8"?>
<svg version="1.1" xmlns:xlink="http://www.w3.org/1999/xlink" width="268px" height="24px" xmlns="http://www.w3.org/2000/svg">
  <defs>
    <mask fill="white" id="clip4">
      <path d="M 0 24  L 0 0  L 158.684210526316 0  L 268 0  L 268 24  L 209.815789473684 24  L 0 24  Z " fill-rule="evenodd" />
    </mask>
  </defs>
  <g transform="matrix(1 0 0 1 -1230 -187 )">
    <path d="M 0 24  L 0 0  L 158.684210526316 0  L 268 0  L 268 24  L 209.815789473684 24  L 0 24  Z " fill-rule="nonzero" fill="#ffffff" stroke="none" transform="matrix(1 0 0 1 1230 187 )" />
    <path d="M 0 24  L 0 0  L 158.684210526316 0  L 268 0  L 268 24  L 209.815789473684 24  L 0 24  Z " stroke-width="2" stroke="#e5e5e5" fill="none" transform="matrix(1 0 0 1 1230 187 )" mask="url(#clip4)" />
  </g>
</svg>