<?xml version="1.0" encoding="utf-8"?>
<svg version="1.1" xmlns:xlink="http://www.w3.org/1999/xlink" width="40px" height="40px" xmlns="http://www.w3.org/2000/svg">
  <g transform="matrix(1 0 0 1 -622 -671 )">
    <path d="M 622 671  L 662 671  L 662 711  L 622 711  L 622 671  " fill-rule="nonzero" fill="#cccccc" stroke="none" />
    <path d="M 625 674  L 659 674  L 659 708  L 625 708  L 625 674  " fill-rule="nonzero" fill="#ffffff" stroke="none" />
    <path d="M 645.8 683  C 644.12 683  642.8 681.68  642.8 680  C 642.8 678.32  644.12 677  645.8 677  C 647.48 677  648.8 678.32  648.8 680  C 648.8 681.68  647.48 683  645.8 683  " fill-rule="nonzero" fill="#cccccc" stroke="none" />
    <path d="M 626 707  L 626 689.4  L 634 681.4  L 645.2 687.8  L 651.6 686.2  L 658 687.8  L 658 707  L 626 707  " fill-rule="nonzero" fill="#169bd5" stroke="none" />
  </g>
</svg>