<?xml version="1.0" encoding="utf-8"?>
<svg version="1.1" xmlns:xlink="http://www.w3.org/1999/xlink" width="12px" height="12px" viewBox="970 683  12 12" xmlns="http://www.w3.org/2000/svg">
  <path d="M 976 683  C 979.36 683  982 685.64  982 689  C 982 692.36  979.36 695  976 695  C 972.64 695  970 692.36  970 689  C 970 685.64  972.64 683  976 683  Z " fill-rule="nonzero" fill="#ffffff" stroke="none" />
  <path d="M 976 683.5  C 979.08 683.5  981.5 685.92  981.5 689  C 981.5 692.08  979.08 694.5  976 694.5  C 972.92 694.5  970.5 692.08  970.5 689  C 970.5 685.92  972.92 683.5  976 683.5  Z " stroke-width="1" stroke="#797979" fill="none" />
  <path d="M 976 692  C 974.32 692  973 690.68  973 689  C 973 687.32  974.32 686  976 686  C 977.68 686  979 687.32  979 689  C 979 690.68  977.68 692  976 692  " fill-rule="nonzero" fill="#797979" stroke="none" />
</svg>