<?xml version="1.0" encoding="utf-8"?>
<svg version="1.1" xmlns:xlink="http://www.w3.org/1999/xlink" width="12px" height="12px" viewBox="970 501  12 12" xmlns="http://www.w3.org/2000/svg">
  <path d="M 976 501  C 979.36 501  982 503.64  982 507  C 982 510.36  979.36 513  976 513  C 972.64 513  970 510.36  970 507  C 970 503.64  972.64 501  976 501  Z " fill-rule="nonzero" fill="#f0f0f0" stroke="none" />
  <path d="M 976 501.5  C 979.08 501.5  981.5 503.92  981.5 507  C 981.5 510.08  979.08 512.5  976 512.5  C 972.92 512.5  970.5 510.08  970.5 507  C 970.5 503.92  972.92 501.5  976 501.5  Z " stroke-width="1" stroke="#797979" fill="none" />
  <path d="M 976 510  C 974.32 510  973 508.68  973 507  C 973 505.32  974.32 504  976 504  C 977.68 504  979 505.32  979 507  C 979 508.68  977.68 510  976 510  " fill-rule="nonzero" fill="#797979" stroke="none" />
</svg>