<?xml version="1.0" encoding="utf-8"?>
<svg version="1.1" xmlns:xlink="http://www.w3.org/1999/xlink" width="12px" height="12px" viewBox="970 657  12 12" xmlns="http://www.w3.org/2000/svg">
  <path d="M 976 657  C 979.36 657  982 659.64  982 663  C 982 666.36  979.36 669  976 669  C 972.64 669  970 666.36  970 663  C 970 659.64  972.64 657  976 657  Z " fill-rule="nonzero" fill="#ffffff" stroke="none" />
  <path d="M 976 657.5  C 979.08 657.5  981.5 659.92  981.5 663  C 981.5 666.08  979.08 668.5  976 668.5  C 972.92 668.5  970.5 666.08  970.5 663  C 970.5 659.92  972.92 657.5  976 657.5  Z " stroke-width="1" stroke="#797979" fill="none" />
  <path d="M 976 666  C 974.32 666  973 664.68  973 663  C 973 661.32  974.32 660  976 660  C 977.68 660  979 661.32  979 663  C 979 664.68  977.68 666  976 666  " fill-rule="nonzero" fill="#797979" stroke="none" />
</svg>