<?xml version="1.0" encoding="utf-8"?>
<svg version="1.1" xmlns:xlink="http://www.w3.org/1999/xlink" width="12px" height="12px" viewBox="970 553  12 12" xmlns="http://www.w3.org/2000/svg">
  <path d="M 976 553  C 979.36 553  982 555.64  982 559  C 982 562.36  979.36 565  976 565  C 972.64 565  970 562.36  970 559  C 970 555.64  972.64 553  976 553  Z " fill-rule="nonzero" fill="#f0f0f0" stroke="none" />
  <path d="M 976 553.5  C 979.08 553.5  981.5 555.92  981.5 559  C 981.5 562.08  979.08 564.5  976 564.5  C 972.92 564.5  970.5 562.08  970.5 559  C 970.5 555.92  972.92 553.5  976 553.5  Z " stroke-width="1" stroke="#797979" fill="none" />
  <path d="M 976 562  C 974.32 562  973 560.68  973 559  C 973 557.32  974.32 556  976 556  C 977.68 556  979 557.32  979 559  C 979 560.68  977.68 562  976 562  " fill-rule="nonzero" fill="#797979" stroke="none" />
</svg>