<?xml version="1.0" encoding="utf-8"?>
<svg version="1.1" xmlns:xlink="http://www.w3.org/1999/xlink" width="12px" height="12px" viewBox="970 475  12 12" xmlns="http://www.w3.org/2000/svg">
  <path d="M 976 475  C 979.36 475  982 477.64  982 481  C 982 484.36  979.36 487  976 487  C 972.64 487  970 484.36  970 481  C 970 477.64  972.64 475  976 475  Z " fill-rule="nonzero" fill="#f0f0f0" stroke="none" />
  <path d="M 976 475.5  C 979.08 475.5  981.5 477.92  981.5 481  C 981.5 484.08  979.08 486.5  976 486.5  C 972.92 486.5  970.5 484.08  970.5 481  C 970.5 477.92  972.92 475.5  976 475.5  Z " stroke-width="1" stroke="#797979" fill="none" />
  <path d="M 976 484  C 974.32 484  973 482.68  973 481  C 973 479.32  974.32 478  976 478  C 977.68 478  979 479.32  979 481  C 979 482.68  977.68 484  976 484  " fill-rule="nonzero" fill="#797979" stroke="none" />
</svg>