<?xml version="1.0" encoding="utf-8"?>
<svg version="1.1" xmlns:xlink="http://www.w3.org/1999/xlink" width="12px" height="12px" viewBox="970 527  12 12" xmlns="http://www.w3.org/2000/svg">
  <path d="M 976 527  C 979.36 527  982 529.64  982 533  C 982 536.36  979.36 539  976 539  C 972.64 539  970 536.36  970 533  C 970 529.64  972.64 527  976 527  Z " fill-rule="nonzero" fill="#ffffff" stroke="none" />
  <path d="M 976 527.5  C 979.08 527.5  981.5 529.92  981.5 533  C 981.5 536.08  979.08 538.5  976 538.5  C 972.92 538.5  970.5 536.08  970.5 533  C 970.5 529.92  972.92 527.5  976 527.5  Z " stroke-width="1" stroke="#797979" fill="none" />
  <path d="M 976 536  C 974.32 536  973 534.68  973 533  C 973 531.32  974.32 530  976 530  C 977.68 530  979 531.32  979 533  C 979 534.68  977.68 536  976 536  " fill-rule="nonzero" fill="#797979" stroke="none" />
</svg>