<?xml version="1.0" encoding="utf-8"?>
<svg version="1.1" xmlns:xlink="http://www.w3.org/1999/xlink" width="12px" height="12px" viewBox="970 605  12 12" xmlns="http://www.w3.org/2000/svg">
  <path d="M 976 605  C 979.36 605  982 607.64  982 611  C 982 614.36  979.36 617  976 617  C 972.64 617  970 614.36  970 611  C 970 607.64  972.64 605  976 605  Z " fill-rule="nonzero" fill="#ffffff" stroke="none" />
  <path d="M 976 605.5  C 979.08 605.5  981.5 607.92  981.5 611  C 981.5 614.08  979.08 616.5  976 616.5  C 972.92 616.5  970.5 614.08  970.5 611  C 970.5 607.92  972.92 605.5  976 605.5  Z " stroke-width="1" stroke="#797979" fill="none" />
  <path d="M 976 614  C 974.32 614  973 612.68  973 611  C 973 609.32  974.32 608  976 608  C 977.68 608  979 609.32  979 611  C 979 612.68  977.68 614  976 614  " fill-rule="nonzero" fill="#797979" stroke="none" />
</svg>