<?xml version="1.0" encoding="utf-8"?>
<svg version="1.1" xmlns:xlink="http://www.w3.org/1999/xlink" width="12px" height="12px" viewBox="970 579  12 12" xmlns="http://www.w3.org/2000/svg">
  <path d="M 976 579  C 979.36 579  982 581.64  982 585  C 982 588.36  979.36 591  976 591  C 972.64 591  970 588.36  970 585  C 970 581.64  972.64 579  976 579  Z " fill-rule="nonzero" fill="#ffffff" stroke="none" />
  <path d="M 976 579.5  C 979.08 579.5  981.5 581.92  981.5 585  C 981.5 588.08  979.08 590.5  976 590.5  C 972.92 590.5  970.5 588.08  970.5 585  C 970.5 581.92  972.92 579.5  976 579.5  Z " stroke-width="1" stroke="#797979" fill="none" />
  <path d="M 976 588  C 974.32 588  973 586.68  973 585  C 973 583.32  974.32 582  976 582  C 977.68 582  979 583.32  979 585  C 979 586.68  977.68 588  976 588  " fill-rule="nonzero" fill="#797979" stroke="none" />
</svg>