<?xml version="1.0" encoding="utf-8"?>
<svg version="1.1" xmlns:xlink="http://www.w3.org/1999/xlink" width="62px" height="62px" xmlns="http://www.w3.org/2000/svg">
  <g transform="matrix(1 0 0 1 -71 -1182 )">
    <path d="M 102 1182  C 119.36 1182  133 1195.64  133 1213  C 133 1230.36  119.36 1244  102 1244  C 84.64 1244  71 1230.36  71 1213  C 71 1195.64  84.64 1182  102 1182  Z " fill-rule="nonzero" fill="#ffffff" stroke="none" />
    <path d="M 102 1182.5  C 119.08 1182.5  132.5 1195.92  132.5 1213  C 132.5 1230.08  119.08 1243.5  102 1243.5  C 84.92 1243.5  71.5 1230.08  71.5 1213  C 71.5 1195.92  84.92 1182.5  102 1182.5  Z " stroke-width="1" stroke="#cccccc" fill="none" />
  </g>
</svg>