<?xml version="1.0" encoding="utf-8"?>
<svg version="1.1" xmlns:xlink="http://www.w3.org/1999/xlink" width="40px" height="40px" xmlns="http://www.w3.org/2000/svg">
  <g transform="matrix(1 0 0 1 -322 -472 )">
    <path d="M 342 472  C 353.2 472  362 480.8  362 492  C 362 503.2  353.2 512  342 512  C 330.8 512  322 503.2  322 492  C 322 480.8  330.8 472  342 472  Z " fill-rule="nonzero" fill="#eeeeee" stroke="none" />
    <path d="M 342 472.5  C 352.92 472.5  361.5 481.08  361.5 492  C 361.5 502.92  352.92 511.5  342 511.5  C 331.08 511.5  322.5 502.92  322.5 492  C 322.5 481.08  331.08 472.5  342 472.5  Z " stroke-width="1" stroke="#cccccc" fill="none" />
  </g>
</svg>