<?xml version="1.0" encoding="utf-8"?>
<svg version="1.1" xmlns:xlink="http://www.w3.org/1999/xlink" width="53px" height="53px" xmlns="http://www.w3.org/2000/svg">
  <g transform="matrix(1 0 0 1 -15 -140 )">
    <path d="M 41.5 140.5  C 56.06 140.5  67.5 151.94  67.5 166.5  C 67.5 181.06  56.06 192.5  41.5 192.5  C 26.94 192.5  15.5 181.06  15.5 166.5  C 15.5 151.94  26.94 140.5  41.5 140.5  Z " fill-rule="nonzero" fill="#f2f2f2" stroke="none" />
    <path d="M 41.5 140.5  C 56.06 140.5  67.5 151.94  67.5 166.5  C 67.5 181.06  56.06 192.5  41.5 192.5  C 26.94 192.5  15.5 181.06  15.5 166.5  C 15.5 151.94  26.94 140.5  41.5 140.5  Z " stroke-width="1" stroke="#333333" fill="none" stroke-opacity="0.223529411764706" />
  </g>
</svg>