<?xml version="1.0" encoding="utf-8"?>
<svg version="1.1" xmlns:xlink="http://www.w3.org/1999/xlink" width="21px" height="13px" xmlns="http://www.w3.org/2000/svg">
  <defs>
    <mask fill="white" id="clip95">
      <path d="M 2.00307239808761 9.22285777841979  C 0.914183509198737 9.22285777841981  0.05862795364318 8.38168130783159  0.0586279536431951 7.3110930725375  C 0.0586279536431485 6.24050483724334  0.914183509198706 5.3993283666551  2.00307239808758 5.39932836665508  L 7.44751684253206 5.39932836665507  C 8.53640573142093 5.39932836665504  9.39196128697649 6.24050483724327  9.39196128697647 7.31109307253736  C 9.39196128697652 8.38168130783151  8.53640573142096 9.22285777841975  7.44751684253209 9.22285777841978  L 2.00307239808761 9.22285777841979  Z M 9.95002805907711 2.17417027979995  C 12.4139023544116 -0.248294363512085  16.2857048185086 -0.2482943635121  18.749579113843 2.17417027979994  C 21.2134534091775 4.59663492311198  21.2134534091775 8.40336507688803  18.749579113843 10.8258297202001  C 16.2857048185086 13.2482943635121  12.4139023544116 13.2482943635121  9.95002805907711 10.8258297202001  C 7.48615376374265 8.40336507688804  7.48615376374265 4.596634923112  9.95002805907711 2.17417027979995  Z " fill-rule="evenodd" />
    </mask>
  </defs>
  <g transform="matrix(1 0 0 1 -341 -97 )">
    <path d="M 2.00307239808761 9.22285777841979  C 0.914183509198737 9.22285777841981  0.05862795364318 8.38168130783159  0.0586279536431951 7.3110930725375  C 0.0586279536431485 6.24050483724334  0.914183509198706 5.3993283666551  2.00307239808758 5.39932836665508  L 7.44751684253206 5.39932836665507  C 8.53640573142093 5.39932836665504  9.39196128697649 6.24050483724327  9.39196128697647 7.31109307253736  C 9.39196128697652 8.38168130783151  8.53640573142096 9.22285777841975  7.44751684253209 9.22285777841978  L 2.00307239808761 9.22285777841979  Z M 9.95002805907711 2.17417027979995  C 12.4139023544116 -0.248294363512085  16.2857048185086 -0.2482943635121  18.749579113843 2.17417027979994  C 21.2134534091775 4.59663492311198  21.2134534091775 8.40336507688803  18.749579113843 10.8258297202001  C 16.2857048185086 13.2482943635121  12.4139023544116 13.2482943635121  9.95002805907711 10.8258297202001  C 7.48615376374265 8.40336507688804  7.48615376374265 4.596634923112  9.95002805907711 2.17417027979995  Z " fill-rule="nonzero" fill="#ffffff" stroke="none" fill-opacity="0" transform="matrix(1 0 0 1 341 97 )" />
    <path d="M 2.00307239808761 9.22285777841979  C 0.914183509198737 9.22285777841981  0.05862795364318 8.38168130783159  0.0586279536431951 7.3110930725375  C 0.0586279536431485 6.24050483724334  0.914183509198706 5.3993283666551  2.00307239808758 5.39932836665508  L 7.44751684253206 5.39932836665507  C 8.53640573142093 5.39932836665504  9.39196128697649 6.24050483724327  9.39196128697647 7.31109307253736  C 9.39196128697652 8.38168130783151  8.53640573142096 9.22285777841975  7.44751684253209 9.22285777841978  L 2.00307239808761 9.22285777841979  Z " stroke-width="2" stroke="#797979" fill="none" transform="matrix(1 0 0 1 341 97 )" mask="url(#clip95)" />
    <path d="M 9.95002805907711 2.17417027979995  C 12.4139023544116 -0.248294363512085  16.2857048185086 -0.2482943635121  18.749579113843 2.17417027979994  C 21.2134534091775 4.59663492311198  21.2134534091775 8.40336507688803  18.749579113843 10.8258297202001  C 16.2857048185086 13.2482943635121  12.4139023544116 13.2482943635121  9.95002805907711 10.8258297202001  C 7.48615376374265 8.40336507688804  7.48615376374265 4.596634923112  9.95002805907711 2.17417027979995  Z " stroke-width="2" stroke="#797979" fill="none" transform="matrix(1 0 0 1 341 97 )" mask="url(#clip95)" />
  </g>
</svg>