<?xml version="1.0" encoding="utf-8"?>
<svg version="1.1" xmlns:xlink="http://www.w3.org/1999/xlink" width="67px" height="67px" xmlns="http://www.w3.org/2000/svg">
  <g transform="matrix(1 0 0 1 -22 -190 )">
    <path d="M 55.5 190  C 74.26 190  89 204.74  89 223.5  C 89 242.26  74.26 257  55.5 257  C 36.74 257  22 242.26  22 223.5  C 22 204.74  36.74 190  55.5 190  Z " fill-rule="nonzero" fill="#f2f2f2" stroke="none" />
    <path d="M 55.5 190.5  C 73.98 190.5  88.5 205.02  88.5 223.5  C 88.5 241.98  73.98 256.5  55.5 256.5  C 37.02 256.5  22.5 241.98  22.5 223.5  C 22.5 205.02  37.02 190.5  55.5 190.5  Z " stroke-width="1" stroke="#bcbcbc" fill="none" />
  </g>
</svg>