<?xml version="1.0" encoding="utf-8"?>
<svg version="1.1" xmlns:xlink="http://www.w3.org/1999/xlink" width="80px" height="80px" xmlns="http://www.w3.org/2000/svg">
  <g transform="matrix(1 0 0 1 -18 -391 )">
    <path d="M 18 391  L 98 391  L 98 471  L 18 471  L 18 391  " fill-rule="nonzero" fill="#cccccc" stroke="none" />
    <path d="M 24 397  L 92 397  L 92 465  L 24 465  L 24 397  " fill-rule="nonzero" fill="#ffffff" stroke="none" />
    <path d="M 65.6 415  C 62.24 415  59.6 412.36  59.6 409  C 59.6 405.64  62.24 403  65.6 403  C 68.96 403  71.6 405.64  71.6 409  C 71.6 412.36  68.96 415  65.6 415  " fill-rule="nonzero" fill="#cccccc" stroke="none" />
    <path d="M 26 463  L 26 427.8  L 42 411.8  L 64.4 424.6  L 77.2 421.4  L 90 424.6  L 90 463  L 26 463  " fill-rule="nonzero" fill="#169bd5" stroke="none" />
  </g>
</svg>