<?xml version="1.0" encoding="utf-8"?>
<svg version="1.1" xmlns:xlink="http://www.w3.org/1999/xlink" width="9px" height="13px" xmlns="http://www.w3.org/2000/svg">
  <g transform="matrix(1 0 0 1 -8 -264 )">
    <path d="M 12.5 275.982701467698  C 10.9 273.123970133968  8.5 271.40873133373  8.5 268.55  C 8.5 267.045714285714  9.3 264.5  12.5 264.5  C 15.7 264.5  16.5 267.045714285714  16.5 268.55  C 16.5 271.40873133373  14.1 273.123970133968  12.5 275.982701467698  Z " fill-rule="nonzero" fill="#02a7f0" stroke="none" />
    <path d="M 12.5 277  C 10.7 273.75  8 271.8  8 268.55  C 8 266.86  8.9 264  12.5 264  C 16.1 264  17 266.86  17 268.55  C 17 271.8  14.3 273.75  12.5 277  Z M 12.5 274.965402935396  C 13.9 272.497940267936  16 271.01746266746  16 268.55  C 16 267.231428571429  15.3 265  12.5 265  C 9.7 265  9 267.231428571429  9 268.55  C 9 271.01746266746  11.1 272.497940267936  12.5 274.965402935396  Z " fill-rule="nonzero" fill="#ffffff" stroke="none" />
  </g>
</svg>