<?xml version="1.0" encoding="utf-8"?>
<svg version="1.1" xmlns:xlink="http://www.w3.org/1999/xlink" width="82px" height="76px" xmlns="http://www.w3.org/2000/svg">
  <g transform="matrix(1 0 0 1 -95 -160 )">
    <path d="M 95 160  L 177 160  L 177 236  L 95 236  L 95 160  " fill-rule="nonzero" fill="#cccccc" stroke="none" />
    <path d="M 100 165  L 172 165  L 172 231  L 100 231  L 100 165  " fill-rule="nonzero" fill="#ffffff" stroke="none" />
    <path d="M 143.34 182.8  C 140.148 182.8  137.64 180.292  137.64 177.1  C 137.64 173.908  140.148 171.4  143.34 171.4  C 146.532 171.4  149.04 173.908  149.04 177.1  C 149.04 180.292  146.532 182.8  143.34 182.8  " fill-rule="nonzero" fill="#cccccc" stroke="none" />
    <path d="M 102 229  L 102 194.9  L 119 179.4  L 142.8 194.521951219512  L 156.4 188.7  L 170 194.521951219512  L 170 229  L 102 229  " fill-rule="nonzero" fill="#169bd5" stroke="none" />
  </g>
</svg>