<?xml version="1.0" encoding="utf-8"?>
<svg version="1.1" xmlns:xlink="http://www.w3.org/1999/xlink" width="24px" height="16px" xmlns="http://www.w3.org/2000/svg">
  <g transform="matrix(1 0 0 1 -834 -27 )">
    <path d="M 834 34.6666666666667  C 834 34.6666666666667  834 30  834 30  C 834 28.3431457505076  835.343145750508 27  837 27  C 837 27  855 27  855 27  C 856.656854249492 27  858 28.3431457505076  858 30  C 858 30  858 34.6666666666667  858 34.6666666666667  C 858 36.323520916159  856.656854249492 37.6666666666667  855 37.6666666666667  C 855 37.6666666666667  850.8 37.6666666666667  850.8 37.6666666666667  C 850.8 37.6666666666667  834.068817204301 42.7132616487455  834.068817204301 42.7132616487455  C 834.068817204301 42.7132616487455  838.8 37.6666666666667  838.8 37.6666666666667  C 838.8 37.6666666666667  837 37.6666666666667  837 37.6666666666667  C 835.343145750508 37.6666666666667  834 36.323520916159  834 34.6666666666667  Z " fill-rule="nonzero" fill="#ff0000" stroke="none" />
  </g>
</svg>