<?xml version="1.0" encoding="utf-8"?>
<svg version="1.1" xmlns:xlink="http://www.w3.org/1999/xlink" width="43px" height="39px" xmlns="http://www.w3.org/2000/svg">
  <g transform="matrix(1 0 0 1 -636 -848 )">
    <path d="M 657 848.5  C 660.976 848.5  664.1 851.624  664.1 855.6  C 664.1 859.576  660.976 862.7  657 862.7  C 653.024 862.7  649.9 859.576  649.9 855.6  C 649.9 851.624  653.024 848.5  657 848.5  Z " fill-rule="nonzero" fill="#cccccc" stroke="none" />
    <path d="M 657 848.5  C 660.976 848.5  664.1 851.624  664.1 855.6  C 664.1 859.576  660.976 862.7  657 862.7  C 653.024 862.7  649.9 859.576  649.9 855.6  C 649.9 851.624  653.024 848.5  657 848.5  Z " stroke-width="1" stroke="#797979" fill="none" />
    <path d="M 636 870.8  L 678 870.8  M 657 863.2  L 657 878.4  M 639.8 886  L 657 878.4  M 657 878.4  L 674.2 886  " stroke-width="1" stroke="#797979" fill="none" />
  </g>
</svg>