<?xml version="1.0" encoding="utf-8"?>
<svg version="1.1" xmlns:xlink="http://www.w3.org/1999/xlink" width="253px" height="46px" xmlns="http://www.w3.org/2000/svg">
  <g transform="matrix(1 0 0 1 -61 -420 )">
    <path d="M 62 443  A 22 22 0 0 1 84 421 L 291 421  A 22 22 0 0 1 313 443 A 22 22 0 0 1 291 465 L 84 465  A 22 22 0 0 1 62 443 Z " fill-rule="nonzero" fill="#ffffff" stroke="none" fill-opacity="0.996078431372549" />
    <path d="M 61.5 443  A 22.5 22.5 0 0 1 84 420.5 L 291 420.5  A 22.5 22.5 0 0 1 313.5 443 A 22.5 22.5 0 0 1 291 465.5 L 84 465.5  A 22.5 22.5 0 0 1 61.5 443 Z " stroke-width="1" stroke="#00c15d" fill="none" stroke-opacity="0.980392156862745" />
  </g>
</svg>