<?xml version="1.0" encoding="utf-8"?>
<svg version="1.1" xmlns:xlink="http://www.w3.org/1999/xlink" width="115px" height="115px" xmlns="http://www.w3.org/2000/svg">
  <g transform="matrix(1 0 0 1 -9 -142 )">
    <path d="M 66.5 161  C 88.06 161  105 177.94  105 199.5  C 105 221.06  88.06 238  66.5 238  C 44.94 238  28 221.06  28 199.5  C 28 177.94  44.94 161  66.5 161  Z " fill-rule="nonzero" fill="#ffffff" stroke="none" fill-opacity="0" />
    <path d="M 66.5 152  C 93.1 152  114 172.9  114 199.5  C 114 226.1  93.1 247  66.5 247  C 39.9 247  19 226.1  19 199.5  C 19 172.9  39.9 152  66.5 152  Z " stroke-width="20" stroke="#ffffff" fill="none" />
  </g>
</svg>