<?xml version="1.0" encoding="utf-8"?>
<svg version="1.1" xmlns:xlink="http://www.w3.org/1999/xlink" width="12px" height="12px" viewBox="526 220.5  12 12" xmlns="http://www.w3.org/2000/svg">
  <path d="M 532 220.5  C 535.36 220.5  538 223.14  538 226.5  C 538 229.86  535.36 232.5  532 232.5  C 528.64 232.5  526 229.86  526 226.5  C 526 223.14  528.64 220.5  532 220.5  Z " fill-rule="nonzero" fill="#ffffff" stroke="none" />
  <path d="M 532 221  C 535.08 221  537.5 223.42  537.5 226.5  C 537.5 229.58  535.08 232  532 232  C 528.92 232  526.5 229.58  526.5 226.5  C 526.5 223.42  528.92 221  532 221  Z " stroke-width="1" stroke="#797979" fill="none" />
  <path d="M 532 229.5  C 530.32 229.5  529 228.18  529 226.5  C 529 224.82  530.32 223.5  532 223.5  C 533.68 223.5  535 224.82  535 226.5  C 535 228.18  533.68 229.5  532 229.5  " fill-rule="nonzero" fill="#797979" stroke="none" />
</svg>