<?xml version="1.0" encoding="utf-8"?>
<svg version="1.1" xmlns:xlink="http://www.w3.org/1999/xlink" width="12px" height="12px" viewBox="622 220.5  12 12" xmlns="http://www.w3.org/2000/svg">
  <path d="M 628 220.5  C 631.36 220.5  634 223.14  634 226.5  C 634 229.86  631.36 232.5  628 232.5  C 624.64 232.5  622 229.86  622 226.5  C 622 223.14  624.64 220.5  628 220.5  Z " fill-rule="nonzero" fill="#ffffff" stroke="none" />
  <path d="M 628 221  C 631.08 221  633.5 223.42  633.5 226.5  C 633.5 229.58  631.08 232  628 232  C 624.92 232  622.5 229.58  622.5 226.5  C 622.5 223.42  624.92 221  628 221  Z " stroke-width="1" stroke="#797979" fill="none" />
  <path d="M 628 229.5  C 626.32 229.5  625 228.18  625 226.5  C 625 224.82  626.32 223.5  628 223.5  C 629.68 223.5  631 224.82  631 226.5  C 631 228.18  629.68 229.5  628 229.5  " fill-rule="nonzero" fill="#797979" stroke="none" />
</svg>