<?xml version="1.0" encoding="utf-8"?>
<svg version="1.1" xmlns:xlink="http://www.w3.org/1999/xlink" width="12px" height="12px" viewBox="622 93.5  12 12" xmlns="http://www.w3.org/2000/svg">
  <path d="M 628 93.5  C 631.36 93.5  634 96.14  634 99.5  C 634 102.86  631.36 105.5  628 105.5  C 624.64 105.5  622 102.86  622 99.5  C 622 96.14  624.64 93.5  628 93.5  Z " fill-rule="nonzero" fill="#ffffff" stroke="none" />
  <path d="M 628 94  C 631.08 94  633.5 96.42  633.5 99.5  C 633.5 102.58  631.08 105  628 105  C 624.92 105  622.5 102.58  622.5 99.5  C 622.5 96.42  624.92 94  628 94  Z " stroke-width="1" stroke="#797979" fill="none" />
  <path d="M 628 102.5  C 626.32 102.5  625 101.18  625 99.5  C 625 97.82  626.32 96.5  628 96.5  C 629.68 96.5  631 97.82  631 99.5  C 631 101.18  629.68 102.5  628 102.5  " fill-rule="nonzero" fill="#797979" stroke="none" />
</svg>