<?xml version="1.0" encoding="utf-8"?>
<svg version="1.1" xmlns:xlink="http://www.w3.org/1999/xlink" width="71px" height="62px" xmlns="http://www.w3.org/2000/svg">
  <g transform="matrix(1 0 0 1 -962 -336 )">
    <path d="M 962 336  L 1033 336  L 1033 398  L 962 398  L 962 336  " fill-rule="nonzero" fill="#cccccc" stroke="none" />
    <path d="M 966 340  L 1029 340  L 1029 394  L 966 394  L 966 340  " fill-rule="nonzero" fill="#ffffff" stroke="none" />
    <path d="M 1003.57 354.6  C 1000.966 354.6  998.92 352.554  998.92 349.95  C 998.92 347.346  1000.966 345.3  1003.57 345.3  C 1006.174 345.3  1008.22 347.346  1008.22 349.95  C 1008.22 352.554  1006.174 354.6  1003.57 354.6  " fill-rule="nonzero" fill="#cccccc" stroke="none" />
    <path d="M 968 393  L 968 364.95  L 983 352.2  L 1004 366.278873239437  L 1016 359.85  L 1028 366.278873239437  L 1028 393  L 968 393  " fill-rule="nonzero" fill="#169bd5" stroke="none" />
  </g>
</svg>