<?xml version="1.0" encoding="utf-8"?>
<svg version="1.1" xmlns:xlink="http://www.w3.org/1999/xlink" width="71px" height="62px" xmlns="http://www.w3.org/2000/svg">
  <g transform="matrix(1 0 0 1 -962 -226 )">
    <path d="M 962 226  L 1033 226  L 1033 288  L 962 288  L 962 226  " fill-rule="nonzero" fill="#cccccc" stroke="none" />
    <path d="M 966 230  L 1029 230  L 1029 284  L 966 284  L 966 230  " fill-rule="nonzero" fill="#ffffff" stroke="none" />
    <path d="M 1003.57 244.6  C 1000.966 244.6  998.92 242.554  998.92 239.95  C 998.92 237.346  1000.966 235.3  1003.57 235.3  C 1006.174 235.3  1008.22 237.346  1008.22 239.95  C 1008.22 242.554  1006.174 244.6  1003.57 244.6  " fill-rule="nonzero" fill="#cccccc" stroke="none" />
    <path d="M 968 283  L 968 254.95  L 983 242.2  L 1004 256.278873239437  L 1016 249.85  L 1028 256.278873239437  L 1028 283  L 968 283  " fill-rule="nonzero" fill="#169bd5" stroke="none" />
  </g>
</svg>