<?xml version="1.0" encoding="utf-8"?>
<svg version="1.1" xmlns:xlink="http://www.w3.org/1999/xlink" width="65px" height="65px" xmlns="http://www.w3.org/2000/svg">
  <g transform="matrix(1 0 0 1 -196 -279 )">
    <path d="M 228.5 282  C 245.02 282  258 294.98  258 311.5  C 258 328.02  245.02 341  228.5 341  C 211.98 341  199 328.02  199 311.5  C 199 294.98  211.98 282  228.5 282  Z " fill-rule="nonzero" fill="#bcbcbc" stroke="none" />
    <path d="M 228.5 281  C 245.58 281  259 294.42  259 311.5  C 259 328.58  245.58 342  228.5 342  C 211.42 342  198 328.58  198 311.5  C 198 294.42  211.42 281  228.5 281  Z " stroke-width="4" stroke="#ffffff" fill="none" />
  </g>
</svg>