<?xml version="1.0" encoding="utf-8"?>
<svg version="1.1" xmlns:xlink="http://www.w3.org/1999/xlink" width="22px" height="22px" xmlns="http://www.w3.org/2000/svg">
  <g transform="matrix(1 0 0 1 -226 -1465 )">
    <path d="M 237 1465  C 243.16 1465  248 1469.84  248 1476  C 248 1482.16  243.16 1487  237 1487  C 230.84 1487  226 1482.16  226 1476  C 226 1469.84  230.84 1465  237 1465  Z " fill-rule="nonzero" fill="#ffffff" stroke="none" />
    <path d="M 237 1465.5  C 242.88 1465.5  247.5 1470.12  247.5 1476  C 247.5 1481.88  242.88 1486.5  237 1486.5  C 231.12 1486.5  226.5 1481.88  226.5 1476  C 226.5 1470.12  231.12 1465.5  237 1465.5  Z " stroke-width="1" stroke="#cacaca" fill="none" />
  </g>
</svg>