<?xml version="1.0" encoding="utf-8"?>
<svg version="1.1" xmlns:xlink="http://www.w3.org/1999/xlink" width="23px" height="23px" xmlns="http://www.w3.org/2000/svg">
  <g transform="matrix(1 0 0 1 -118 -1457 )">
    <path d="M 140.5 1461.6  C 140.5 1461.6  140.5 1475.4  140.5 1475.4  C 140.5 1477.864  135.24 1479.5  129.5 1479.5  C 123.76 1479.5  118.5 1477.864  118.5 1475.4  C 118.5 1475.4  118.5 1461.6  118.5 1461.6  C 118.5 1459.136  123.76 1457.5  129.5 1457.5  C 135.24 1457.5  140.5 1459.136  140.5 1461.6  Z " fill-rule="nonzero" fill="#f2f2f2" stroke="none" fill-opacity="0" />
    <path d="M 118.5 1461.9  C 118.5 1459.436  123.34 1457.5  129.5 1457.5  C 135.66 1457.5  140.5 1459.436  140.5 1461.9  C 140.5 1461.9  140.5 1475.1  140.5 1475.1  C 140.5 1477.564  135.66 1479.5  129.5 1479.5  C 123.34 1479.5  118.5 1477.564  118.5 1475.1  C 118.5 1475.1  118.5 1461.9  118.5 1461.9  Z " stroke-width="1" stroke="#797979" fill="none" />
    <path d="M 140.5 1461.6  C 140.5 1463.896  135.66 1465.7  129.5 1465.7  C 123.34 1465.7  118.5 1463.896  118.5 1461.6  " stroke-width="1" stroke="#797979" fill="none" />
  </g>
</svg>