<?xml version="1.0" encoding="utf-8"?>
<svg version="1.1" xmlns:xlink="http://www.w3.org/1999/xlink" width="22px" height="22px" xmlns="http://www.w3.org/2000/svg">
  <g transform="matrix(1 0 0 1 -226 -1447 )">
    <path d="M 237 1447  C 243.16 1447  248 1451.84  248 1458  C 248 1464.16  243.16 1469  237 1469  C 230.84 1469  226 1464.16  226 1458  C 226 1451.84  230.84 1447  237 1447  Z " fill-rule="nonzero" fill="#ffffff" stroke="none" />
    <path d="M 237 1447.5  C 242.88 1447.5  247.5 1452.12  247.5 1458  C 247.5 1463.88  242.88 1468.5  237 1468.5  C 231.12 1468.5  226.5 1463.88  226.5 1458  C 226.5 1452.12  231.12 1447.5  237 1447.5  Z " stroke-width="1" stroke="#cacaca" fill="none" />
  </g>
</svg>