<?xml version="1.0" encoding="utf-8"?>
<svg version="1.1" xmlns:xlink="http://www.w3.org/1999/xlink" width="300px" height="170px" xmlns="http://www.w3.org/2000/svg">
  <g transform="matrix(1 0 0 1 -70 -307 )">
    <path d="M 70 307  L 370 307  L 370 477  L 70 477  L 70 307  " fill-rule="nonzero" fill="#cccccc" stroke="none" />
    <path d="M 82 319  L 358 319  L 358 465  L 82 465  L 82 319  " fill-rule="nonzero" fill="#ffffff" stroke="none" />
    <path d="M 238.75 358  C 231.61 358  226 352.39  226 345.25  C 226 338.11  231.61 332.5  238.75 332.5  C 245.89 332.5  251.5 338.11  251.5 345.25  C 251.5 352.39  245.89 358  238.75 358  " fill-rule="nonzero" fill="#cccccc" stroke="none" />
    <path d="M 87 461  L 87 385.65  L 153.75 351.4  L 247.2 414.42  L 300.6 371.95  L 354 414.42  L 354 461  L 87 461  " fill-rule="nonzero" fill="#169bd5" stroke="none" />
  </g>
</svg>