<?xml version="1.0" encoding="utf-8"?>
<svg version="1.1" xmlns:xlink="http://www.w3.org/1999/xlink" width="60px" height="60px" xmlns="http://www.w3.org/2000/svg">
  <g transform="matrix(1 0 0 1 -72 -552 )">
    <path d="M 72 552  L 132 552  L 132 612  L 72 612  L 72 552  " fill-rule="nonzero" fill="#cccccc" stroke="none" />
    <path d="M 76 556  L 128 556  L 128 608  L 76 608  L 76 556  " fill-rule="nonzero" fill="#ffffff" stroke="none" />
    <path d="M 107.7 570  C 105.18 570  103.2 568.02  103.2 565.5  C 103.2 562.98  105.18 561  107.7 561  C 110.22 561  112.2 562.98  112.2 565.5  C 112.2 568.02  110.22 570  107.7 570  " fill-rule="nonzero" fill="#cccccc" stroke="none" />
    <path d="M 78 607  L 78 580.05  L 90.25 567.8  L 107.4 577.6  L 117.2 575.15  L 127 577.6  L 127 607  L 78 607  " fill-rule="nonzero" fill="#169bd5" stroke="none" />
  </g>
</svg>