<?xml version="1.0" encoding="utf-8"?>
<svg version="1.1" xmlns:xlink="http://www.w3.org/1999/xlink" width="148px" height="10px" preserveAspectRatio="xMinYMid meet" viewBox="531 414  148 8" xmlns="http://www.w3.org/2000/svg">
  <path d="M 290 374  L 295 374  A 5 5 0 0 1 300 379 L 300 484  A 5 5 0 0 0 305 489 L 440 489  A 3 3 0 0 1 443 486 A 3 3 0 0 1 446 489 L 531 489  A 5 5 0 0 0 536 484 L 536 423  A 5 5 0 0 1 541 418 L 669 418  A 5 5 0 0 1 674 423 L 674 429  " stroke-width="2" stroke="#9f9f9f" fill="none" />
  <path d="M 678.292893218813 423.892893218813  L 674 428.185786437627  L 669.707106781187 423.892893218813  L 668.292893218813 425.307106781187  L 673.292893218813 430.307106781187  L 674 431.014213562373  L 674.707106781187 430.307106781187  L 679.707106781187 425.307106781187  L 678.292893218813 423.892893218813  Z " fill-rule="nonzero" fill="#9f9f9f" stroke="none" />
</svg>