<?xml version="1.0" encoding="utf-8"?>
<svg version="1.1" xmlns:xlink="http://www.w3.org/1999/xlink" width="37px" height="37px" xmlns="http://www.w3.org/2000/svg">
  <g transform="matrix(1 0 0 1 -105 -1020 )">
    <path d="M 123.5 1020  C 133.86 1020  142 1028.14  142 1038.5  C 142 1048.86  133.86 1057  123.5 1057  C 113.14 1057  105 1048.86  105 1038.5  C 105 1028.14  113.14 1020  123.5 1020  Z " fill-rule="nonzero" fill="#ffffff" stroke="none" />
    <path d="M 123.5 1020.5  C 133.58 1020.5  141.5 1028.42  141.5 1038.5  C 141.5 1048.58  133.58 1056.5  123.5 1056.5  C 113.42 1056.5  105.5 1048.58  105.5 1038.5  C 105.5 1028.42  113.42 1020.5  123.5 1020.5  Z " stroke-width="1" stroke="#cacaca" fill="none" />
  </g>
</svg>