<?xml version="1.0" encoding="utf-8"?>
<svg version="1.1" xmlns:xlink="http://www.w3.org/1999/xlink" width="65px" height="65px" xmlns="http://www.w3.org/2000/svg">
  <g transform="matrix(1 0 0 1 -202 -886 )">
    <path d="M 234.5 886  C 252.7 886  267 900.3  267 918.5  C 267 936.7  252.7 951  234.5 951  C 216.3 951  202 936.7  202 918.5  C 202 900.3  216.3 886  234.5 886  Z " fill-rule="nonzero" fill="#e8e8e8" stroke="none" />
    <path d="M 234.5 886.5  C 252.42 886.5  266.5 900.58  266.5 918.5  C 266.5 936.42  252.42 950.5  234.5 950.5  C 216.58 950.5  202.5 936.42  202.5 918.5  C 202.5 900.58  216.58 886.5  234.5 886.5  Z " stroke-width="1" stroke="#bfbfbf" fill="none" />
  </g>
</svg>