<?xml version="1.0" encoding="utf-8"?>
<svg version="1.1" xmlns:xlink="http://www.w3.org/1999/xlink" width="53px" height="53px" xmlns="http://www.w3.org/2000/svg">
  <g transform="matrix(1 0 0 1 -12 -86 )">
    <path d="M 38.5 86  C 53.34 86  65 97.66  65 112.5  C 65 127.34  53.34 139  38.5 139  C 23.66 139  12 127.34  12 112.5  C 12 97.66  23.66 86  38.5 86  Z " fill-rule="nonzero" fill="#ffffff" stroke="none" />
    <path d="M 38.5 86.5  C 53.06 86.5  64.5 97.94  64.5 112.5  C 64.5 127.06  53.06 138.5  38.5 138.5  C 23.94 138.5  12.5 127.06  12.5 112.5  C 12.5 97.94  23.94 86.5  38.5 86.5  Z " stroke-width="1" stroke="#797979" fill="none" />
  </g>
</svg>