<?xml version="1.0" encoding="utf-8"?>
<svg version="1.1" xmlns:xlink="http://www.w3.org/1999/xlink" width="32px" height="32px" xmlns="http://www.w3.org/2000/svg">
  <g transform="matrix(1 0 0 1 -801 -305 )">
    <path d="M 813.771047451366 316.555728090001  L 817 306.61803398875  L 820.228952548634 316.555728090001  L 830.678062492135 316.555728090001  L 822.22455497175 322.697560814373  L 825.453507520384 332.635254915624  L 817 326.493422191252  L 808.546492479616 332.635254915624  L 811.77544502825 322.697560814373  L 803.321937507865 316.555728090001  L 813.771047451366 316.555728090001  Z " fill-rule="nonzero" fill="#ffffff" stroke="none" fill-opacity="0" />
    <path d="M 813.407776187363 316.055728090001  L 817 305  L 820.592223812637 316.055728090001  L 832.216904260722 316.055728090001  L 822.812340224043 322.888543819998  L 826.40456403668 333.944271909999  L 817 327.111456180002  L 807.59543596332 333.944271909999  L 811.187659775957 322.888543819998  L 801.783095739278 316.055728090001  L 813.407776187363 316.055728090001  Z M 817 308.2360679775  L 814.134318715369 317.055728090001  L 804.860779276453 317.055728090001  L 812.363230280542 322.506577808748  L 809.497548995911 331.326237921249  L 817 325.875388202502  L 824.502451004089 331.326237921249  L 821.636769719458 322.506577808748  L 829.139220723547 317.055728090001  L 819.865681284631 317.055728090001  L 817 308.2360679775  Z " fill-rule="nonzero" fill="#000000" stroke="none" />
  </g>
</svg>