<?xml version="1.0" encoding="utf-8"?>
<svg version="1.1" xmlns:xlink="http://www.w3.org/1999/xlink" width="32px" height="32px" xmlns="http://www.w3.org/2000/svg">
  <g transform="matrix(1 0 0 1 -807 -218 )">
    <path d="M 823 221.907106781187  C 819.8 218.5  816.6 218.5  815 218.5  C 812 218.5  807.5 221.527586206897  807.5 227.28  C 807.5 240.047557197011  823 249.389672219213  823 249.389672219213  C 823 249.389672219213  838.5 240.047557197011  838.5 227.28  C 838.5 221.527586206897  834 218.5  831 218.5  C 829.4 218.5  826.2 218.5  823 221.907106781187  Z " fill-rule="nonzero" fill="#ffffff" stroke="none" fill-opacity="0" />
    <path d="M 823 221.2  C 819.8 218  816.6 218  815 218  C 811.8 218  807 221.2  807 227.28  C 807 240.4  823 250  823 250  C 823 250  839 240.4  839 227.28  C 839 221.2  834.2 218  831 218  C 829.4 218  826.2 218  823 221.2  Z M 823 222.614213562373  C 826.2 219  829.4 219  831 219  C 833.8 219  838 221.855172413793  838 227.28  C 838 239.695114394021  823 248.779344438427  823 248.779344438427  C 823 248.779344438427  808 239.695114394021  808 227.28  C 808 221.855172413793  812.2 219  815 219  C 816.6 219  819.8 219  823 222.614213562373  Z " fill-rule="nonzero" fill="#000000" stroke="none" />
  </g>
</svg>