<?xml version="1.0" encoding="utf-8"?>
<svg version="1.1" xmlns:xlink="http://www.w3.org/1999/xlink" width="67px" height="67px" xmlns="http://www.w3.org/2000/svg">
  <g transform="matrix(1 0 0 1 -93 -178 )">
    <path d="M 93 178  L 160 178  L 160 245  L 93 245  L 93 178  " fill-rule="nonzero" fill="#cccccc" stroke="none" />
    <path d="M 98 183  L 155 183  L 155 240  L 98 240  L 98 183  " fill-rule="nonzero" fill="#ffffff" stroke="none" />
    <path d="M 132.865 198.1  C 130.051 198.1  127.84 195.889  127.84 193.075  C 127.84 190.261  130.051 188.05  132.865 188.05  C 135.679 188.05  137.89 190.261  137.89 193.075  C 137.89 195.889  135.679 198.1  132.865 198.1  " fill-rule="nonzero" fill="#cccccc" stroke="none" />
    <path d="M 100 239  L 100 209.3  L 113.5 195.8  L 132.4 206.6  L 143.2 203.9  L 154 206.6  L 154 239  L 100 239  " fill-rule="nonzero" fill="#169bd5" stroke="none" />
  </g>
</svg>