<?xml version="1.0" encoding="utf-8"?>
<svg version="1.1" xmlns:xlink="http://www.w3.org/1999/xlink" width="14px" height="14px" xmlns="http://www.w3.org/2000/svg">
  <g transform="matrix(1 0 0 1 -348 -65 )">
    <path d="M 355 65  C 358.92 65  362 68.08  362 72  C 362 75.92  358.92 79  355 79  C 351.08 79  348 75.92  348 72  C 348 68.08  351.08 65  355 65  Z " fill-rule="nonzero" fill="#ffffff" stroke="none" />
    <path d="M 355 65.5  C 358.64 65.5  361.5 68.36  361.5 72  C 361.5 75.64  358.64 78.5  355 78.5  C 351.36 78.5  348.5 75.64  348.5 72  C 348.5 68.36  351.36 65.5  355 65.5  Z " stroke-width="1" stroke="#02a7f0" fill="none" />
  </g>
</svg>