<?xml version="1.0" encoding="utf-8"?>
<svg version="1.1" xmlns:xlink="http://www.w3.org/1999/xlink" width="24px" height="24px" xmlns="http://www.w3.org/2000/svg">
  <g transform="matrix(1 0 0 1 -343 -78 )">
    <path d="M 364.785481579268 96.0411321206853  C 362.697692949821 99.4240167172677  358.998931559382 101.5  355 101.5  C 348.648725376946 101.5  343.5 96.3512746230541  343.5 90  C 343.5 88.1482758622282  343.947115696572 86.3264767083346  344.800124020582 84.6884491267716  L 354.75 90.4330127018922  A 0.5 0.5 0 0 0 354.756089321168 90.4364717410686 L 364.785481579309 96.0411321206183  Z " fill-rule="nonzero" fill="#ffffff" stroke="none" />
    <path d="M 364.785481579268 96.0411321206853  C 362.697692949821 99.4240167172677  358.998931559382 101.5  355 101.5  C 348.648725376946 101.5  343.5 96.3512746230541  343.5 90  C 343.5 88.1482758622282  343.947115696572 86.3264767083346  344.800124020582 84.6884491267716  L 354.75 90.4330127018922  L 364.785481579309 96.0411321206183  Z " stroke-width="1" stroke="#02a7f0" fill="none" />
  </g>
</svg>