<?xml version="1.0" encoding="utf-8"?>
<svg version="1.1" xmlns:xlink="http://www.w3.org/1999/xlink" width="50px" height="50px" xmlns="http://www.w3.org/2000/svg">
  <g transform="matrix(1 0 0 1 -14 -70 )">
    <path d="M 39 70.5  C 52.72 70.5  63.5 81.28  63.5 95  C 63.5 108.72  52.72 119.5  39 119.5  C 25.28 119.5  14.5 108.72  14.5 95  C 14.5 81.28  25.28 70.5  39 70.5  Z " fill-rule="nonzero" fill="#f2f2f2" stroke="none" />
    <path d="M 39 70.5  C 52.72 70.5  63.5 81.28  63.5 95  C 63.5 108.72  52.72 119.5  39 119.5  C 25.28 119.5  14.5 108.72  14.5 95  C 14.5 81.28  25.28 70.5  39 70.5  Z " stroke-width="1" stroke="#000000" fill="none" stroke-opacity="0.325490196078431" />
  </g>
</svg>