<?xml version="1.0" encoding="utf-8"?>
<svg version="1.1" xmlns:xlink="http://www.w3.org/1999/xlink" width="50px" height="50px" xmlns="http://www.w3.org/2000/svg">
  <g transform="matrix(1 0 0 1 -253 -70 )">
    <path d="M 278 70.5  C 291.72 70.5  302.5 81.28  302.5 95  C 302.5 108.72  291.72 119.5  278 119.5  C 264.28 119.5  253.5 108.72  253.5 95  C 253.5 81.28  264.28 70.5  278 70.5  Z " fill-rule="nonzero" fill="#f6e7d6" stroke="none" />
    <path d="M 278 70.5  C 291.72 70.5  302.5 81.28  302.5 95  C 302.5 108.72  291.72 119.5  278 119.5  C 264.28 119.5  253.5 108.72  253.5 95  C 253.5 81.28  264.28 70.5  278 70.5  Z " stroke-width="1" stroke="#f2b44a" fill="none" stroke-opacity="0.996078431372549" />
  </g>
</svg>