<?xml version="1.0" encoding="utf-8"?>
<svg version="1.1" xmlns:xlink="http://www.w3.org/1999/xlink" width="16px" height="16px" xmlns="http://www.w3.org/2000/svg">
  <g transform="matrix(1 0 0 1 -294 -37 )">
    <path d="M 302 37  C 306.48 37  310 40.52  310 45  C 310 49.48  306.48 53  302 53  C 297.52 53  294 49.48  294 45  C 294 40.52  297.52 37  302 37  Z " fill-rule="nonzero" fill="#ffffff" stroke="none" fill-opacity="0" />
    <path d="M 302 37.5  C 306.2 37.5  309.5 40.8  309.5 45  C 309.5 49.2  306.2 52.5  302 52.5  C 297.8 52.5  294.5 49.2  294.5 45  C 294.5 40.8  297.8 37.5  302 37.5  Z " stroke-width="1" stroke="#797979" fill="none" />
  </g>
</svg>