<?xml version="1.0" encoding="utf-8"?>
<svg version="1.1" xmlns:xlink="http://www.w3.org/1999/xlink" width="73px" height="73px" xmlns="http://www.w3.org/2000/svg">
  <g transform="matrix(1 0 0 1 -171 -716 )">
    <path d="M 207.5 716  C 227.94 716  244 732.06  244 752.5  C 244 772.94  227.94 789  207.5 789  C 187.06 789  171 772.94  171 752.5  C 171 732.06  187.06 716  207.5 716  Z " fill-rule="nonzero" fill="#ffffff" stroke="none" />
    <path d="M 207.5 716.5  C 227.66 716.5  243.5 732.34  243.5 752.5  C 243.5 772.66  227.66 788.5  207.5 788.5  C 187.34 788.5  171.5 772.66  171.5 752.5  C 171.5 732.34  187.34 716.5  207.5 716.5  Z " stroke-width="1" stroke="#bcbcbc" fill="none" />
  </g>
</svg>