<?xml version="1.0" encoding="utf-8"?>
<svg version="1.1" xmlns:xlink="http://www.w3.org/1999/xlink" width="12px" height="12px" viewBox="152 111.5  12 12" xmlns="http://www.w3.org/2000/svg">
  <path d="M 158 111.5  C 161.36 111.5  164 114.14  164 117.5  C 164 120.86  161.36 123.5  158 123.5  C 154.64 123.5  152 120.86  152 117.5  C 152 114.14  154.64 111.5  158 111.5  Z " fill-rule="nonzero" fill="#f0f0f0" stroke="none" />
  <path d="M 158 112  C 161.08 112  163.5 114.42  163.5 117.5  C 163.5 120.58  161.08 123  158 123  C 154.92 123  152.5 120.58  152.5 117.5  C 152.5 114.42  154.92 112  158 112  Z " stroke-width="1" stroke="#797979" fill="none" />
  <path d="M 158 120.5  C 156.32 120.5  155 119.18  155 117.5  C 155 115.82  156.32 114.5  158 114.5  C 159.68 114.5  161 115.82  161 117.5  C 161 119.18  159.68 120.5  158 120.5  " fill-rule="nonzero" fill="#797979" stroke="none" />
</svg>