<?xml version="1.0" encoding="utf-8"?>
<svg version="1.1" xmlns:xlink="http://www.w3.org/1999/xlink" width="69px" height="69px" xmlns="http://www.w3.org/2000/svg">
  <g transform="matrix(1 0 0 1 -16 -87 )">
    <path d="M 50.5 87  C 69.82 87  85 102.18  85 121.5  C 85 140.82  69.82 156  50.5 156  C 31.18 156  16 140.82  16 121.5  C 16 102.18  31.18 87  50.5 87  Z " fill-rule="nonzero" fill="#ffffff" stroke="none" />
    <path d="M 50.5 87.5  C 69.54 87.5  84.5 102.46  84.5 121.5  C 84.5 140.54  69.54 155.5  50.5 155.5  C 31.46 155.5  16.5 140.54  16.5 121.5  C 16.5 102.46  31.46 87.5  50.5 87.5  Z " stroke-width="1" stroke="#797979" fill="none" />
  </g>
</svg>