<?xml version="1.0" encoding="utf-8"?>
<svg version="1.1" xmlns:xlink="http://www.w3.org/1999/xlink" width="11px" height="11px" xmlns="http://www.w3.org/2000/svg">
  <g transform="matrix(1 0 0 1 -183 -203 )">
    <path d="M 188.5 203  C 191.58 203  194 205.42  194 208.5  C 194 211.58  191.58 214  188.5 214  C 185.42 214  183 211.58  183 208.5  C 183 205.42  185.42 203  188.5 203  Z " fill-rule="nonzero" fill="#36af65" stroke="none" />
    <path d="M 188.5 203.5  C 191.3 203.5  193.5 205.7  193.5 208.5  C 193.5 211.3  191.3 213.5  188.5 213.5  C 185.7 213.5  183.5 211.3  183.5 208.5  C 183.5 205.7  185.7 203.5  188.5 203.5  Z " stroke-width="1" stroke="#9f9f9f" fill="none" />
  </g>
</svg>