<?xml version="1.0" encoding="utf-8"?>
<svg version="1.1" xmlns:xlink="http://www.w3.org/1999/xlink" width="126px" height="126px" xmlns="http://www.w3.org/2000/svg">
  <g transform="matrix(1 0 0 1 -134 -115 )">
    <path d="M 197 115  C 232.28 115  260 142.72  260 178  C 260 213.28  232.28 241  197 241  C 161.72 241  134 213.28  134 178  C 134 142.72  161.72 115  197 115  Z " fill-rule="nonzero" fill="#ffffff" stroke="none" />
    <path d="M 197 115.5  C 232 115.5  259.5 143  259.5 178  C 259.5 213  232 240.5  197 240.5  C 162 240.5  134.5 213  134.5 178  C 134.5 143  162 115.5  197 115.5  Z " stroke-width="1" stroke="#797979" fill="none" />
  </g>
</svg>