<?xml version="1.0" encoding="utf-8"?>
<svg version="1.1" xmlns:xlink="http://www.w3.org/1999/xlink" width="61px" height="27px" xmlns="http://www.w3.org/2000/svg">
  <g transform="matrix(1 0 0 1 -299 -988 )">
    <path d="M 300 992  A 3 3 0 0 1 303 989 L 356 989  A 3 3 0 0 1 359 992 L 359 1011  A 3 3 0 0 1 356 1014 L 303 1014  A 3 3 0 0 1 300 1011 L 300 992  Z " fill-rule="nonzero" fill="#ffffff" stroke="none" fill-opacity="0.980392156862745" />
    <path d="M 299.5 992  A 3.5 3.5 0 0 1 303 988.5 L 356 988.5  A 3.5 3.5 0 0 1 359.5 992 L 359.5 1011  A 3.5 3.5 0 0 1 356 1014.5 L 303 1014.5  A 3.5 3.5 0 0 1 299.5 1011 L 299.5 992  Z " stroke-width="1" stroke="#00c15d" fill="none" stroke-opacity="0.980392156862745" />
  </g>
</svg>