<?xml version="1.0" encoding="utf-8"?>
<svg version="1.1" xmlns:xlink="http://www.w3.org/1999/xlink" width="20px" height="23px" xmlns="http://www.w3.org/2000/svg">
  <g transform="matrix(1 0 0 1 -13 -459 )">
    <path d="M 15.0520833333333 0.872767857142858  L 19.1145833333333 4.87723214285714  C 19.3576388888889 5.11681547619047  19.5659722222222 5.44196428571429  19.7395833333333 5.85267857142857  C 19.9131944444444 6.26339285714286  20 6.63988095238095  20 6.98214285714286  L 20 21.7678571428571  C 20 22.110119047619  19.8784722222222 22.4010416666667  19.6354166666667 22.640625  C 19.3923611111111 22.8802083333333  19.0972222222222 23  18.75 23  L 1.25 23  C 0.902777777777778 23  0.607638888888889 22.8802083333333  0.364583333333333 22.640625  C 0.121527777777778 22.4010416666667  0 22.110119047619  0 21.7678571428571  L 0 1.23214285714286  C 0 0.889880952380952  0.121527777777778 0.598958333333332  0.364583333333333 0.359375  C 0.607638888888889 0.119791666666668  0.902777777777778 0  1.25 0  L 12.9166666666667 0  C 13.2638888888889 0  13.6458333333333 0.0855654761904772  14.0625 0.256696428571429  C 14.4791666666667 0.427827380952381  14.8090277777778 0.633184523809523  15.0520833333333 0.872767857142858  Z M 13.8671875 2.02790178571429  C 13.7630208333333 1.92522321428571  13.5850694444444 1.83110119047619  13.3333333333333 1.74553571428571  L 13.3333333333333 6.57142857142857  L 18.2291666666667 6.57142857142857  C 18.1423611111111 6.32328869047619  18.046875 6.14787946428571  17.9427083333333 6.04520089285714  L 13.8671875 2.02790178571429  Z M 2 21  L 18 21  L 18 8.21428571428571  L 12.9166666666667 8.21428571428571  C 12.5694444444444 8.21428571428571  12.2743055555556 8.09449404761905  12.03125 7.85491071428571  C 11.7881944444444 7.61532738095238  11.6666666666667 7.32440476190476  11.6666666666667 6.98214285714286  L 11.6666666666667 2  L 2 2  L 2 21  Z M 5 11.0892857142857  L 5 10.2678571428571  C 5 10.1480654761905  5.0390625 10.0496651785714  5.1171875 9.97265625  C 5.1953125 9.89564732142857  5.29513888888889 9.85714285714286  5.41666666666667 9.85714285714286  L 14.5833333333333 9.85714285714286  C 14.7048611111111 9.85714285714286  14.8046875 9.89564732142857  14.8828125 9.97265625  C 14.9609375 10.0496651785714  15 10.1480654761905  15 10.2678571428571  L 15 11.0892857142857  C 15 11.2090773809524  14.9609375 11.3074776785714  14.8828125 11.3844866071429  C 14.8046875 11.4614955357143  14.7048611111111 11.5  14.5833333333333 11.5  L 5.41666666666667 11.5  C 5.29513888888889 11.5  5.1953125 11.4614955357143  5.1171875 11.3844866071429  C 5.0390625 11.3074776785714  5 11.2090773809524  5 11.0892857142857  Z M 5.41666666666667 13.1428571428571  L 14.5833333333333 13.1428571428571  C 14.7048611111111 13.1428571428571  14.8046875 13.1813616071429  14.8828125 13.2583705357143  C 14.9609375 13.3353794642857  15 13.4337797619048  15 13.5535714285714  L 15 14.375  C 15 14.4947916666667  14.9609375 14.5931919642857  14.8828125 14.6702008928571  C 14.8046875 14.7472098214286  14.7048611111111 14.7857142857143  14.5833333333333 14.7857142857143  L 5.41666666666667 14.7857142857143  C 5.29513888888889 14.7857142857143  5.1953125 14.7472098214286  5.1171875 14.6702008928571  C 5.0390625 14.5931919642857  5 14.4947916666667  5 14.375  L 5 13.5535714285714  C 5 13.4337797619048  5.0390625 13.3353794642857  5.1171875 13.2583705357143  C 5.1953125 13.1813616071429  5.29513888888889 13.1428571428571  5.41666666666667 13.1428571428571  Z M 5.41666666666667 16.4285714285714  L 14.5833333333333 16.4285714285714  C 14.7048611111111 16.4285714285714  14.8046875 16.4670758928571  14.8828125 16.5440848214286  C 14.9609375 16.62109375  15 16.719494047619  15 16.8392857142857  L 15 17.6607142857143  C 15 17.780505952381  14.9609375 17.87890625  14.8828125 17.9559151785714  C 14.8046875 18.0329241071429  14.7048611111111 18.0714285714286  14.5833333333333 18.0714285714286  L 5.41666666666667 18.0714285714286  C 5.29513888888889 18.0714285714286  5.1953125 18.0329241071429  5.1171875 17.9559151785714  C 5.0390625 17.87890625  5 17.780505952381  5 17.6607142857143  L 5 16.8392857142857  C 5 16.719494047619  5.0390625 16.62109375  5.1171875 16.5440848214286  C 5.1953125 16.4670758928571  5.29513888888889 16.4285714285714  5.41666666666667 16.4285714285714  Z " fill-rule="nonzero" fill="#ffffff" stroke="none" transform="matrix(1 0 0 1 13 459 )" />
  </g>
</svg>