<?xml version="1.0" encoding="utf-8"?>
<svg version="1.1" xmlns:xlink="http://www.w3.org/1999/xlink" width="23px" height="18px" xmlns="http://www.w3.org/2000/svg">
  <g transform="matrix(1 0 0 1 -10 -82 )">
    <path d="M 4.447265625 12.6115056818182  C 4.76813616071429 12.2919034090909  4.92857142857143 11.90625  4.92857142857143 11.4545454545455  C 4.92857142857143 11.0028409090909  4.76813616071429 10.6171875  4.447265625 10.2975852272727  C 4.12639508928571 9.97798295454546  3.73921130952381 9.81818181818182  3.28571428571429 9.81818181818182  C 2.83221726190476 9.81818181818182  2.44503348214286 9.97798295454546  2.12416294642857 10.2975852272727  C 1.80329241071429 10.6171875  1.64285714285714 11.0028409090909  1.64285714285714 11.4545454545455  C 1.64285714285714 11.90625  1.80329241071429 12.2919034090909  2.12416294642857 12.6115056818182  C 2.44503348214286 12.9311079545455  2.83221726190476 13.0909090909091  3.28571428571429 13.0909090909091  C 3.73921130952381 13.0909090909091  4.12639508928571 12.9311079545455  4.447265625 12.6115056818182  Z M 6.91155133928571 6.88423295454545  C 7.232421875 6.56463068181818  7.39285714285714 6.17897727272727  7.39285714285714 5.72727272727273  C 7.39285714285714 5.27556818181818  7.232421875 4.88991477272727  6.91155133928571 4.5703125  C 6.59068080357143 4.25071022727273  6.20349702380952 4.09090909090909  5.75 4.09090909090909  C 5.29650297619048 4.09090909090909  4.90931919642857 4.25071022727273  4.58844866071429 4.5703125  C 4.267578125 4.88991477272727  4.10714285714286 5.27556818181818  4.10714285714286 5.72727272727273  C 4.10714285714286 6.17897727272727  4.267578125 6.56463068181818  4.58844866071429 6.88423295454545  C 4.90931919642857 7.20383522727273  5.29650297619048 7.36363636363636  5.75 7.36363636363636  C 6.20349702380952 7.36363636363636  6.59068080357143 7.20383522727273  6.91155133928571 6.88423295454545  Z M 13.8102678571429 13.0397727272727  C 13.6220238095238 12.5539772727273  13.3139880952381 12.1661931818182  12.8861607142857 11.8764204545455  L 14.1824776785714 6.99289772727273  C 14.2338169642857 6.77130681818182  14.2017299107143 6.56463068181818  14.0862165178571 6.37286931818182  C 13.970703125 6.18110795454545  13.8059895833333 6.05539772727273  13.5920758928571 5.99573863636364  C 13.378162202381 5.93607954545454  13.1728050595238 5.96377840909091  12.9760044642857 6.07883522727273  C 12.7792038690476 6.19389204545455  12.6508556547619 6.36221590909091  12.5909598214286 6.58380681818182  L 11.2946428571429 11.4673295454545  C 10.78125 11.5099431818182  10.323474702381 11.6953125  9.92131696428572 12.0234375  C 9.51915922619048 12.3515625  9.24962797619048 12.7713068181818  9.11272321428572 13.2826704545455  C 8.94159226190476 13.9389204545455  9.02715773809524 14.5610795454545  9.36941964285714 15.1491477272727  C 9.71168154761905 15.7372159090909  10.2122395833333 16.1164772727273  10.87109375 16.2869318181818  C 11.5299479166667 16.4573863636364  12.1545758928571 16.3721590909091  12.7449776785714 16.03125  C 13.3353794642857 15.6903409090909  13.7161458333333 15.1917613636364  13.8872767857143 14.5355113636364  C 14.024181547619 14.0241477272727  13.9985119047619 13.5255681818182  13.8102678571429 13.0397727272727  Z M 20.8758370535714 12.6115056818182  C 21.1967075892857 12.2919034090909  21.3571428571429 11.90625  21.3571428571429 11.4545454545455  C 21.3571428571429 11.0028409090909  21.1967075892857 10.6171875  20.8758370535714 10.2975852272727  C 20.5549665178571 9.97798295454546  20.1677827380952 9.81818181818182  19.7142857142857 9.81818181818182  C 19.2607886904762 9.81818181818182  18.8736049107143 9.97798295454546  18.552734375 10.2975852272727  C 18.2318638392857 10.6171875  18.0714285714286 11.0028409090909  18.0714285714286 11.4545454545455  C 18.0714285714286 11.90625  18.2318638392857 12.2919034090909  18.552734375 12.6115056818182  C 18.8736049107143 12.9311079545455  19.2607886904762 13.0909090909091  19.7142857142857 13.0909090909091  C 20.1677827380952 13.0909090909091  20.5549665178571 12.9311079545455  20.8758370535714 12.6115056818182  Z M 12.6615513392857 4.4296875  C 12.982421875 4.11008522727273  13.1428571428571 3.72443181818182  13.1428571428571 3.27272727272727  C 13.1428571428571 2.82102272727273  12.982421875 2.43536931818182  12.6615513392857 2.11576704545455  C 12.3406808035714 1.79616477272727  11.9534970238095 1.63636363636364  11.5 1.63636363636364  C 11.0465029761905 1.63636363636364  10.6593191964286 1.79616477272727  10.3384486607143 2.11576704545455  C 10.017578125 2.43536931818182  9.85714285714286 2.82102272727273  9.85714285714286 3.27272727272727  C 9.85714285714286 3.72443181818182  10.017578125 4.11008522727273  10.3384486607143 4.4296875  C 10.6593191964286 4.74928977272727  11.0465029761905 4.90909090909091  11.5 4.90909090909091  C 11.9534970238095 4.90909090909091  12.3406808035714 4.74928977272727  12.6615513392857 4.4296875  Z M 18.4115513392857 6.88423295454545  C 18.732421875 6.56463068181818  18.8928571428571 6.17897727272727  18.8928571428571 5.72727272727273  C 18.8928571428571 5.27556818181818  18.732421875 4.88991477272727  18.4115513392857 4.5703125  C 18.0906808035714 4.25071022727273  17.7034970238095 4.09090909090909  17.25 4.09090909090909  C 16.7965029761905 4.09090909090909  16.4093191964286 4.25071022727273  16.0884486607143 4.5703125  C 15.767578125 4.88991477272727  15.6071428571429 5.27556818181818  15.6071428571429 5.72727272727273  C 15.6071428571429 6.17897727272727  15.767578125 6.56463068181818  16.0884486607143 6.88423295454545  C 16.4093191964286 7.20383522727273  16.7965029761905 7.36363636363636  17.25 7.36363636363636  C 17.7034970238095 7.36363636363636  18.0906808035714 7.20383522727273  18.4115513392857 6.88423295454545  Z M 22.0887276785714 7.00568181818182  C 22.6962425595238 8.42045454545455  23 9.90340909090909  23 11.4545454545455  C 23 13.6789772727273  22.3967633928571 15.7372159090909  21.1902901785714 17.6292613636364  C 21.0277157738095 17.8764204545455  20.7966889880952 18  20.4972098214286 18  L 2.50279017857143 18  C 2.20331101190476 18  1.97228422619048 17.8764204545455  1.80970982142857 17.6292613636364  C 0.603236607142857 15.7457386363636  0 13.6875  0 11.4545454545455  C 0 9.90340909090909  0.30375744047619 8.42045454545455  0.911272321428571 7.00568181818182  C 1.51878720238095 5.59090909090909  2.3359375 4.37215909090909  3.36272321428571 3.34943181818182  C 4.38950892857143 2.32670454545455  5.61309523809524 1.51278409090909  7.03348214285714 0.907670454545454  C 8.45386904761905 0.302556818181817  9.94270833333333 0  11.5 0  C 13.0572916666667 0  14.546130952381 0.302556818181817  15.9665178571429 0.907670454545454  C 17.3869047619048 1.51278409090909  18.6104910714286 2.32670454545455  19.6372767857143 3.34943181818182  C 20.6640625 4.37215909090909  21.4812127976191 5.59090909090909  22.0887276785714 7.00568181818182  Z " fill-rule="nonzero" fill="#ffffff" stroke="none" transform="matrix(1 0 0 1 10 82 )" />
  </g>
</svg>