<?xml version="1.0" encoding="utf-8"?>
<svg version="1.1" xmlns:xlink="http://www.w3.org/1999/xlink" width="23px" height="19px" xmlns="http://www.w3.org/2000/svg">
  <g transform="matrix(1 0 0 1 -10 -302 )">
    <path d="M 7.73297991071429 9.22225913621262  C 8.05385044642857 8.90664451827242  8.21428571428572 8.52580287929125  8.21428571428572 8.0797342192691  C 8.21428571428572 7.63366555924695  8.05385044642857 7.25282392026578  7.73297991071429 6.93720930232558  C 7.412109375 6.62159468438538  7.02492559523809 6.46378737541528  6.57142857142857 6.46378737541528  C 6.11793154761905 6.46378737541528  5.73074776785714 6.62159468438538  5.40987723214286 6.93720930232558  C 5.08900669642857 7.25282392026578  4.92857142857143 7.63366555924695  4.92857142857143 8.0797342192691  C 4.92857142857143 8.52580287929125  5.08900669642857 8.90664451827242  5.40987723214286 9.22225913621262  C 5.73074776785714 9.53787375415282  6.11793154761905 9.69568106312292  6.57142857142857 9.69568106312292  C 7.02492559523809 9.69568106312292  7.412109375 9.53787375415282  7.73297991071429 9.22225913621262  Z M 12.6615513392857 9.22225913621262  C 12.982421875 8.90664451827242  13.1428571428571 8.52580287929125  13.1428571428571 8.0797342192691  C 13.1428571428571 7.63366555924695  12.982421875 7.25282392026578  12.6615513392857 6.93720930232558  C 12.3406808035714 6.62159468438538  11.9534970238095 6.46378737541528  11.5 6.46378737541528  C 11.0465029761905 6.46378737541528  10.6593191964286 6.62159468438538  10.3384486607143 6.93720930232558  C 10.017578125 7.25282392026578  9.85714285714286 7.63366555924695  9.85714285714286 8.0797342192691  C 9.85714285714286 8.52580287929125  10.017578125 8.90664451827242  10.3384486607143 9.22225913621262  C 10.6593191964286 9.53787375415282  11.0465029761905 9.69568106312292  11.5 9.69568106312292  C 11.9534970238095 9.69568106312292  12.3406808035714 9.53787375415282  12.6615513392857 9.22225913621262  Z M 17.5901227678571 9.22225913621262  C 17.9109933035714 8.90664451827242  18.0714285714286 8.52580287929125  18.0714285714286 8.0797342192691  C 18.0714285714286 7.63366555924695  17.9109933035714 7.25282392026578  17.5901227678571 6.93720930232558  C 17.2692522321429 6.62159468438538  16.882068452381 6.46378737541528  16.4285714285714 6.46378737541528  C 15.9750744047619 6.46378737541528  15.587890625 6.62159468438538  15.2670200892857 6.93720930232558  C 14.9461495535714 7.25282392026578  14.7857142857143 7.63366555924695  14.7857142857143 8.0797342192691  C 14.7857142857143 8.52580287929125  14.9461495535714 8.90664451827242  15.2670200892857 9.22225913621262  C 15.587890625 9.53787375415282  15.9750744047619 9.69568106312292  16.4285714285714 9.69568106312292  C 16.882068452381 9.69568106312292  17.2692522321429 9.53787375415282  17.5901227678571 9.22225913621262  Z M 21.4598214285714 4.02093023255814  C 22.4866071428571 5.26234772978959  23 6.61528239202658  23 8.0797342192691  C 23 9.54418604651163  22.4866071428571 10.8971207087486  21.4598214285714 12.1385382059801  C 20.4330357142857 13.3799557032115  19.038318452381 14.3604651162791  17.2756696428571 15.0800664451827  C 15.5130208333333 15.7996677740864  13.5877976190476 16.1594684385382  11.5 16.1594684385382  C 10.5587797619048 16.1594684385382  9.65606398809524 16.0837209302326  8.79185267857143 15.9322259136213  C 7.31156994047619 17.388261351052  5.45052083333333 18.3519379844961  3.20870535714286 18.8232558139535  C 2.76376488095238 18.9074197120709  2.39583333333333 18.9621262458472  2.10491071428571 18.9873754152824  C 2.00223214285714 18.9957918050941  1.90811011904762 18.9705426356589  1.82254464285714 18.9116279069767  C 1.73697916666667 18.8527131782946  1.68136160714286 18.7769656699889  1.65569196428571 18.6843853820598  C 1.62146577380952 18.5581395348837  1.70703125 18.4024363233666  1.91238839285714 18.2172757475083  C 1.95517113095238 18.1751937984496  2.05571056547619 18.0847176079734  2.21400669642857 17.9458471760797  C 2.37230282738095 17.806976744186  2.48139880952381 17.7080841638981  2.54129464285714 17.6491694352159  C 2.60119047619048 17.5902547065338  2.70172991071429 17.4829457364341  2.84291294642857 17.3272425249169  C 2.98409598214286 17.1715393133998  3.08677455357143 17.0389811738649  3.15094866071429 16.9295681063123  C 3.21512276785714 16.8201550387597  3.30282738095238 16.6644518272425  3.4140625 16.4624584717608  C 3.52529761904762 16.2604651162791  3.6108630952381 16.0584717607973  3.67075892857143 15.8564784053156  C 3.73065476190476 15.6544850498339  3.79268973214286 15.4125138427464  3.85686383928571 15.1305647840532  C 3.92103794642857 14.8486157253599  3.97451636904762 14.5435215946844  4.01729910714286 14.2152823920266  C 2.76804315476191 13.4578073089701  1.78617931547619 12.5467331118494  1.07170758928571 11.4820598006645  C 0.357235863095238 10.4173864894795  0 9.28327796234773  0 8.0797342192691  C 0 6.61528239202658  0.513392857142857 5.26234772978959  1.54017857142857 4.02093023255814  C 2.56696428571429 2.77951273532669  3.96168154761905 1.79900332225914  5.72433035714286 1.07940199335548  C 7.48697916666667 0.359800664451828  9.41220238095238 0  11.5 0  C 13.5877976190476 0  15.5130208333333 0.359800664451828  17.2756696428571 1.07940199335548  C 19.038318452381 1.79900332225914  20.4330357142857 2.77951273532669  21.4598214285714 4.02093023255814  Z " fill-rule="nonzero" fill="#ffffff" stroke="none" transform="matrix(1 0 0 1 10 302 )" />
  </g>
</svg>