<?xml version="1.0" encoding="utf-8"?>
<svg version="1.1" xmlns:xlink="http://www.w3.org/1999/xlink" width="23px" height="20px" xmlns="http://www.w3.org/2000/svg">
  <g transform="matrix(1 0 0 1 -10 -142 )">
    <path d="M 7.73297991071429 7.15494791666667  C 8.05385044642857 7.48046875  8.21428571428572 7.87326388888889  8.21428571428572 8.33333333333333  C 8.21428571428572 8.79340277777778  8.05385044642857 9.18619791666667  7.73297991071429 9.51171875  C 7.412109375 9.83723958333333  7.02492559523809 10  6.57142857142857 10  C 6.11793154761905 10  5.73074776785714 9.83723958333333  5.40987723214286 9.51171875  C 5.08900669642857 9.18619791666667  4.92857142857143 8.79340277777778  4.92857142857143 8.33333333333333  C 4.92857142857143 7.87326388888889  5.08900669642857 7.48046875  5.40987723214286 7.15494791666667  C 5.73074776785714 6.82942708333333  6.11793154761905 6.66666666666667  6.57142857142857 6.66666666666667  C 7.02492559523809 6.66666666666667  7.412109375 6.82942708333333  7.73297991071429 7.15494791666667  Z M 12.6615513392857 7.15494791666667  C 12.982421875 7.48046875  13.1428571428571 7.87326388888889  13.1428571428571 8.33333333333333  C 13.1428571428571 8.79340277777778  12.982421875 9.18619791666667  12.6615513392857 9.51171875  C 12.3406808035714 9.83723958333333  11.9534970238095 10  11.5 10  C 11.0465029761905 10  10.6593191964286 9.83723958333333  10.3384486607143 9.51171875  C 10.017578125 9.18619791666667  9.85714285714286 8.79340277777778  9.85714285714286 8.33333333333333  C 9.85714285714286 7.87326388888889  10.017578125 7.48046875  10.3384486607143 7.15494791666667  C 10.6593191964286 6.82942708333333  11.0465029761905 6.66666666666667  11.5 6.66666666666667  C 11.9534970238095 6.66666666666667  12.3406808035714 6.82942708333333  12.6615513392857 7.15494791666667  Z M 17.5901227678571 7.15494791666667  C 17.9109933035714 7.48046875  18.0714285714286 7.87326388888889  18.0714285714286 8.33333333333333  C 18.0714285714286 8.79340277777778  17.9109933035714 9.18619791666667  17.5901227678571 9.51171875  C 17.2692522321429 9.83723958333333  16.882068452381 10  16.4285714285714 10  C 15.9750744047619 10  15.587890625 9.83723958333333  15.2670200892857 9.51171875  C 14.9461495535714 9.18619791666667  14.7857142857143 8.79340277777778  14.7857142857143 8.33333333333333  C 14.7857142857143 7.87326388888889  14.9461495535714 7.48046875  15.2670200892857 7.15494791666667  C 15.587890625 6.82942708333333  15.9750744047619 6.66666666666667  16.4285714285714 6.66666666666667  C 16.882068452381 6.66666666666667  17.2692522321429 6.82942708333333  17.5901227678571 7.15494791666667  Z M 16.396484375 2.57161458333333  C 14.877697172619 1.96831597222222  13.2455357142857 1.66666666666667  11.5 1.66666666666667  C 9.75446428571428 1.66666666666667  8.12230282738095 1.96831597222222  6.603515625 2.57161458333333  C 5.08472842261905 3.17491319444444  3.87825520833333 3.98871527777778  2.98409598214286 5.01302083333333  C 2.08993675595238 6.03732638888889  1.64285714285714 7.14409722222222  1.64285714285714 8.33333333333333  C 1.64285714285714 9.30555555555556  1.9487537202381 10.2322048611111  2.560546875 11.11328125  C 3.1723400297619 11.9943576388889  4.03441220238095 12.7560763888889  5.14676339285714 13.3984375  L 6.26339285714286 14.0494791666667  L 5.91685267857143 15.2994791666667  C 5.71149553571429 16.0894097222222  5.41201636904762 16.8359375  5.01841517857143 17.5390625  C 6.31901041666667 16.9921875  7.49553571428571 16.25  8.54799107142857 15.3125  L 9.09988839285714 14.8177083333333  L 9.83147321428572 14.8958333333333  C 10.421875 14.9652777777778  10.9780505952381 15  11.5 15  C 13.2455357142857 15  14.877697172619 14.6983506944444  16.396484375 14.0950520833333  C 17.915271577381 13.4917534722222  19.1217447916667 12.6779513888889  20.0159040178571 11.6536458333333  C 20.9100632440476 10.6293402777778  21.3571428571429 9.52256944444444  21.3571428571429 8.33333333333333  C 21.3571428571429 7.14409722222222  20.9100632440476 6.03732638888889  20.0159040178571 5.01302083333333  C 19.1217447916667 3.98871527777778  17.915271577381 3.17491319444444  16.396484375 2.57161458333333  Z M 22.0887276785714 5.09765625  C 22.6962425595238 6.12630208333333  23 7.20486111111111  23 8.33333333333333  C 23 9.84375  22.4866071428571 11.2391493055556  21.4598214285714 12.51953125  C 20.4330357142857 13.7999131944444  19.038318452381 14.8111979166667  17.2756696428571 15.5533854166667  C 15.5130208333333 16.2955729166667  13.5877976190476 16.6666666666667  11.5 16.6666666666667  C 10.9010416666667 16.6666666666667  10.2806919642857 16.6319444444444  9.63895089285714 16.5625  C 7.94475446428571 18.0815972222222  5.97674851190476 19.1319444444444  3.73493303571429 19.7135416666667  C 3.31566220238095 19.8350694444444  2.82793898809524 19.9305555555556  2.27176339285714 20  L 2.20758928571429 20  C 2.07924107142857 20  1.96372767857143 19.9544270833333  1.86104910714286 19.86328125  C 1.75837053571429 19.7721354166667  1.68991815476191 19.6527777777778  1.65569196428571 19.5052083333333  L 1.65569196428571 19.4921875  C 1.63002232142857 19.4574652777778  1.62788318452381 19.4053819444444  1.64927455357143 19.3359375  C 1.67066592261905 19.2664930555556  1.6792224702381 19.2230902777778  1.67494419642857 19.2057291666667  C 1.67066592261905 19.1883680555556  1.68991815476191 19.1471354166667  1.73270089285714 19.08203125  L 1.80970982142857 18.96484375  C 1.80970982142857 18.96484375  1.83965773809524 18.9279513888889  1.89955357142857 18.8541666666667  C 1.95944940476191 18.7803819444444  1.9936755952381 18.7413194444444  2.00223214285714 18.7369791666667  C 2.06212797619048 18.6675347222222  2.19475446428571 18.5177951388889  2.40011160714286 18.2877604166667  C 2.60546875 18.0577256944444  2.75306919642857 17.8927951388889  2.84291294642857 17.79296875  C 2.93275669642857 17.6931423611111  3.06538318452381 17.5217013888889  3.24079241071429 17.2786458333333  C 3.41620163690476 17.0355902777778  3.55524553571429 16.8142361111111  3.65792410714286 16.6145833333333  C 3.76060267857143 16.4149305555556  3.87611607142857 16.1588541666667  4.00446428571429 15.8463541666667  C 4.1328125 15.5338541666667  4.24404761904762 15.2039930555556  4.33816964285714 14.8567708333333  C 2.99479166666667 14.0842013888889  1.93591889880952 13.1293402777778  1.16155133928571 11.9921875  C 0.387183779761905 10.8550347222222  0 9.63541666666667  0 8.33333333333333  C 0 7.20486111111111  0.30375744047619 6.12630208333333  0.911272321428571 5.09765625  C 1.51878720238095 4.06901041666667  2.3359375 3.18142361111111  3.36272321428571 2.43489583333333  C 4.38950892857143 1.68836805555555  5.61309523809524 1.09592013888889  7.03348214285714 0.657552083333333  C 8.45386904761905 0.219184027777777  9.94270833333333 0  11.5 0  C 13.0572916666667 0  14.546130952381 0.219184027777777  15.9665178571429 0.657552083333333  C 17.3869047619048 1.09592013888889  18.6104910714286 1.68836805555555  19.6372767857143 2.43489583333333  C 20.6640625 3.18142361111111  21.4812127976191 4.06901041666667  22.0887276785714 5.09765625  Z " fill-rule="nonzero" fill="#ffffff" stroke="none" transform="matrix(1 0 0 1 10 142 )" />
  </g>
</svg>