<?xml version="1.0" encoding="utf-8"?>
<svg version="1.1" xmlns:xlink="http://www.w3.org/1999/xlink" width="20px" height="16px" xmlns="http://www.w3.org/2000/svg">
  <g transform="matrix(1 0 0 1 -973 -21 )">
    <path d="M 973 28.6666666666667  C 973 28.6666666666667  973 24  973 24  C 973 22.3431457505076  974.343145750508 21  976 21  C 976 21  990 21  990 21  C 991.656854249492 21  993 22.3431457505076  993 24  C 993 24  993 28.6666666666667  993 28.6666666666667  C 993 30.323520916159  991.656854249492 31.6666666666667  990 31.6666666666667  C 990 31.6666666666667  987 31.6666666666667  987 31.6666666666667  C 987 31.6666666666667  973.057347670251 36.7132616487455  973.057347670251 36.7132616487455  C 973.057347670251 36.7132616487455  977 31.6666666666667  977 31.6666666666667  C 977 31.6666666666667  976 31.6666666666667  976 31.6666666666667  C 974.343145750508 31.6666666666667  973 30.323520916159  973 28.6666666666667  Z " fill-rule="nonzero" fill="#ff0000" stroke="none" />
  </g>
</svg>