<?xml version="1.0" encoding="utf-8"?>
<svg version="1.1" xmlns:xlink="http://www.w3.org/1999/xlink" width="24px" height="16px" xmlns="http://www.w3.org/2000/svg">
  <g transform="matrix(1 0 0 1 -948 -27 )">
    <path d="M 948 34.6666666666667  C 948 34.6666666666667  948 30  948 30  C 948 28.3431457505076  949.343145750508 27  951 27  C 951 27  969 27  969 27  C 970.656854249492 27  972 28.3431457505076  972 30  C 972 30  972 34.6666666666667  972 34.6666666666667  C 972 36.323520916159  970.656854249492 37.6666666666667  969 37.6666666666667  C 969 37.6666666666667  964.8 37.6666666666667  964.8 37.6666666666667  C 964.8 37.6666666666667  948.068817204301 42.7132616487455  948.068817204301 42.7132616487455  C 948.068817204301 42.7132616487455  952.8 37.6666666666667  952.8 37.6666666666667  C 952.8 37.6666666666667  951 37.6666666666667  951 37.6666666666667  C 949.343145750508 37.6666666666667  948 36.323520916159  948 34.6666666666667  Z " fill-rule="nonzero" fill="#ff0000" stroke="none" />
  </g>
</svg>