<?xml version="1.0" encoding="utf-8"?>
<svg version="1.1" xmlns:xlink="http://www.w3.org/1999/xlink" width="30px" height="20px" xmlns="http://www.w3.org/2000/svg">
  <g transform="matrix(1 0 0 1 -963 -22 )">
    <path d="M 963 33  C 963 33  963 25  963 25  C 963 23.3431457505076  964.343145750508 22  966 22  C 966 22  990 22  990 22  C 991.656854249492 22  993 23.3431457505076  993 25  C 993 25  993 33  993 33  C 993 34.6568542494924  991.656854249492 36  990 36  C 990 36  984 36  984 36  C 984 36  976.5 42  976.5 42  C 976.5 42  969 36  969 36  C 969 36  966 36  966 36  C 964.343145750508 36  963 34.6568542494924  963 33  Z " fill-rule="nonzero" fill="#ff0000" stroke="none" />
  </g>
</svg>