<?xml version="1.0" encoding="utf-8"?>
<svg version="1.1" xmlns:xlink="http://www.w3.org/1999/xlink" width="24px" height="27px" xmlns="http://www.w3.org/2000/svg">
  <g transform="matrix(1 0 0 1 -332 -34 )">
    <path d="M 332.5 49.4117647058824  C 332.5 49.4117647058824  332.5 38  332.5 38  C 332.5 36.0670033755922  334.067003375592 34.5  336 34.5  C 336 34.5  352 34.5  352 34.5  C 353.932996624408 34.5  355.5 36.0670033755922  355.5 38  C 355.5 38  355.5 49.4117647058824  355.5 49.4117647058824  C 355.5 51.3447613302901  353.932996624408 52.9117647058824  352 52.9117647058824  C 352 52.9117647058824  349.324608999229 52.9117647058824  349.324608999229 52.9117647058824  C 349.324608999229 52.9117647058824  339.723804093787 59.5836641102958  339.723804093787 59.5836641102958  C 339.723804093787 59.5836641102958  337.860794096087 52.9117647058824  337.860794096087 52.9117647058824  C 337.860794096087 52.9117647058824  336 52.9117647058824  336 52.9117647058824  C 334.067003375592 52.9117647058824  332.5 51.3447613302901  332.5 49.4117647058824  Z " fill-rule="nonzero" fill="#ffffff" stroke="none" />
    <path d="M 332 49.4117647058824  C 332 49.4117647058824  332 38  332 38  C 332 35.7908610006768  333.790861000677 34  336 34  C 336 34  352 34  352 34  C 354.209138999323 34  356 35.7908610006768  356 38  C 356 38  356 49.4117647058824  356 49.4117647058824  C 356 51.6209037052055  354.209138999323 53.4117647058824  352 53.4117647058824  C 352 53.4117647058824  349.48128342246 53.4117647058824  349.48128342246 53.4117647058824  C 349.48128342246 53.4117647058824  339.431430050026 60.3957219251337  339.431430050026 60.3957219251337  C 339.431430050026 60.3957219251337  337.48128342246 53.4117647058824  337.48128342246 53.4117647058824  C 337.48128342246 53.4117647058824  336 53.4117647058824  336 53.4117647058824  C 333.790861000677 53.4117647058824  332 51.6209037052055  332 49.4117647058824  Z M 333 49.4117647058824  C 333 51.0686189553747  334.343145750508 52.4117647058824  336 52.4117647058824  C 336 52.4117647058824  338.240304769714 52.4117647058824  338.240304769714 52.4117647058824  C 338.240304769714 52.4117647058824  340.016178137548 58.7716062954578  340.016178137548 58.7716062954578  C 340.016178137548 58.7716062954578  349.167934575998 52.4117647058824  349.167934575998 52.4117647058824  C 349.167934575998 52.4117647058824  352 52.4117647058824  352 52.4117647058824  C 353.656854249492 52.4117647058824  355 51.0686189553747  355 49.4117647058824  C 355 49.4117647058824  355 38  355 38  C 355 36.3431457505076  353.656854249492 35  352 35  C 352 35  336 35  336 35  C 334.343145750508 35  333 36.3431457505076  333 38  C 333 38  333 49.4117647058824  333 49.4117647058824  Z " fill-rule="nonzero" fill="#797979" stroke="none" />
  </g>
</svg>