<?xml version="1.0" encoding="utf-8"?>
<svg version="1.1" xmlns:xlink="http://www.w3.org/1999/xlink" width="101px" height="66px" xmlns="http://www.w3.org/2000/svg">
  <g transform="matrix(1 0 0 1 -486 -730 )">
    <path d="M 496.5 795.5  L 586.5 795.5  L 586.5 750.5  L 566.5 730.5  L 486.5 730.5  L 486.5 785.5  L 491.5 785.5  L 491.5 790.5  L 496.5 790.5  L 496.5 795.5  Z " fill-rule="nonzero" fill="#ffffff" stroke="none" />
    <path d="M 496.5 795.5  L 586.5 795.5  L 586.5 750.5  L 566.5 730.5  L 486.5 730.5  L 486.5 785.5  L 491.5 785.5  L 491.5 790.5  L 496.5 790.5  L 496.5 795.5  Z " stroke-width="1" stroke="#c6c6c6" fill="none" />
    <path d="M 576.5 745.5  L 581.5 746  L 581.5 790.5  L 497 790.5  M 566.5 731  L 566.5 740.5  L 576.5 740.5  L 576.5 785.5  L 492 785.5  M 586 750.5  L 581.5 750.5  " stroke-width="1" stroke="#c6c6c6" fill="none" />
  </g>
</svg>