<?xml version="1.0" encoding="utf-8"?>
<svg version="1.1" xmlns:xlink="http://www.w3.org/1999/xlink" width="43px" height="39px" xmlns="http://www.w3.org/2000/svg">
  <g transform="matrix(1 0 0 1 -497 -46 )">
    <path d="M 518 46.5  C 521.976 46.5  525.1 49.624  525.1 53.6  C 525.1 57.576  521.976 60.7  518 60.7  C 514.024 60.7  510.9 57.576  510.9 53.6  C 510.9 49.624  514.024 46.5  518 46.5  Z " fill-rule="nonzero" fill="#cccccc" stroke="none" />
    <path d="M 518 46.5  C 521.976 46.5  525.1 49.624  525.1 53.6  C 525.1 57.576  521.976 60.7  518 60.7  C 514.024 60.7  510.9 57.576  510.9 53.6  C 510.9 49.624  514.024 46.5  518 46.5  Z " stroke-width="1" stroke="#797979" fill="none" />
    <path d="M 497 68.8  L 539 68.8  M 518 61.2  L 518 76.4  M 500.8 84  L 518 76.4  M 518 76.4  L 535.2 84  " stroke-width="1" stroke="#797979" fill="none" />
  </g>
</svg>