<?xml version="1.0" encoding="utf-8"?>
<svg version="1.1" xmlns:xlink="http://www.w3.org/1999/xlink" width="40px" height="40px" xmlns="http://www.w3.org/2000/svg">
  <g transform="matrix(1 0 0 1 -322 -411 )">
    <path d="M 342 411  C 353.2 411  362 419.8  362 431  C 362 442.2  353.2 451  342 451  C 330.8 451  322 442.2  322 431  C 322 419.8  330.8 411  342 411  Z " fill-rule="nonzero" fill="#eeeeee" stroke="none" />
    <path d="M 342 411.5  C 352.92 411.5  361.5 420.08  361.5 431  C 361.5 441.92  352.92 450.5  342 450.5  C 331.08 450.5  322.5 441.92  322.5 431  C 322.5 420.08  331.08 411.5  342 411.5  Z " stroke-width="1" stroke="#cccccc" fill="none" />
  </g>
</svg>