<?xml version="1.0" encoding="utf-8"?>
<svg version="1.1" xmlns:xlink="http://www.w3.org/1999/xlink" width="265px" height="291px" xmlns="http://www.w3.org/2000/svg">
  <g transform="matrix(1 0 0 1 -47.5 -93.5 )">
    <path d="M 259 249  L 0 32  C 94 -54  247 59  159 117  C 71 175  40 143  52 239  C 64 335  259 249  259 249  Z " fill-rule="nonzero" fill="#ffffff" stroke="none" transform="matrix(1 0 0 1 50 96 )" />
    <path d="M 0 32  C 94 -54  247 59  159 117  C 71 175  40 143  52 239  C 64 335  259 249  259 249  " stroke-width="5" stroke="#797979" fill="none" transform="matrix(1 0 0 1 50 96 )" />
  </g>
</svg>