<?xml version="1.0" encoding="utf-8"?>
<svg version="1.1" xmlns:xlink="http://www.w3.org/1999/xlink" width="265px" height="297px" xmlns="http://www.w3.org/2000/svg">
  <g transform="matrix(1 0 0 1 -47.5 -87.5 )">
    <path d="M 259 255  L 0 38  C 94 -48  227 33  185 88  C 143 143  40 149  52 245  C 64 341  259 255  259 255  Z " fill-rule="nonzero" fill="#ffffff" stroke="none" transform="matrix(1 0 0 1 50 90 )" />
    <path d="M 0 38  C 94 -48  227 33  185 88  C 143 143  40 149  52 245  C 64 341  259 255  259 255  " stroke-width="5" stroke="#00c15d" fill="none" stroke-opacity="0.996078431372549" transform="matrix(1 0 0 1 50 90 )" />
  </g>
</svg>