<?xml version="1.0" encoding="utf-8"?>
<svg version="1.1" xmlns:xlink="http://www.w3.org/1999/xlink" width="28px" height="28px" xmlns="http://www.w3.org/2000/svg">
  <g transform="matrix(1 0 0 1 -20 -8 )">
    <path d="M 31.2200754279456 18.1737620787507  L 34 9.61803398874989  L 36.7799245720544 18.1737620787507  L 45.7759494595445 18.1737620787507  L 38.4980124437451 23.4614928368735  L 41.2779370157995 32.0172209268743  L 34 26.7294901687516  L 26.7220629842005 32.0172209268743  L 29.5019875562549 23.4614928368735  L 22.2240505404555 18.1737620787507  L 31.2200754279456 18.1737620787507  Z " fill-rule="nonzero" fill="#ffffff" stroke="none" />
    <path d="M 30.8568041639429 17.6737620787507  L 34 8  L 37.1431958360571 17.6737620787507  L 47.3147912281322 17.6737620787507  L 39.0857976960375 23.6524758424985  L 42.2289935320946 33.3262379212493  L 34 27.3475241575015  L 25.7710064679054 33.3262379212493  L 28.9142023039625 23.6524758424985  L 20.6852087718678 17.6737620787507  L 30.8568041639429 17.6737620787507  Z M 34 11.2360679774998  L 31.5833466919483 18.6737620787507  L 23.7628923090431 18.6737620787507  L 30.0897728085474 23.2705098312484  L 27.6731195004957 30.7082039324994  L 34 26.1114561800017  L 40.3268804995043 30.7082039324994  L 37.9102271914526 23.2705098312484  L 44.2371076909569 18.6737620787507  L 36.4166533080517 18.6737620787507  L 34 11.2360679774998  Z " fill-rule="nonzero" fill="#797979" stroke="none" />
  </g>
</svg>