<?xml version="1.0" encoding="utf-8"?>
<svg version="1.1" xmlns:xlink="http://www.w3.org/1999/xlink" width="12px" height="12px" viewBox="147 97  12 12" xmlns="http://www.w3.org/2000/svg">
  <path d="M 153 97  C 156.36 97  159 99.64  159 103  C 159 106.36  156.36 109  153 109  C 149.64 109  147 106.36  147 103  C 147 99.64  149.64 97  153 97  Z " fill-rule="nonzero" fill="#f0f0f0" stroke="none" />
  <path d="M 153 97.5  C 156.08 97.5  158.5 99.92  158.5 103  C 158.5 106.08  156.08 108.5  153 108.5  C 149.92 108.5  147.5 106.08  147.5 103  C 147.5 99.92  149.92 97.5  153 97.5  Z " stroke-width="1" stroke="#797979" fill="none" />
  <path d="M 153 106  C 151.32 106  150 104.68  150 103  C 150 101.32  151.32 100  153 100  C 154.68 100  156 101.32  156 103  C 156 104.68  154.68 106  153 106  " fill-rule="nonzero" fill="#797979" stroke="none" />
</svg>