<?xml version="1.0" encoding="utf-8"?>
<svg version="1.1" xmlns:xlink="http://www.w3.org/1999/xlink" width="23px" height="23px" xmlns="http://www.w3.org/2000/svg">
  <g transform="matrix(1 0 0 1 -37 -10 )">
    <path d="M 59.5 14.6  C 59.5 14.6  59.5 28.4  59.5 28.4  C 59.5 30.864  54.24 32.5  48.5 32.5  C 42.76 32.5  37.5 30.864  37.5 28.4  C 37.5 28.4  37.5 14.6  37.5 14.6  C 37.5 12.136  42.76 10.5  48.5 10.5  C 54.24 10.5  59.5 12.136  59.5 14.6  Z " fill-rule="nonzero" fill="#1aaa52" stroke="none" fill-opacity="0" />
    <path d="M 37.5 14.9  C 37.5 12.436  42.34 10.5  48.5 10.5  C 54.66 10.5  59.5 12.436  59.5 14.9  C 59.5 14.9  59.5 28.1  59.5 28.1  C 59.5 30.564  54.66 32.5  48.5 32.5  C 42.34 32.5  37.5 30.564  37.5 28.1  C 37.5 28.1  37.5 14.9  37.5 14.9  Z " stroke-width="1" stroke="#797979" fill="none" />
    <path d="M 59.5 14.6  C 59.5 16.896  54.66 18.7  48.5 18.7  C 42.34 18.7  37.5 16.896  37.5 14.6  " stroke-width="1" stroke="#797979" fill="none" />
  </g>
</svg>