<?xml version="1.0" encoding="utf-8"?>
<svg version="1.1" xmlns:xlink="http://www.w3.org/1999/xlink" width="11px" height="11px" xmlns="http://www.w3.org/2000/svg">
  <g transform="matrix(1 0 0 1 0 -322 )">
    <path d="M 5.5 322  C 8.58 322  11 324.42  11 327.5  C 11 330.58  8.58 333  5.5 333  C 2.42 333  0 330.58  0 327.5  C 0 324.42  2.42 322  5.5 322  Z " fill-rule="nonzero" fill="#ffffff" stroke="none" />
    <path d="M 5.5 322.5  C 8.3 322.5  10.5 324.7  10.5 327.5  C 10.5 330.3  8.3 332.5  5.5 332.5  C 2.7 332.5  0.5 330.3  0.5 327.5  C 0.5 324.7  2.7 322.5  5.5 322.5  Z " stroke-width="1" stroke="#aaaaaa" fill="none" />
  </g>
</svg>