<?xml version="1.0" encoding="utf-8"?>
<svg version="1.1" xmlns:xlink="http://www.w3.org/1999/xlink" width="106px" height="106px" xmlns="http://www.w3.org/2000/svg">
  <g transform="matrix(1 0 0 1 -769 -646 )">
    <path d="M 775 655  A 3 3 0 0 1 778 652 L 866 652  A 3 3 0 0 1 869 655 L 869 743  A 3 3 0 0 1 866 746 L 778 746  A 3 3 0 0 1 775 743 L 775 655  Z " fill-rule="nonzero" fill="#ffffff" stroke="none" fill-opacity="0" />
    <path d="M 772 655  A 6 6 0 0 1 778 649 L 866 649  A 6 6 0 0 1 872 655 L 872 743  A 6 6 0 0 1 866 749 L 778 749  A 6 6 0 0 1 772 743 L 772 655  Z " stroke-width="6" stroke="#ff0000" fill="none" stroke-opacity="0.596078431372549" />
  </g>
</svg>