<?xml version="1.0" encoding="utf-8"?>
<svg version="1.1" xmlns:xlink="http://www.w3.org/1999/xlink" width="338px" height="61px" xmlns="http://www.w3.org/2000/svg">
  <g transform="matrix(1 0 0 1 -18 -283 )">
    <path d="M 0.407960199004979 59.7860696517413  L 12.3482587064677 0.582089552238813  L 15.8308457711443 55.3084577114428  L 22.2985074626866 3.06965174129357  L 26.7761194029851 52.3233830845771  L 33.7412935323383 6.05472636815921  L 37.7213930348259 59.7860696517413  L 44.1890547263681 22.9701492537314  L 45 50.8308457711443  L 53.5 25.955223880597  L 53.5 55.3084577114428  L 64.089552238806 11.0298507462687  L 65 47.8457711442786  L 82.5 3.06965174129357  L 82.5 44.363184079602  L 82 50.8308457711443  L 84.9850746268656 55.3084577114428  L 95.5 16.5024875621891  L 95.5 60  L 106.5 18.9900497512438  L 106.5 52.3233830845771  L 118.318407960199 18.9900497512438  L 119 52.8208955223881  L 128.766169154229 18.9900497512438  L 129 49.8358208955224  L 144.686567164179 16.5024875621891  L 140.208955223881 47.8457711442786  L 155.134328358209 16.5024875621891  L 156 45.8557213930349  L 166.07960199005 18.9900497512438  L 179.5 50.8308457711443  L 179.5 16.5024875621891  L 182.497512437811 45.8557213930349  L 191.950248756219 11.0298507462687  L 188.467661691542 39.3880597014926  L 197.5 16.5024875621891  L 197.5 52.3233830845771  L 207.373134328358 14.0149253731344  L 210.855721393035 52.3233830845771  L 217.5 25.955223880597  L 217.5 55.3084577114428  L 225.5 16.5024875621891  L 225.5 52.8208955223881  L 233.5 22.9701492537314  L 233.5 50.8308457711443  L 248.5 6.05472636815921  L 248.5 49.8358208955224  L 264.587064676617 16.5024875621891  L 265 47.3482587064677  L 277.5 11.0298507462687  L 277.5 49.8358208955224  L 287.47263681592 14.0149253731344  L 288 51.3283582089553  L 300.905472636816 14.0149253731344  L 306.378109452736 47.8457711442786  L 310.5 14.0149253731344  L 310.5 52.8208955223881  L 320.308457711443 11.0298507462687  L 325.283582089552 59.7860696517413  L 331.253731343284 18.9900497512438  L 336.228855721393 52.8208955223881  " stroke-width="1" stroke="#000000" fill="none" stroke-opacity="0.349019607843137" transform="matrix(1 0 0 1 18 283 )" />
  </g>
</svg>