<?xml version="1.0" encoding="utf-8"?>
<svg version="1.1" xmlns:xlink="http://www.w3.org/1999/xlink" width="115px" height="115px" xmlns="http://www.w3.org/2000/svg">
  <g transform="matrix(1 0 0 1 -37 -140 )">
    <path d="M 94.5 154.5  C 118.58 154.5  137.5 173.42  137.5 197.5  C 137.5 221.58  118.58 240.5  94.5 240.5  C 70.42 240.5  51.5 221.58  51.5 197.5  C 51.5 173.42  70.42 154.5  94.5 154.5  Z " fill-rule="nonzero" fill="#ffffff" stroke="none" />
    <path d="M 94.5 147.5  C 122.5 147.5  144.5 169.5  144.5 197.5  C 144.5 225.5  122.5 247.5  94.5 247.5  C 66.5 247.5  44.5 225.5  44.5 197.5  C 44.5 169.5  66.5 147.5  94.5 147.5  Z " stroke-width="15" stroke="#00c15d" fill="none" stroke-opacity="0.996078431372549" />
  </g>
</svg>