<?xml version="1.0" encoding="utf-8"?>
<svg version="1.1" xmlns:xlink="http://www.w3.org/1999/xlink" width="333px" height="214px" xmlns="http://www.w3.org/2000/svg">
  <g transform="matrix(1 0 0 1 -62 -383 )">
    <path d="M 63 405  A 21 21 0 0 1 84 384 L 373 384  A 21 21 0 0 1 394 405 L 394 575  A 21 21 0 0 1 373 596 L 84 596  A 21 21 0 0 1 63 575 L 63 405  Z " fill-rule="nonzero" fill="#f2f2f2" stroke="none" />
    <path d="M 62.5 405  A 21.5 21.5 0 0 1 84 383.5 L 373 383.5  A 21.5 21.5 0 0 1 394.5 405 L 394.5 575  A 21.5 21.5 0 0 1 373 596.5 L 84 596.5  A 21.5 21.5 0 0 1 62.5 575 L 62.5 405  Z " stroke-width="1" stroke-dasharray="3,1" stroke="#c9c9c9" fill="none" stroke-dashoffset="0.5" />
  </g>
</svg>