<?xml version="1.0" encoding="utf-8"?>
<svg version="1.1" xmlns:xlink="http://www.w3.org/1999/xlink" width="55px" height="55px" xmlns="http://www.w3.org/2000/svg">
  <g transform="matrix(1 0 0 1 -99 -174 )">
    <path d="M 126.5 174  C 141.9 174  154 186.1  154 201.5  C 154 216.9  141.9 229  126.5 229  C 111.1 229  99 216.9  99 201.5  C 99 186.1  111.1 174  126.5 174  Z " fill-rule="nonzero" fill="#e4e4e4" stroke="none" />
    <path d="M 126.5 174.5  C 141.62 174.5  153.5 186.38  153.5 201.5  C 153.5 216.62  141.62 228.5  126.5 228.5  C 111.38 228.5  99.5 216.62  99.5 201.5  C 99.5 186.38  111.38 174.5  126.5 174.5  Z " stroke-width="1" stroke="#797979" fill="none" />
  </g>
</svg>