<?xml version="1.0" encoding="utf-8"?>
<svg version="1.1" xmlns:xlink="http://www.w3.org/1999/xlink" width="11px" height="11px" xmlns="http://www.w3.org/2000/svg">
  <g transform="matrix(1 0 0 1 -169 -203 )">
    <path d="M 174.5 203  C 177.58 203  180 205.42  180 208.5  C 180 211.58  177.58 214  174.5 214  C 171.42 214  169 211.58  169 208.5  C 169 205.42  171.42 203  174.5 203  Z " fill-rule="nonzero" fill="#ffffff" stroke="none" />
    <path d="M 174.5 203.5  C 177.3 203.5  179.5 205.7  179.5 208.5  C 179.5 211.3  177.3 213.5  174.5 213.5  C 171.7 213.5  169.5 211.3  169.5 208.5  C 169.5 205.7  171.7 203.5  174.5 203.5  Z " stroke-width="1" stroke="#797979" fill="none" />
  </g>
</svg>