<?xml version="1.0" encoding="utf-8"?>
<svg version="1.1" xmlns:xlink="http://www.w3.org/1999/xlink" width="62px" height="62px" xmlns="http://www.w3.org/2000/svg">
  <g transform="matrix(1 0 0 1 -39 -542 )">
    <path d="M 70 542  C 87.36 542  101 555.64  101 573  C 101 590.36  87.36 604  70 604  C 52.64 604  39 590.36  39 573  C 39 555.64  52.64 542  70 542  Z " fill-rule="nonzero" fill="#ffffff" stroke="none" />
    <path d="M 70 542.5  C 87.08 542.5  100.5 555.92  100.5 573  C 100.5 590.08  87.08 603.5  70 603.5  C 52.92 603.5  39.5 590.08  39.5 573  C 39.5 555.92  52.92 542.5  70 542.5  Z " stroke-width="1" stroke="#cccccc" fill="none" />
  </g>
</svg>