<?xml version="1.0" encoding="utf-8"?>
<svg version="1.1" xmlns:xlink="http://www.w3.org/1999/xlink" width="20px" height="20px" xmlns="http://www.w3.org/2000/svg">
  <g transform="matrix(1 0 0 1 -88 -9 )">
    <path d="M 96.1181313811047 16.4098300562505  L 98 10.6180339887499  L 99.8818686188953 16.4098300562505  L 105.971723394364 16.4098300562505  L 101.044927387734 19.9893568818739  L 102.92679600663 25.7811529493745  L 98 22.2016261237512  L 93.0732039933704 25.7811529493745  L 94.9550726122657 19.9893568818739  L 90.0282766056361 16.4098300562505  L 96.1181313811047 16.4098300562505  Z " fill-rule="nonzero" fill="#ffffff" stroke="none" fill-opacity="0" />
    <path d="M 95.7548601171021 15.9098300562505  L 98 9  L 100.245139882898 15.9098300562505  L 107.510565162952 15.9098300562505  L 101.632712640027 20.1803398874989  L 103.877852522925 27.0901699437495  L 98 22.8196601125011  L 92.1221474770753 27.0901699437495  L 94.3672873599732 20.1803398874989  L 88.4894348370485 15.9098300562505  L 95.7548601171021 15.9098300562505  Z M 98 12.2360679774998  L 96.4814026451074 16.9098300562505  L 91.5671183742237 16.9098300562505  L 95.5428578645581 19.7983738762488  L 94.0242605096656 24.4721359549996  L 98 21.5835921350013  L 101.975739490334 24.4721359549996  L 100.457142135442 19.7983738762488  L 104.432881625776 16.9098300562505  L 99.5185973548926 16.9098300562505  L 98 12.2360679774998  Z " fill-rule="nonzero" fill="#000000" stroke="none" />
  </g>
</svg>