<?xml version="1.0" encoding="utf-8"?>
<svg version="1.1" xmlns:xlink="http://www.w3.org/1999/xlink" width="20px" height="20px" xmlns="http://www.w3.org/2000/svg">
  <g transform="matrix(1 0 0 1 -24 -11 )">
    <path d="M 35.5 11.5  L 32.5 11.5  L 32.5 19.5  L 24.5 19.5  L 24.5 22.5  L 32.5 22.5  L 32.5 30.5  L 35.5 30.5  L 35.5 22.5  L 43.5 22.5  L 43.5 19.5  L 35.5 19.5  L 35.5 11.5  Z " fill-rule="nonzero" fill="#ffffff" stroke="none" fill-opacity="0" />
    <path d="M 35.5 11.5  L 32.5 11.5  L 32.5 19.5  L 24.5 19.5  L 24.5 22.5  L 32.5 22.5  L 32.5 30.5  L 35.5 30.5  L 35.5 22.5  L 43.5 22.5  L 43.5 19.5  L 35.5 19.5  L 35.5 11.5  Z " stroke-width="1" stroke="#000000" fill="none" />
  </g>
</svg>