<?xml version="1.0" encoding="utf-8"?>
<svg version="1.1" xmlns:xlink="http://www.w3.org/1999/xlink" width="20px" height="20px" xmlns="http://www.w3.org/2000/svg">
  <g transform="matrix(1 0 0 1 -149 -11 )">
    <path d="M 159 13.7071067811865  C 157 11.5  155 11.5  154 11.5  C 152.2 11.5  149.5 13.3275862068966  149.5 16.8  C 149.5 24.6475571970105  159 30.3896722192133  159 30.3896722192133  C 159 30.3896722192133  168.5 24.6475571970105  168.5 16.8  C 168.5 13.3275862068966  165.8 11.5  164 11.5  C 163 11.5  161 11.5  159 13.7071067811865  Z " fill-rule="nonzero" fill="#ffffff" stroke="none" fill-opacity="0" />
    <path d="M 159 13  C 157 11  155 11  154 11  C 152 11  149 13  149 16.8  C 149 25  159 31  159 31  C 159 31  169 25  169 16.8  C 169 13  166 11  164 11  C 163 11  161 11  159 13  Z M 159 14.4142135623731  C 161 12  163 12  164 12  C 165.6 12  168 13.6551724137931  168 16.8  C 168 24.295114394021  159 29.7793444384266  159 29.7793444384266  C 159 29.7793444384266  150 24.295114394021  150 16.8  C 150 13.6551724137931  152.4 12  154 12  C 155 12  157 12  159 14.4142135623731  Z " fill-rule="nonzero" fill="#000000" stroke="none" />
  </g>
</svg>