<?xml version="1.0" encoding="utf-8"?>
<svg version="1.1" xmlns:xlink="http://www.w3.org/1999/xlink" width="98px" height="98px" xmlns="http://www.w3.org/2000/svg">
  <g transform="matrix(1 0 0 1 -180 -44 )">
    <path d="M 229 47  C 254.76 47  275 67.24  275 93  C 275 118.76  254.76 139  229 139  C 203.24 139  183 118.76  183 93  C 183 67.24  203.24 47  229 47  Z " fill-rule="nonzero" fill="#bcbcbc" stroke="none" />
    <path d="M 229 46  C 255.32 46  276 66.68  276 93  C 276 119.32  255.32 140  229 140  C 202.68 140  182 119.32  182 93  C 182 66.68  202.68 46  229 46  Z " stroke-width="4" stroke="#ffffff" fill="none" />
  </g>
</svg>